{"glyphs":{":":{"x_min":0,"x_max":159,"ha":159,"o":"m 154 215 b 209 290 144 337 87 249 b 40 177 99 140 154 215 z m 76 43 b 131 118 66 165 9 77 b -38 5 21 -32 76 43 z"},"$":{"x_min":0,"x_max":373,"ha":373,"o":"m 278 352 l 305 423 l 269 431 l 243 360 b 195 361 141 327 147 273 b 147 239 166 216 186 193 l 128 26 b 103 28 80 36 63 51 b 41 83 47 125 84 152 b 103 163 96 184 72 186 b 50 188 26 175 15 148 b 5 119 7 71 46 41 b 64 21 95 14 122 13 l 99 -58 l 119 -60 l 147 10 b 249 14 354 123 277 210 b 271 220 254 235 237 248 l 272 336 l 281 329 b 279 310 277 288 296 278 b 311 270 322 287 320 297 b 316 326 299 344 278 352 z m 240 124 b 267 68 210 31 152 27 l 207 169 b 220 155 233 140 240 124 z m 217 343 b 223 344 231 345 238 344 l 212 268 b 182 296 161 324 217 343 z m 298 292 l 300 294 l 300 291 b 298 291 298 291 298 292 z"},"?":{"x_min":0,"x_max":289,"ha":289,"o":"m 114 306 b 119 300 132 309 127 318 b 92 382 165 487 243 472 b 290 463 308 400 247 312 b 208 255 146 248 104 196 b 75 160 84 132 107 117 b 129 103 148 137 120 149 b 110 154 112 170 121 184 b 143 217 263 213 324 301 b 380 382 351 478 251 495 b 127 516 29 400 114 306 z m 65 -10 b 132 47 96 123 23 55 b -35 1 6 -62 65 -10 z"},"<":{"x_min":0,"x_max":368,"ha":368,"o":"m 97 157 l 295 242 l 306 268 l 282 324 l 50 196 l 39 174 l 179 28 l 224 60 z"},"'":{"x_min":0,"x_max":0,"ha":0,"o":"m 183 459 b 198 518 111 537 101 423 b 99 393 81 360 54 343 l 60 333 b 129 380 171 413 183 459 z"},"=":{"x_min":0,"x_max":349,"ha":349,"o":"m 310 216 l 328 271 l 70 253 l 52 216 z m 259 89 l 276 144 l 16 126 l -2 89 z"},"a":{"x_min":0,"x_max":263,"ha":263,"o":"m -1 -4 b 34 -4 64 31 94 77 b 81 34 96 -6 130 -6 b 176 -6 246 85 310 216 b 310 222 304 224 300 221 b 254 126 193 52 170 52 b 153 52 168 75 180 102 l 256 271 l 188 271 l 176 246 b 177 274 161 282 142 282 b 81 282 22 215 -20 140 b -62 64 -55 -4 -1 -4 z m 44 51 b 24 51 23 78 59 143 b 95 209 126 258 153 258 b 180 258 156 202 131 156 b 96 92 64 51 44 51 z"},"L":{"x_min":0,"x_max":466,"ha":466,"o":"m 531 -47 b 449 -105 294 -18 173 32 b 237 73 286 137 322 227 b 682 275 721 555 567 539 b 455 528 362 453 243 262 l 235 249 b 125 270 167 405 252 408 b 109 499 23 255 221 225 b 169 139 141 85 109 55 b 86 61 66 64 49 62 b -41 50 -43 -42 82 -8 b 99 -3 115 2 131 9 b 243 -64 456 -261 531 -47 z m 332 255 b 403 435 469 498 552 510 b 652 523 548 304 332 255 z"},"3":{"x_min":0,"x_max":1753,"ha":1753,"o":"m 983 425 b 1003 425 1016 433 1020 452 b 1021 461 1021 471 1021 482 b 1021 499 1025 524 1019 540 b 1014 554 997 558 982 558 b 969 558 956 551 952 536 b 948 520 949 496 949 477 b 949 469 949 462 951 453 b 955 436 965 425 983 425 z m 624 -186 b 638 -186 640 -173 640 -163 l 632 -163 b 632 -165 632 -171 630 -174 b 628 -180 620 -181 616 -176 b 612 -171 613 -157 613 -153 b 613 -147 612 -134 616 -129 b 620 -125 628 -125 630 -130 b 632 -134 632 -139 632 -142 l 640 -142 b 640 -131 640 -121 626 -121 b 611 -117 604 -127 604 -140 b 604 -157 599 -186 624 -186 z m 661 -178 b 653 -174 655 -153 655 -147 l 655 -138 b 655 -130 661 -123 670 -127 b 676 -130 675 -148 675 -155 b 675 -164 675 -186 661 -178 z m 666 -186 b 685 -186 684 -167 684 -153 b 684 -139 685 -121 666 -121 b 647 -117 647 -134 647 -152 b 647 -165 645 -186 666 -186 z m 693 -186 l 701 -186 l 701 -138 l 712 -186 l 720 -186 l 730 -138 l 730 -186 l 737 -186 l 735 -121 l 726 -121 l 717 -173 l 704 -121 l 693 -121 z m 672 -102 l 683 -102 l 683 -72 l 695 -72 l 695 -66 l 683 -66 l 683 -42 l 699 -42 l 699 -35 l 672 -35 z m 748 -186 l 755 -186 l 756 -138 l 766 -186 l 773 -186 l 784 -138 l 785 -186 l 792 -186 l 789 -121 l 780 -121 l 769 -173 l 758 -121 l 748 -121 z m 722 -102 b 741 -102 741 -84 741 -71 b 741 -58 742 -38 725 -34 b 704 -34 704 -51 704 -67 b 704 -83 701 -102 722 -102 z m 720 -96 b 709 -93 713 -72 713 -66 l 713 -55 b 713 -46 720 -39 726 -43 b 734 -46 731 -66 731 -72 b 731 -83 731 -100 720 -96 z m 802 -186 l 829 -186 l 829 -180 l 813 -180 l 813 -153 l 825 -153 l 825 -147 l 813 -147 l 813 -126 l 829 -126 l 829 -121 l 802 -121 z m 750 -35 l 750 -102 l 758 -102 l 758 -72 l 766 -72 l 775 -102 l 785 -102 l 775 -71 b 787 -66 785 -43 775 -38 b 768 -34 758 -35 750 -35 z m 835 -121 l 835 -186 l 846 -186 l 846 -153 l 853 -153 l 860 -186 l 869 -186 l 860 -153 b 871 -148 869 -127 860 -121 b 853 -117 844 -121 835 -121 z m 758 -66 l 758 -42 b 768 -42 775 -43 775 -54 b 775 -64 768 -66 758 -66 z m 846 -147 l 846 -126 b 853 -126 860 -127 860 -138 b 860 -147 853 -147 846 -147 z m 894 -186 b 911 -186 913 -173 913 -163 l 903 -163 b 903 -165 905 -171 902 -174 b 902 -180 892 -181 888 -176 b 884 -171 886 -157 886 -153 b 886 -147 884 -134 888 -129 b 892 -125 902 -125 902 -130 b 905 -134 903 -139 903 -142 l 913 -142 b 913 -131 911 -121 899 -121 b 884 -117 877 -127 877 -140 b 877 -157 871 -186 894 -186 z m 818 -102 l 829 -102 l 829 -42 l 840 -42 l 840 -35 l 808 -35 l 808 -42 l 818 -42 z m 923 -186 l 931 -186 l 931 -121 l 923 -121 z m 846 -102 l 853 -102 l 853 -72 l 872 -72 l 872 -102 l 881 -102 l 881 -35 l 872 -35 l 872 -66 l 853 -66 l 853 -35 l 846 -35 z m 939 -186 l 948 -186 l 951 -169 l 965 -169 l 968 -186 l 977 -186 l 961 -121 l 952 -121 z m 952 -164 l 957 -131 l 964 -164 z m 890 -102 l 918 -102 l 918 -97 l 902 -97 l 902 -72 l 914 -72 l 914 -66 l 902 -66 l 902 -42 l 918 -42 l 918 -35 l 890 -35 z m 982 -186 l 1010 -186 l 1010 -180 l 993 -180 l 993 -121 l 982 -121 z m 945 -102 l 952 -102 l 952 -72 l 965 -72 l 965 -66 l 952 -66 l 952 -42 l 970 -42 l 970 -35 l 945 -35 z m 1046 -186 l 1053 -186 l 1069 -121 l 1061 -121 l 1049 -169 l 1040 -121 l 1032 -121 z m 999 -102 b 1014 -97 1011 -79 1011 -67 l 1011 -35 l 1003 -35 l 1003 -66 b 1003 -73 1006 -97 993 -97 b 979 -97 983 -73 983 -66 l 983 -35 l 977 -35 l 977 -72 b 977 -76 976 -83 977 -87 b 978 -100 985 -105 999 -102 z m 1075 -186 l 1104 -186 l 1104 -180 l 1086 -180 l 1086 -153 l 1100 -153 l 1100 -147 l 1086 -147 l 1086 -126 l 1104 -126 l 1104 -121 l 1075 -121 z m 1021 -102 l 1046 -102 l 1046 -97 l 1032 -97 l 1032 -35 l 1021 -35 z m 1111 -121 l 1111 -186 l 1119 -186 l 1119 -153 l 1126 -153 l 1134 -186 l 1144 -186 l 1133 -153 b 1145 -150 1145 -127 1136 -121 b 1128 -117 1119 -121 1111 -121 z m 756 246 l 756 177 l 766 177 l 766 209 b 773 209 779 207 785 213 b 789 218 789 230 787 238 b 780 248 766 246 756 246 z m 1119 -147 l 1119 -126 b 1128 -126 1133 -127 1133 -138 b 1133 -147 1128 -147 1119 -147 z m 1053 -102 l 1079 -102 l 1079 -97 l 1062 -97 l 1062 -35 l 1053 -35 z m 766 214 l 766 242 b 775 242 780 242 780 228 b 780 223 780 219 775 215 b 773 214 768 214 766 214 z m 1170 -186 b 1182 -186 1187 -176 1182 -165 b 1182 -157 1174 -153 1170 -147 b 1165 -142 1157 -138 1161 -130 b 1163 -126 1166 -125 1170 -126 b 1174 -127 1174 -134 1176 -139 l 1182 -135 b 1182 -129 1182 -123 1174 -121 b 1170 -117 1163 -118 1157 -123 b 1147 -129 1150 -143 1159 -152 b 1165 -155 1176 -164 1176 -171 b 1176 -176 1171 -181 1165 -178 b 1161 -176 1159 -169 1159 -165 l 1150 -167 b 1150 -178 1157 -186 1170 -186 z m 798 177 l 823 177 l 823 184 l 805 184 l 805 246 l 798 246 z m 699 277 b 726 286 720 326 720 349 l 720 408 l 701 408 l 701 318 b 701 303 696 284 678 289 b 666 295 666 310 666 320 l 666 408 l 650 408 l 650 327 b 650 314 650 303 653 295 b 661 277 683 269 699 277 z m 1192 -186 l 1201 -186 l 1201 -121 l 1192 -121 z m 1104 -102 l 1111 -102 l 1116 -85 l 1128 -85 l 1130 -102 l 1140 -102 l 1126 -35 l 1116 -35 z m 830 177 l 855 177 l 855 184 l 838 184 l 838 209 l 852 209 l 852 215 l 838 215 l 838 242 l 855 242 l 855 246 l 830 246 z m 1116 -80 l 1121 -50 l 1126 -80 z m 1225 -178 b 1217 -174 1222 -153 1222 -147 l 1222 -138 b 1222 -130 1225 -123 1235 -127 b 1241 -130 1239 -148 1239 -155 b 1239 -164 1239 -186 1225 -178 z m 1230 -186 b 1249 -186 1249 -167 1249 -153 b 1249 -139 1250 -121 1231 -121 b 1210 -117 1210 -134 1210 -152 b 1210 -165 1209 -186 1230 -186 z m 859 177 l 867 177 l 869 196 l 884 196 l 886 177 l 897 177 l 884 246 l 872 246 z m 1147 -102 l 1155 -102 l 1155 -58 l 1174 -102 l 1180 -102 l 1180 -35 l 1171 -35 l 1171 -80 l 1153 -35 l 1147 -35 z m 869 201 l 877 234 l 884 201 z m 769 276 b 792 276 804 295 800 315 b 798 333 785 341 773 351 b 763 360 748 369 754 383 b 754 390 760 396 769 393 b 780 391 783 379 784 369 l 798 375 b 798 385 796 396 787 403 b 777 408 764 410 755 408 b 734 402 730 375 741 358 b 746 349 758 341 766 333 b 773 330 776 323 780 319 b 785 312 787 298 779 294 b 773 288 764 289 758 295 b 754 299 754 310 752 318 l 734 312 b 735 291 748 276 769 276 z m 1258 -186 l 1263 -186 l 1263 -140 l 1284 -186 l 1292 -186 l 1292 -121 l 1284 -121 l 1284 -164 l 1263 -121 l 1258 -121 z m 919 177 b 931 177 939 188 935 200 b 934 206 926 211 919 215 b 914 221 909 226 911 234 b 913 242 922 244 926 226 l 935 227 b 935 234 931 242 926 244 b 919 248 911 246 907 243 b 897 234 902 221 911 214 b 915 207 926 201 926 192 b 926 186 923 184 915 184 b 911 186 911 194 911 200 l 902 196 b 902 186 909 177 919 177 z m 1191 -35 l 1191 -102 b 1197 -102 1210 -104 1217 -98 b 1228 -93 1224 -80 1224 -71 b 1224 -62 1228 -46 1220 -41 b 1212 -34 1199 -35 1191 -35 z m 1200 -97 l 1200 -42 b 1209 -42 1214 -42 1216 -54 l 1216 -87 b 1213 -97 1208 -97 1200 -97 z m 941 177 l 969 177 l 969 184 l 952 184 l 952 209 l 965 209 l 965 215 l 952 215 l 952 242 l 969 242 l 969 246 l 941 246 z m 649 428 l 666 428 l 666 487 b 678 487 693 484 701 494 b 717 504 717 528 709 543 b 701 557 689 558 676 558 l 649 558 z m 817 277 l 865 277 l 865 289 l 834 289 l 834 337 l 860 337 l 860 351 l 834 351 l 834 393 l 865 393 l 865 408 l 817 408 z m 666 500 l 666 543 b 672 543 678 546 685 543 b 696 541 696 529 696 521 b 696 512 695 504 685 501 b 678 499 672 500 666 500 z m 1007 177 l 1016 177 l 1031 246 l 1021 246 l 1011 196 l 1003 246 l 993 246 z m 726 428 l 777 428 l 777 438 l 745 438 l 745 487 l 771 487 l 771 500 l 745 500 l 745 543 l 776 543 l 776 558 l 726 558 z m 1037 177 l 1046 177 l 1046 246 l 1037 246 z m 1073 177 b 1084 177 1091 188 1088 200 b 1087 206 1078 213 1074 215 b 1070 221 1062 226 1065 234 b 1069 242 1078 244 1079 226 l 1088 227 b 1087 234 1084 242 1078 244 b 1074 248 1066 246 1061 243 b 1049 234 1057 221 1063 214 b 1070 207 1081 201 1079 192 b 1079 186 1075 184 1070 184 b 1066 186 1063 194 1063 200 l 1054 196 b 1057 186 1061 177 1073 177 z m 952 276 b 969 276 982 285 983 302 b 987 312 985 322 985 333 b 985 351 990 374 982 389 b 978 403 965 408 949 408 b 935 408 923 402 918 386 b 914 369 915 349 915 330 b 915 320 915 312 918 303 b 919 285 934 276 952 276 z m 941 290 b 934 295 935 307 935 318 l 935 341 b 935 354 932 369 935 382 b 937 389 940 393 948 393 b 952 396 957 393 964 389 b 969 383 969 377 969 369 l 969 322 l 969 307 b 968 302 965 295 957 290 b 955 289 948 289 941 290 z m 1096 177 l 1107 177 l 1107 246 l 1096 246 z m 792 558 l 792 428 l 811 428 l 811 487 l 825 487 l 843 428 l 859 428 l 843 492 b 864 499 861 542 843 553 b 829 559 809 558 792 558 z m 1125 177 l 1133 177 l 1133 242 l 1144 242 l 1144 246 l 1112 246 l 1112 242 l 1125 242 z m 811 500 l 811 543 b 817 543 823 546 830 542 b 838 540 839 530 839 525 b 840 515 838 505 830 501 b 823 500 817 500 811 500 z m 1006 277 l 1020 277 l 1020 366 l 1058 277 l 1070 277 l 1070 408 l 1054 408 l 1054 320 l 1019 408 l 1006 408 z m 907 425 b 930 425 941 445 937 466 b 934 479 922 490 911 500 b 901 508 886 520 888 534 b 890 542 899 546 907 546 b 918 542 919 529 922 521 l 935 526 b 935 536 932 547 924 553 b 915 558 902 559 892 557 b 869 551 865 526 877 505 b 884 498 894 490 902 483 b 910 477 914 471 918 467 b 923 461 924 449 918 444 b 911 438 902 438 894 445 b 890 450 888 458 888 467 l 869 463 b 871 442 884 425 907 425 z m 1091 277 l 1140 277 l 1140 289 l 1109 289 l 1109 408 l 1091 408 z m 978 441 b 968 445 969 458 969 466 l 969 490 b 969 503 965 521 969 530 b 972 540 976 543 982 543 b 987 546 993 546 997 540 b 1003 534 1003 526 1003 519 l 1003 458 b 1003 452 1003 445 994 441 b 990 438 982 438 978 441 z m 1230 277 l 1249 277 l 1249 295 l 1230 295 z m 1174 303 l 1174 277 l 1192 277 l 1192 309 b 1192 314 1191 320 1193 327 l 1203 353 l 1220 408 l 1203 408 l 1182 345 l 1163 408 l 1147 408 l 1165 349 b 1170 341 1171 333 1174 323 z m 1040 428 l 1054 428 l 1054 515 l 1091 428 l 1104 428 l 1104 558 l 1088 558 l 1088 469 l 1050 558 l 1040 558 z m 1235 305 l 1241 305 l 1249 408 l 1230 408 z m 1117 428 l 1133 428 l 1140 458 l 1167 458 l 1174 428 l 1191 428 l 1163 558 l 1145 558 z m 1144 471 l 1154 530 l 1165 471 z m 1204 428 l 1255 428 l 1255 438 l 1224 438 l 1224 558 l 1204 558 z m 410 -11 l 434 -11 l 436 55 l 449 -11 l 468 -11 l 479 56 l 482 -11 l 505 -11 l 504 151 l 476 151 l 458 49 l 438 151 l 412 151 z m 526 -11 l 551 -11 l 551 68 l 580 -11 l 600 -11 l 600 151 l 574 151 l 574 73 l 546 151 l 526 151 z m 618 -11 l 646 -11 l 646 18 l 618 18 z m 701 -13 b 719 -9 729 6 730 20 b 732 41 725 58 710 73 l 698 88 b 692 94 685 98 682 107 b 680 113 681 129 694 128 b 704 126 702 107 704 96 l 729 98 b 729 117 727 141 708 150 b 685 161 658 145 658 121 b 655 108 658 94 664 84 b 666 78 673 73 679 67 b 688 56 704 43 704 26 b 704 20 702 14 697 13 b 692 11 689 14 687 18 b 681 28 681 38 681 47 l 655 46 b 655 32 658 18 663 6 b 669 -9 685 -15 701 -13 z m 800 -6 l 800 -11 l 822 -11 l 822 73 l 780 73 l 780 49 l 796 49 b 796 41 799 6 780 13 b 767 17 771 38 771 47 l 771 106 b 771 118 773 130 785 128 b 793 124 794 122 794 94 l 820 94 b 820 112 822 136 803 147 b 793 154 779 154 767 151 b 752 145 745 131 743 117 b 741 103 742 86 742 70 b 742 55 741 41 743 25 b 744 13 748 -2 759 -8 b 771 -15 789 -15 800 -6 z m 827 -31 l 850 -31 l 896 171 l 871 171 z m 935 -14 b 941 -15 948 -14 953 -11 b 972 -2 975 21 975 41 l 949 43 b 949 32 950 13 938 11 b 933 11 928 13 928 21 l 928 116 b 928 125 933 128 938 127 b 950 125 949 106 949 96 l 975 97 b 975 116 972 141 953 148 b 948 152 941 153 935 152 b 918 150 901 138 901 118 l 901 20 b 901 1 918 -12 935 -14 z m 978 -12 l 1005 -12 l 1011 26 l 1028 26 l 1034 -12 l 1061 -12 l 1033 150 l 1007 150 z m 1015 50 l 1019 83 l 1024 50 z m 1064 -12 l 1090 -12 l 1090 54 l 1102 -12 l 1121 -12 l 1134 55 l 1135 -12 l 1160 -12 l 1159 150 l 1130 150 l 1111 48 l 1093 150 l 1067 150 z m 1173 -12 l 1199 -12 l 1199 38 b 1210 38 1213 38 1219 41 b 1249 48 1249 83 1249 96 b 1249 131 1231 150 1213 150 l 1173 150 z m 1214 63 l 1199 63 l 1199 127 l 1210 127 b 1226 127 1224 67 1214 63 z m 1243 -12 l 1271 -12 l 1276 26 l 1294 26 l 1299 -12 l 1326 -12 l 1299 150 l 1273 150 z m 1281 50 l 1285 83 l 1289 50 z m 1329 -12 l 1355 -12 l 1355 67 l 1382 -12 l 1403 -12 l 1403 150 l 1377 150 l 1377 72 l 1349 150 l 1329 150 z m 1406 -12 l 1434 -12 l 1439 26 l 1457 26 l 1462 -12 l 1489 -12 l 1462 150 l 1436 150 z m 1443 50 l 1448 83 l 1452 50 z"},";":{"x_min":0,"x_max":168,"ha":168,"o":"m 102 92 b 102 130 61 149 26 123 b 1 102 -4 66 11 40 b 13 11 -1 -17 -47 -44 l -38 -54 b 24 -23 102 36 102 92 z m 154 215 b 209 290 144 337 87 249 b 40 177 99 140 154 215 z"},"J":{"x_min":0,"x_max":497,"ha":497,"o":"m 137 -127 b 272 -127 379 -8 462 248 b 521 432 600 510 663 518 b 597 572 345 565 254 420 b 181 305 298 233 355 314 b 314 309 297 331 322 398 b 361 503 507 542 583 517 b 509 496 439 414 379 266 b 310 92 226 -32 133 -30 b 84 -30 45 8 51 56 b 59 119 123 163 196 119 b 166 203 11 189 -19 56 b -38 -28 8 -127 137 -127 z"},"V":{"x_min":0,"x_max":570,"ha":570,"o":"m 275 -26 b 248 52 616 239 690 386 b 717 441 690 527 588 532 b 623 498 622 454 597 408 b 520 268 260 94 254 9 b 245 61 286 153 380 301 b 487 468 436 522 391 539 b 288 577 135 442 109 364 b 89 306 126 247 201 279 b 172 289 167 337 174 364 b 195 448 297 536 340 496 b 378 462 332 369 262 239 b 187 100 172 -10 275 -26 z"},"\"":{"x_min":0,"x_max":157,"ha":157,"o":"m 170 412 b 185 471 98 490 88 376 b 86 346 68 313 41 296 l 47 286 b 116 333 158 366 170 412 z m 251 412 b 266 471 179 490 169 376 b 167 346 149 313 122 296 l 128 286 b 197 333 239 366 251 412 z"},"7":{"x_min":0,"x_max":1753,"ha":1753,"o":"m 983 425 b 1003 425 1016 433 1020 452 b 1021 461 1021 471 1021 482 b 1021 499 1025 524 1019 540 b 1014 554 997 558 982 558 b 969 558 956 551 952 536 b 948 520 949 496 949 477 b 949 469 949 462 951 453 b 955 436 965 425 983 425 z m 624 -186 b 638 -186 640 -173 640 -163 l 632 -163 b 632 -165 632 -171 630 -174 b 628 -180 620 -181 616 -176 b 612 -171 613 -157 613 -153 b 613 -147 612 -134 616 -129 b 620 -125 628 -125 630 -130 b 632 -134 632 -139 632 -142 l 640 -142 b 640 -131 640 -121 626 -121 b 611 -117 604 -127 604 -140 b 604 -157 599 -186 624 -186 z m 661 -178 b 653 -174 655 -153 655 -147 l 655 -138 b 655 -130 661 -123 670 -127 b 676 -130 675 -148 675 -155 b 675 -164 675 -186 661 -178 z m 666 -186 b 685 -186 684 -167 684 -153 b 684 -139 685 -121 666 -121 b 647 -117 647 -134 647 -152 b 647 -165 645 -186 666 -186 z m 693 -186 l 701 -186 l 701 -138 l 712 -186 l 720 -186 l 730 -138 l 730 -186 l 737 -186 l 735 -121 l 726 -121 l 717 -173 l 704 -121 l 693 -121 z m 672 -102 l 683 -102 l 683 -72 l 695 -72 l 695 -66 l 683 -66 l 683 -42 l 699 -42 l 699 -35 l 672 -35 z m 748 -186 l 755 -186 l 756 -138 l 766 -186 l 773 -186 l 784 -138 l 785 -186 l 792 -186 l 789 -121 l 780 -121 l 769 -173 l 758 -121 l 748 -121 z m 722 -102 b 741 -102 741 -84 741 -71 b 741 -58 742 -38 725 -34 b 704 -34 704 -51 704 -67 b 704 -83 701 -102 722 -102 z m 720 -96 b 709 -93 713 -72 713 -66 l 713 -55 b 713 -46 720 -39 726 -43 b 734 -46 731 -66 731 -72 b 731 -83 731 -100 720 -96 z m 802 -186 l 829 -186 l 829 -180 l 813 -180 l 813 -153 l 825 -153 l 825 -147 l 813 -147 l 813 -126 l 829 -126 l 829 -121 l 802 -121 z m 750 -35 l 750 -102 l 758 -102 l 758 -72 l 766 -72 l 775 -102 l 785 -102 l 775 -71 b 787 -66 785 -43 775 -38 b 768 -34 758 -35 750 -35 z m 835 -121 l 835 -186 l 846 -186 l 846 -153 l 853 -153 l 860 -186 l 869 -186 l 860 -153 b 871 -148 869 -127 860 -121 b 853 -117 844 -121 835 -121 z m 758 -66 l 758 -42 b 768 -42 775 -43 775 -54 b 775 -64 768 -66 758 -66 z m 846 -147 l 846 -126 b 853 -126 860 -127 860 -138 b 860 -147 853 -147 846 -147 z m 894 -186 b 911 -186 913 -173 913 -163 l 903 -163 b 903 -165 905 -171 902 -174 b 902 -180 892 -181 888 -176 b 884 -171 886 -157 886 -153 b 886 -147 884 -134 888 -129 b 892 -125 902 -125 902 -130 b 905 -134 903 -139 903 -142 l 913 -142 b 913 -131 911 -121 899 -121 b 884 -117 877 -127 877 -140 b 877 -157 871 -186 894 -186 z m 818 -102 l 829 -102 l 829 -42 l 840 -42 l 840 -35 l 808 -35 l 808 -42 l 818 -42 z m 923 -186 l 931 -186 l 931 -121 l 923 -121 z m 846 -102 l 853 -102 l 853 -72 l 872 -72 l 872 -102 l 881 -102 l 881 -35 l 872 -35 l 872 -66 l 853 -66 l 853 -35 l 846 -35 z m 939 -186 l 948 -186 l 951 -169 l 965 -169 l 968 -186 l 977 -186 l 961 -121 l 952 -121 z m 952 -164 l 957 -131 l 964 -164 z m 890 -102 l 918 -102 l 918 -97 l 902 -97 l 902 -72 l 914 -72 l 914 -66 l 902 -66 l 902 -42 l 918 -42 l 918 -35 l 890 -35 z m 982 -186 l 1010 -186 l 1010 -180 l 993 -180 l 993 -121 l 982 -121 z m 945 -102 l 952 -102 l 952 -72 l 965 -72 l 965 -66 l 952 -66 l 952 -42 l 970 -42 l 970 -35 l 945 -35 z m 1046 -186 l 1053 -186 l 1069 -121 l 1061 -121 l 1049 -169 l 1040 -121 l 1032 -121 z m 999 -102 b 1014 -97 1011 -79 1011 -67 l 1011 -35 l 1003 -35 l 1003 -66 b 1003 -73 1006 -97 993 -97 b 979 -97 983 -73 983 -66 l 983 -35 l 977 -35 l 977 -72 b 977 -76 976 -83 977 -87 b 978 -100 985 -105 999 -102 z m 1075 -186 l 1104 -186 l 1104 -180 l 1086 -180 l 1086 -153 l 1100 -153 l 1100 -147 l 1086 -147 l 1086 -126 l 1104 -126 l 1104 -121 l 1075 -121 z m 1021 -102 l 1046 -102 l 1046 -97 l 1032 -97 l 1032 -35 l 1021 -35 z m 1111 -121 l 1111 -186 l 1119 -186 l 1119 -153 l 1126 -153 l 1134 -186 l 1144 -186 l 1133 -153 b 1145 -150 1145 -127 1136 -121 b 1128 -117 1119 -121 1111 -121 z m 756 246 l 756 177 l 766 177 l 766 209 b 773 209 779 207 785 213 b 789 218 789 230 787 238 b 780 248 766 246 756 246 z m 1119 -147 l 1119 -126 b 1128 -126 1133 -127 1133 -138 b 1133 -147 1128 -147 1119 -147 z m 1053 -102 l 1079 -102 l 1079 -97 l 1062 -97 l 1062 -35 l 1053 -35 z m 766 214 l 766 242 b 775 242 780 242 780 228 b 780 223 780 219 775 215 b 773 214 768 214 766 214 z m 1170 -186 b 1182 -186 1187 -176 1182 -165 b 1182 -157 1174 -153 1170 -147 b 1165 -142 1157 -138 1161 -130 b 1163 -126 1166 -125 1170 -126 b 1174 -127 1174 -134 1176 -139 l 1182 -135 b 1182 -129 1182 -123 1174 -121 b 1170 -117 1163 -118 1157 -123 b 1147 -129 1150 -143 1159 -152 b 1165 -155 1176 -164 1176 -171 b 1176 -176 1171 -181 1165 -178 b 1161 -176 1159 -169 1159 -165 l 1150 -167 b 1150 -178 1157 -186 1170 -186 z m 798 177 l 823 177 l 823 184 l 805 184 l 805 246 l 798 246 z m 699 277 b 726 286 720 326 720 349 l 720 408 l 701 408 l 701 318 b 701 303 696 284 678 289 b 666 295 666 310 666 320 l 666 408 l 650 408 l 650 327 b 650 314 650 303 653 295 b 661 277 683 269 699 277 z m 1192 -186 l 1201 -186 l 1201 -121 l 1192 -121 z m 1104 -102 l 1111 -102 l 1116 -85 l 1128 -85 l 1130 -102 l 1140 -102 l 1126 -35 l 1116 -35 z m 830 177 l 855 177 l 855 184 l 838 184 l 838 209 l 852 209 l 852 215 l 838 215 l 838 242 l 855 242 l 855 246 l 830 246 z m 1116 -80 l 1121 -50 l 1126 -80 z m 1225 -178 b 1217 -174 1222 -153 1222 -147 l 1222 -138 b 1222 -130 1225 -123 1235 -127 b 1241 -130 1239 -148 1239 -155 b 1239 -164 1239 -186 1225 -178 z m 1230 -186 b 1249 -186 1249 -167 1249 -153 b 1249 -139 1250 -121 1231 -121 b 1210 -117 1210 -134 1210 -152 b 1210 -165 1209 -186 1230 -186 z m 859 177 l 867 177 l 869 196 l 884 196 l 886 177 l 897 177 l 884 246 l 872 246 z m 1147 -102 l 1155 -102 l 1155 -58 l 1174 -102 l 1180 -102 l 1180 -35 l 1171 -35 l 1171 -80 l 1153 -35 l 1147 -35 z m 869 201 l 877 234 l 884 201 z m 769 276 b 792 276 804 295 800 315 b 798 333 785 341 773 351 b 763 360 748 369 754 383 b 754 390 760 396 769 393 b 780 391 783 379 784 369 l 798 375 b 798 385 796 396 787 403 b 777 408 764 410 755 408 b 734 402 730 375 741 358 b 746 349 758 341 766 333 b 773 330 776 323 780 319 b 785 312 787 298 779 294 b 773 288 764 289 758 295 b 754 299 754 310 752 318 l 734 312 b 735 291 748 276 769 276 z m 1258 -186 l 1263 -186 l 1263 -140 l 1284 -186 l 1292 -186 l 1292 -121 l 1284 -121 l 1284 -164 l 1263 -121 l 1258 -121 z m 919 177 b 931 177 939 188 935 200 b 934 206 926 211 919 215 b 914 221 909 226 911 234 b 913 242 922 244 926 226 l 935 227 b 935 234 931 242 926 244 b 919 248 911 246 907 243 b 897 234 902 221 911 214 b 915 207 926 201 926 192 b 926 186 923 184 915 184 b 911 186 911 194 911 200 l 902 196 b 902 186 909 177 919 177 z m 1191 -35 l 1191 -102 b 1197 -102 1210 -104 1217 -98 b 1228 -93 1224 -80 1224 -71 b 1224 -62 1228 -46 1220 -41 b 1212 -34 1199 -35 1191 -35 z m 1200 -97 l 1200 -42 b 1209 -42 1214 -42 1216 -54 l 1216 -87 b 1213 -97 1208 -97 1200 -97 z m 941 177 l 969 177 l 969 184 l 952 184 l 952 209 l 965 209 l 965 215 l 952 215 l 952 242 l 969 242 l 969 246 l 941 246 z m 649 428 l 666 428 l 666 487 b 678 487 693 484 701 494 b 717 504 717 528 709 543 b 701 557 689 558 676 558 l 649 558 z m 817 277 l 865 277 l 865 289 l 834 289 l 834 337 l 860 337 l 860 351 l 834 351 l 834 393 l 865 393 l 865 408 l 817 408 z m 666 500 l 666 543 b 672 543 678 546 685 543 b 696 541 696 529 696 521 b 696 512 695 504 685 501 b 678 499 672 500 666 500 z m 1007 177 l 1016 177 l 1031 246 l 1021 246 l 1011 196 l 1003 246 l 993 246 z m 726 428 l 777 428 l 777 438 l 745 438 l 745 487 l 771 487 l 771 500 l 745 500 l 745 543 l 776 543 l 776 558 l 726 558 z m 1037 177 l 1046 177 l 1046 246 l 1037 246 z m 1073 177 b 1084 177 1091 188 1088 200 b 1087 206 1078 213 1074 215 b 1070 221 1062 226 1065 234 b 1069 242 1078 244 1079 226 l 1088 227 b 1087 234 1084 242 1078 244 b 1074 248 1066 246 1061 243 b 1049 234 1057 221 1063 214 b 1070 207 1081 201 1079 192 b 1079 186 1075 184 1070 184 b 1066 186 1063 194 1063 200 l 1054 196 b 1057 186 1061 177 1073 177 z m 952 276 b 969 276 982 285 983 302 b 987 312 985 322 985 333 b 985 351 990 374 982 389 b 978 403 965 408 949 408 b 935 408 923 402 918 386 b 914 369 915 349 915 330 b 915 320 915 312 918 303 b 919 285 934 276 952 276 z m 941 290 b 934 295 935 307 935 318 l 935 341 b 935 354 932 369 935 382 b 937 389 940 393 948 393 b 952 396 957 393 964 389 b 969 383 969 377 969 369 l 969 322 l 969 307 b 968 302 965 295 957 290 b 955 289 948 289 941 290 z m 1096 177 l 1107 177 l 1107 246 l 1096 246 z m 792 558 l 792 428 l 811 428 l 811 487 l 825 487 l 843 428 l 859 428 l 843 492 b 864 499 861 542 843 553 b 829 559 809 558 792 558 z m 1125 177 l 1133 177 l 1133 242 l 1144 242 l 1144 246 l 1112 246 l 1112 242 l 1125 242 z m 811 500 l 811 543 b 817 543 823 546 830 542 b 838 540 839 530 839 525 b 840 515 838 505 830 501 b 823 500 817 500 811 500 z m 1006 277 l 1020 277 l 1020 366 l 1058 277 l 1070 277 l 1070 408 l 1054 408 l 1054 320 l 1019 408 l 1006 408 z m 907 425 b 930 425 941 445 937 466 b 934 479 922 490 911 500 b 901 508 886 520 888 534 b 890 542 899 546 907 546 b 918 542 919 529 922 521 l 935 526 b 935 536 932 547 924 553 b 915 558 902 559 892 557 b 869 551 865 526 877 505 b 884 498 894 490 902 483 b 910 477 914 471 918 467 b 923 461 924 449 918 444 b 911 438 902 438 894 445 b 890 450 888 458 888 467 l 869 463 b 871 442 884 425 907 425 z m 1091 277 l 1140 277 l 1140 289 l 1109 289 l 1109 408 l 1091 408 z m 978 441 b 968 445 969 458 969 466 l 969 490 b 969 503 965 521 969 530 b 972 540 976 543 982 543 b 987 546 993 546 997 540 b 1003 534 1003 526 1003 519 l 1003 458 b 1003 452 1003 445 994 441 b 990 438 982 438 978 441 z m 1230 277 l 1249 277 l 1249 295 l 1230 295 z m 1174 303 l 1174 277 l 1192 277 l 1192 309 b 1192 314 1191 320 1193 327 l 1203 353 l 1220 408 l 1203 408 l 1182 345 l 1163 408 l 1147 408 l 1165 349 b 1170 341 1171 333 1174 323 z m 1040 428 l 1054 428 l 1054 515 l 1091 428 l 1104 428 l 1104 558 l 1088 558 l 1088 469 l 1050 558 l 1040 558 z m 1235 305 l 1241 305 l 1249 408 l 1230 408 z m 1117 428 l 1133 428 l 1140 458 l 1167 458 l 1174 428 l 1191 428 l 1163 558 l 1145 558 z m 1144 471 l 1154 530 l 1165 471 z m 1204 428 l 1255 428 l 1255 438 l 1224 438 l 1224 558 l 1204 558 z m 410 -11 l 434 -11 l 436 55 l 449 -11 l 468 -11 l 479 56 l 482 -11 l 505 -11 l 504 151 l 476 151 l 458 49 l 438 151 l 412 151 z m 526 -11 l 551 -11 l 551 68 l 580 -11 l 600 -11 l 600 151 l 574 151 l 574 73 l 546 151 l 526 151 z m 618 -11 l 646 -11 l 646 18 l 618 18 z m 701 -13 b 719 -9 729 6 730 20 b 732 41 725 58 710 73 l 698 88 b 692 94 685 98 682 107 b 680 113 681 129 694 128 b 704 126 702 107 704 96 l 729 98 b 729 117 727 141 708 150 b 685 161 658 145 658 121 b 655 108 658 94 664 84 b 666 78 673 73 679 67 b 688 56 704 43 704 26 b 704 20 702 14 697 13 b 692 11 689 14 687 18 b 681 28 681 38 681 47 l 655 46 b 655 32 658 18 663 6 b 669 -9 685 -15 701 -13 z m 800 -6 l 800 -11 l 822 -11 l 822 73 l 780 73 l 780 49 l 796 49 b 796 41 799 6 780 13 b 767 17 771 38 771 47 l 771 106 b 771 118 773 130 785 128 b 793 124 794 122 794 94 l 820 94 b 820 112 822 136 803 147 b 793 154 779 154 767 151 b 752 145 745 131 743 117 b 741 103 742 86 742 70 b 742 55 741 41 743 25 b 744 13 748 -2 759 -8 b 771 -15 789 -15 800 -6 z m 827 -31 l 850 -31 l 896 171 l 871 171 z m 935 -14 b 941 -15 948 -14 953 -11 b 972 -2 975 21 975 41 l 949 43 b 949 32 950 13 938 11 b 933 11 928 13 928 21 l 928 116 b 928 125 933 128 938 127 b 950 125 949 106 949 96 l 975 97 b 975 116 972 141 953 148 b 948 152 941 153 935 152 b 918 150 901 138 901 118 l 901 20 b 901 1 918 -12 935 -14 z m 978 -12 l 1005 -12 l 1011 26 l 1028 26 l 1034 -12 l 1061 -12 l 1033 150 l 1007 150 z m 1015 50 l 1019 83 l 1024 50 z m 1064 -12 l 1090 -12 l 1090 54 l 1102 -12 l 1121 -12 l 1134 55 l 1135 -12 l 1160 -12 l 1159 150 l 1130 150 l 1111 48 l 1093 150 l 1067 150 z m 1173 -12 l 1199 -12 l 1199 38 b 1210 38 1213 38 1219 41 b 1249 48 1249 83 1249 96 b 1249 131 1231 150 1213 150 l 1173 150 z m 1214 63 l 1199 63 l 1199 127 l 1210 127 b 1226 127 1224 67 1214 63 z m 1243 -12 l 1271 -12 l 1276 26 l 1294 26 l 1299 -12 l 1326 -12 l 1299 150 l 1273 150 z m 1281 50 l 1285 83 l 1289 50 z m 1329 -12 l 1355 -12 l 1355 67 l 1382 -12 l 1403 -12 l 1403 150 l 1377 150 l 1377 72 l 1349 150 l 1329 150 z m 1406 -12 l 1434 -12 l 1439 26 l 1457 26 l 1462 -12 l 1489 -12 l 1462 150 l 1436 150 z m 1443 50 l 1448 83 l 1452 50 z"},"S":{"x_min":0,"x_max":509,"ha":509,"o":"m 200 -52 b 308 -64 377 -9 426 56 b 472 118 467 192 439 246 b 417 289 379 328 368 360 b 574 402 601 568 433 555 b 318 546 270 457 277 371 b 143 362 214 477 263 479 b 141 564 34 315 281 346 b 292 305 316 275 352 224 b 386 175 403 112 378 60 b 351 6 298 -19 229 3 b 163 23 132 84 141 143 b 151 203 205 254 269 242 b 213 309 94 287 58 172 b 29 80 83 -38 200 -52 z m 360 385 b 335 456 360 523 431 529 b 504 535 523 417 360 385 z"},"}":{"x_min":0,"x_max":303,"ha":303,"o":"m 37 -24 b -30 -116 -147 -142 -220 -177 l -204 -205 b -107 -150 8 -115 85 -40 b 143 19 197 131 228 138 l 305 150 l 317 168 b 300 167 269 170 250 178 b 225 190 298 348 280 406 b 265 447 211 506 148 533 l 120 514 b 173 482 200 427 196 378 b 193 327 119 188 195 162 b 71 119 77 36 37 -24 z"},"Z":{"x_min":0,"x_max":461,"ha":461,"o":"m 567 -47 b 467 -106 306 -16 182 34 b 259 71 323 131 397 223 b 483 329 536 394 582 432 b 624 428 663 428 696 434 b 774 448 760 509 677 509 l 677 506 l 677 509 b 660 509 640 505 617 497 b 578 505 523 520 462 530 b 336 552 192 511 128 407 b 73 316 131 222 240 270 b 173 282 152 362 212 433 b 267 499 345 488 433 462 b 460 454 487 448 513 442 b 459 406 397 351 326 276 b 225 170 168 95 118 56 b 97 61 77 64 61 62 b -32 50 -39 -32 94 2 l 128 12 b 231 -59 431 -263 567 -47 z"},"x":{"x_min":0,"x_max":245,"ha":245,"o":"m 33 9 b 3 28 32 90 76 126 b 77 64 77 -6 121 -6 b 166 -6 228 85 292 216 b 293 222 286 224 282 221 b 236 126 181 52 163 52 b 136 52 132 89 131 134 b 195 174 252 227 246 265 b 240 302 171 291 157 271 b 185 246 175 198 131 155 b 132 214 134 277 100 283 b 67 289 42 246 34 209 b 71 235 75 196 76 145 b 6 114 -48 62 -44 22 b -40 -17 18 -9 33 9 z"},")":{"x_min":0,"x_max":205,"ha":205,"o":"m -191 -176 l -187 -194 b 103 -82 399 303 129 536 l 108 513 b 259 320 61 -96 -191 -176 z"},"&":{"x_min":0,"x_max":417,"ha":417,"o":"m 23 3 b 91 -35 160 -19 217 28 b 247 -5 287 -27 338 -27 b 309 -7 278 23 255 64 b 280 94 303 130 319 170 b 354 161 389 162 410 229 b 369 186 280 276 236 181 b 253 189 274 184 295 177 b 286 143 267 111 243 86 b 222 129 208 181 207 243 b 387 276 435 443 306 434 b 211 427 143 344 146 249 b -14 235 -82 62 23 3 z m 209 265 b 214 327 236 418 307 417 b 376 416 314 289 209 265 z m 94 34 b 36 69 57 195 146 228 b 146 171 163 101 200 50 b 163 26 123 18 94 34 z"},"_":{"x_min":0,"x_max":0,"ha":0,"o":"m -287 -64 b -86 -117 25 -173 162 -184 b 291 -194 430 -156 500 -116 b 515 -107 509 -91 488 -102 b 271 -213 -234 26 -571 -29 b -711 -52 -758 -135 -716 -172 b -678 -206 -622 -161 -660 -141 b -687 -126 -667 -73 -570 -49 b -498 -31 -397 -35 -287 -64 z"},"v":{"x_min":0,"x_max":235,"ha":235,"o":"m 10 -6 b 63 -6 140 68 191 161 l 201 180 b 229 176 257 190 282 216 b 283 222 277 224 272 221 b 253 204 232 197 209 203 b 229 263 205 296 159 291 b 142 264 133 228 149 204 b 130 121 89 46 62 46 b 40 46 39 73 54 106 b 76 152 104 217 124 271 l 55 271 b 34 210 9 155 -11 111 b -43 43 -28 -6 10 -6 z"},"O":{"x_min":0,"x_max":650,"ha":650,"o":"m 318 -19 b 541 -19 717 338 645 445 b 649 457 651 471 648 484 b 636 545 548 562 433 499 b 362 460 298 402 253 338 b 213 356 202 388 209 417 b 219 457 268 470 300 454 b 284 513 164 510 138 434 b 125 396 151 336 235 311 l 226 294 b 133 116 202 -18 318 -19 z m 319 276 l 330 299 b 354 299 381 301 410 306 b 472 316 534 339 579 370 b 573 245 447 8 334 15 b 266 19 258 142 319 276 z m 343 325 b 381 395 422 445 470 475 b 544 520 581 511 582 466 b 583 424 532 350 399 330 b 378 327 360 325 343 325 z"},"(":{"x_min":0,"x_max":242,"ha":242,"o":"m 426 518 l 422 536 b 132 424 -164 39 106 -194 l 127 -171 b -24 22 174 438 426 518 z"},"C":{"x_min":0,"x_max":480,"ha":480,"o":"m 262 -49 b 406 -30 491 144 528 216 b 528 222 522 224 518 221 b 457 94 374 22 292 22 b 198 25 181 141 248 260 l 261 281 b 302 275 354 278 417 294 b 625 348 668 480 618 523 b 562 570 355 510 206 340 b 189 359 183 380 188 396 b 198 427 228 435 251 426 b 232 468 145 468 127 406 b 118 376 135 335 179 308 l 171 297 b 32 108 106 -62 262 -49 z m 277 305 b 365 428 518 546 569 495 b 605 459 488 336 352 308 b 323 302 298 302 277 305 z"},"W":{"x_min":0,"x_max":673,"ha":673,"o":"m 275 -26 b 259 20 367 173 466 264 b 412 149 388 -12 478 -26 b 451 52 690 268 806 385 b 880 459 846 563 749 553 b 804 526 788 466 750 417 b 679 325 561 196 500 100 b 474 140 486 221 563 341 b 701 460 601 533 488 335 b 410 253 319 157 276 83 b 269 123 301 199 372 301 b 486 463 436 522 391 539 b 288 577 135 442 109 364 b 89 306 126 247 201 279 b 173 289 167 337 174 364 b 196 448 297 536 340 496 b 378 462 332 369 262 239 b 187 100 172 -10 275 -26 z"},"A":{"x_min":0,"x_max":658,"ha":658,"o":"m 84 -27 b 184 -27 271 44 381 212 l 383 215 b 425 223 465 227 491 217 b 441 94 437 -17 520 -17 b 597 -17 653 111 705 216 b 705 222 699 224 695 221 b 624 74 578 37 549 50 b 496 74 600 378 732 504 b 745 505 745 518 741 529 b 693 568 376 583 291 451 b 232 359 350 313 397 380 b 367 376 349 404 368 435 b 429 533 605 544 680 526 b 561 501 427 375 349 277 l 326 248 b 300 246 275 246 256 252 b 213 264 210 295 217 315 b 149 284 134 199 214 190 b 232 188 255 190 281 195 b 213 116 155 65 97 55 b 55 47 35 66 34 84 b 33 111 72 135 107 121 b 79 164 -13 144 -13 60 b -13 19 13 -27 84 -27 z m 412 258 b 516 409 611 500 703 505 b 626 452 554 353 508 255 b 486 265 451 263 412 258 z"},"f":{"x_min":0,"x_max":200,"ha":200,"o":"m 59 -109 b 132 -31 136 93 99 175 b 145 167 212 185 247 216 b 248 222 241 224 237 221 b 207 199 147 187 104 200 l 112 217 b 254 301 395 444 347 490 b 313 522 192 480 63 261 b 54 270 44 272 36 268 b 24 261 15 240 35 210 l 24 189 b -121 -101 -20 -194 59 -109 z m 58 95 l 85 158 b 115 98 108 -10 65 -58 b 39 -88 -4 -58 58 95 z m 125 245 b 191 378 257 472 293 468 b 339 463 224 311 125 245 z"},"Q":{"x_min":0,"x_max":543,"ha":543,"o":"m 390 -170 b 482 -213 538 -143 532 -85 b 460 -132 346 -51 239 -1 b 612 142 650 552 413 539 b 257 530 136 416 75 284 b 18 159 68 47 193 68 b 156 109 140 164 161 250 b 198 399 319 519 412 501 b 525 480 432 147 197 16 b 179 22 162 27 145 30 b 14 51 -1 -60 130 -33 l 180 -21 b 237 -57 312 -134 390 -170 z"},"w":{"x_min":0,"x_max":336,"ha":336,"o":"m 10 -6 b 38 -6 62 16 87 54 b 81 13 92 -6 121 -6 b 163 -6 241 68 292 161 l 301 180 b 329 176 358 190 383 216 b 384 222 377 224 373 221 b 354 204 333 197 310 203 b 329 263 306 296 260 291 b 242 263 239 230 251 209 b 233 124 193 46 173 46 b 139 46 163 106 235 271 l 161 271 b 129 197 107 138 95 95 b 78 68 63 52 52 52 b 35 52 41 75 52 102 l 129 271 l 61 271 l -19 108 b -49 50 -42 -6 10 -6 z"},"-":{"x_min":0,"x_max":264,"ha":264,"o":"m 218 160 l 234 210 l 71 210 l 53 160 z"},"E":{"x_min":0,"x_max":457,"ha":457,"o":"m 111 -25 b 262 -124 422 48 505 216 b 505 222 499 224 495 221 b 436 99 290 -32 204 17 b 129 61 162 226 277 268 b 307 224 418 237 419 274 b 419 291 390 302 347 304 b 344 311 342 319 340 327 b 369 331 402 338 438 348 b 661 412 646 558 518 540 b 398 523 267 433 255 344 b 204 351 184 382 187 401 b 192 435 218 453 251 455 b 224 482 137 472 131 410 b 126 369 164 327 255 322 b 255 314 257 306 260 298 b 237 294 214 288 190 280 b 51 234 1 55 111 -25 z m 338 349 b 340 429 426 508 520 515 b 585 520 582 443 413 373 b 385 362 360 354 338 349 z"},"s":{"x_min":0,"x_max":182,"ha":182,"o":"m 17 -6 l 22 -6 b 104 -6 164 85 229 216 b 229 222 223 224 219 221 b 181 142 147 84 103 51 b 107 61 110 73 111 87 b 118 154 76 227 143 271 l 80 271 b 59 265 41 246 37 221 b 31 187 47 118 46 88 b 46 69 38 47 10 48 b -18 49 -36 83 -7 117 b -24 119 -40 92 -42 67 b -44 28 -21 -6 17 -6 z"},">":{"x_min":0,"x_max":374,"ha":374,"o":"m 248 195 l 50 110 l 39 84 l 63 28 l 295 156 l 306 178 l 166 324 l 121 292 z"},"l":{"x_min":0,"x_max":135,"ha":135,"o":"m 3 -6 b 49 -6 118 85 182 216 b 183 222 177 224 172 221 b 127 126 66 52 42 52 b 25 52 41 75 52 102 l 228 480 l 160 480 l -19 108 b -49 50 -49 -6 3 -6 z"},"8":{"x_min":0,"x_max":1753,"ha":1753,"o":"m 983 425 b 1003 425 1016 433 1020 452 b 1021 461 1021 471 1021 482 b 1021 499 1025 524 1019 540 b 1014 554 997 558 982 558 b 969 558 956 551 952 536 b 948 520 949 496 949 477 b 949 469 949 462 951 453 b 955 436 965 425 983 425 z m 624 -186 b 638 -186 640 -173 640 -163 l 632 -163 b 632 -165 632 -171 630 -174 b 628 -180 620 -181 616 -176 b 612 -171 613 -157 613 -153 b 613 -147 612 -134 616 -129 b 620 -125 628 -125 630 -130 b 632 -134 632 -139 632 -142 l 640 -142 b 640 -131 640 -121 626 -121 b 611 -117 604 -127 604 -140 b 604 -157 599 -186 624 -186 z m 661 -178 b 653 -174 655 -153 655 -147 l 655 -138 b 655 -130 661 -123 670 -127 b 676 -130 675 -148 675 -155 b 675 -164 675 -186 661 -178 z m 666 -186 b 685 -186 684 -167 684 -153 b 684 -139 685 -121 666 -121 b 647 -117 647 -134 647 -152 b 647 -165 645 -186 666 -186 z m 693 -186 l 701 -186 l 701 -138 l 712 -186 l 720 -186 l 730 -138 l 730 -186 l 737 -186 l 735 -121 l 726 -121 l 717 -173 l 704 -121 l 693 -121 z m 672 -102 l 683 -102 l 683 -72 l 695 -72 l 695 -66 l 683 -66 l 683 -42 l 699 -42 l 699 -35 l 672 -35 z m 748 -186 l 755 -186 l 756 -138 l 766 -186 l 773 -186 l 784 -138 l 785 -186 l 792 -186 l 789 -121 l 780 -121 l 769 -173 l 758 -121 l 748 -121 z m 722 -102 b 741 -102 741 -84 741 -71 b 741 -58 742 -38 725 -34 b 704 -34 704 -51 704 -67 b 704 -83 701 -102 722 -102 z m 720 -96 b 709 -93 713 -72 713 -66 l 713 -55 b 713 -46 720 -39 726 -43 b 734 -46 731 -66 731 -72 b 731 -83 731 -100 720 -96 z m 802 -186 l 829 -186 l 829 -180 l 813 -180 l 813 -153 l 825 -153 l 825 -147 l 813 -147 l 813 -126 l 829 -126 l 829 -121 l 802 -121 z m 750 -35 l 750 -102 l 758 -102 l 758 -72 l 766 -72 l 775 -102 l 785 -102 l 775 -71 b 787 -66 785 -43 775 -38 b 768 -34 758 -35 750 -35 z m 835 -121 l 835 -186 l 846 -186 l 846 -153 l 853 -153 l 860 -186 l 869 -186 l 860 -153 b 871 -148 869 -127 860 -121 b 853 -117 844 -121 835 -121 z m 758 -66 l 758 -42 b 768 -42 775 -43 775 -54 b 775 -64 768 -66 758 -66 z m 846 -147 l 846 -126 b 853 -126 860 -127 860 -138 b 860 -147 853 -147 846 -147 z m 894 -186 b 911 -186 913 -173 913 -163 l 903 -163 b 903 -165 905 -171 902 -174 b 902 -180 892 -181 888 -176 b 884 -171 886 -157 886 -153 b 886 -147 884 -134 888 -129 b 892 -125 902 -125 902 -130 b 905 -134 903 -139 903 -142 l 913 -142 b 913 -131 911 -121 899 -121 b 884 -117 877 -127 877 -140 b 877 -157 871 -186 894 -186 z m 818 -102 l 829 -102 l 829 -42 l 840 -42 l 840 -35 l 808 -35 l 808 -42 l 818 -42 z m 923 -186 l 931 -186 l 931 -121 l 923 -121 z m 846 -102 l 853 -102 l 853 -72 l 872 -72 l 872 -102 l 881 -102 l 881 -35 l 872 -35 l 872 -66 l 853 -66 l 853 -35 l 846 -35 z m 939 -186 l 948 -186 l 951 -169 l 965 -169 l 968 -186 l 977 -186 l 961 -121 l 952 -121 z m 952 -164 l 957 -131 l 964 -164 z m 890 -102 l 918 -102 l 918 -97 l 902 -97 l 902 -72 l 914 -72 l 914 -66 l 902 -66 l 902 -42 l 918 -42 l 918 -35 l 890 -35 z m 982 -186 l 1010 -186 l 1010 -180 l 993 -180 l 993 -121 l 982 -121 z m 945 -102 l 952 -102 l 952 -72 l 965 -72 l 965 -66 l 952 -66 l 952 -42 l 970 -42 l 970 -35 l 945 -35 z m 1046 -186 l 1053 -186 l 1069 -121 l 1061 -121 l 1049 -169 l 1040 -121 l 1032 -121 z m 999 -102 b 1014 -97 1011 -79 1011 -67 l 1011 -35 l 1003 -35 l 1003 -66 b 1003 -73 1006 -97 993 -97 b 979 -97 983 -73 983 -66 l 983 -35 l 977 -35 l 977 -72 b 977 -76 976 -83 977 -87 b 978 -100 985 -105 999 -102 z m 1075 -186 l 1104 -186 l 1104 -180 l 1086 -180 l 1086 -153 l 1100 -153 l 1100 -147 l 1086 -147 l 1086 -126 l 1104 -126 l 1104 -121 l 1075 -121 z m 1021 -102 l 1046 -102 l 1046 -97 l 1032 -97 l 1032 -35 l 1021 -35 z m 1111 -121 l 1111 -186 l 1119 -186 l 1119 -153 l 1126 -153 l 1134 -186 l 1144 -186 l 1133 -153 b 1145 -150 1145 -127 1136 -121 b 1128 -117 1119 -121 1111 -121 z m 756 246 l 756 177 l 766 177 l 766 209 b 773 209 779 207 785 213 b 789 218 789 230 787 238 b 780 248 766 246 756 246 z m 1119 -147 l 1119 -126 b 1128 -126 1133 -127 1133 -138 b 1133 -147 1128 -147 1119 -147 z m 1053 -102 l 1079 -102 l 1079 -97 l 1062 -97 l 1062 -35 l 1053 -35 z m 766 214 l 766 242 b 775 242 780 242 780 228 b 780 223 780 219 775 215 b 773 214 768 214 766 214 z m 1170 -186 b 1182 -186 1187 -176 1182 -165 b 1182 -157 1174 -153 1170 -147 b 1165 -142 1157 -138 1161 -130 b 1163 -126 1166 -125 1170 -126 b 1174 -127 1174 -134 1176 -139 l 1182 -135 b 1182 -129 1182 -123 1174 -121 b 1170 -117 1163 -118 1157 -123 b 1147 -129 1150 -143 1159 -152 b 1165 -155 1176 -164 1176 -171 b 1176 -176 1171 -181 1165 -178 b 1161 -176 1159 -169 1159 -165 l 1150 -167 b 1150 -178 1157 -186 1170 -186 z m 798 177 l 823 177 l 823 184 l 805 184 l 805 246 l 798 246 z m 699 277 b 726 286 720 326 720 349 l 720 408 l 701 408 l 701 318 b 701 303 696 284 678 289 b 666 295 666 310 666 320 l 666 408 l 650 408 l 650 327 b 650 314 650 303 653 295 b 661 277 683 269 699 277 z m 1192 -186 l 1201 -186 l 1201 -121 l 1192 -121 z m 1104 -102 l 1111 -102 l 1116 -85 l 1128 -85 l 1130 -102 l 1140 -102 l 1126 -35 l 1116 -35 z m 830 177 l 855 177 l 855 184 l 838 184 l 838 209 l 852 209 l 852 215 l 838 215 l 838 242 l 855 242 l 855 246 l 830 246 z m 1116 -80 l 1121 -50 l 1126 -80 z m 1225 -178 b 1217 -174 1222 -153 1222 -147 l 1222 -138 b 1222 -130 1225 -123 1235 -127 b 1241 -130 1239 -148 1239 -155 b 1239 -164 1239 -186 1225 -178 z m 1230 -186 b 1249 -186 1249 -167 1249 -153 b 1249 -139 1250 -121 1231 -121 b 1210 -117 1210 -134 1210 -152 b 1210 -165 1209 -186 1230 -186 z m 859 177 l 867 177 l 869 196 l 884 196 l 886 177 l 897 177 l 884 246 l 872 246 z m 1147 -102 l 1155 -102 l 1155 -58 l 1174 -102 l 1180 -102 l 1180 -35 l 1171 -35 l 1171 -80 l 1153 -35 l 1147 -35 z m 869 201 l 877 234 l 884 201 z m 769 276 b 792 276 804 295 800 315 b 798 333 785 341 773 351 b 763 360 748 369 754 383 b 754 390 760 396 769 393 b 780 391 783 379 784 369 l 798 375 b 798 385 796 396 787 403 b 777 408 764 410 755 408 b 734 402 730 375 741 358 b 746 349 758 341 766 333 b 773 330 776 323 780 319 b 785 312 787 298 779 294 b 773 288 764 289 758 295 b 754 299 754 310 752 318 l 734 312 b 735 291 748 276 769 276 z m 1258 -186 l 1263 -186 l 1263 -140 l 1284 -186 l 1292 -186 l 1292 -121 l 1284 -121 l 1284 -164 l 1263 -121 l 1258 -121 z m 919 177 b 931 177 939 188 935 200 b 934 206 926 211 919 215 b 914 221 909 226 911 234 b 913 242 922 244 926 226 l 935 227 b 935 234 931 242 926 244 b 919 248 911 246 907 243 b 897 234 902 221 911 214 b 915 207 926 201 926 192 b 926 186 923 184 915 184 b 911 186 911 194 911 200 l 902 196 b 902 186 909 177 919 177 z m 1191 -35 l 1191 -102 b 1197 -102 1210 -104 1217 -98 b 1228 -93 1224 -80 1224 -71 b 1224 -62 1228 -46 1220 -41 b 1212 -34 1199 -35 1191 -35 z m 1200 -97 l 1200 -42 b 1209 -42 1214 -42 1216 -54 l 1216 -87 b 1213 -97 1208 -97 1200 -97 z m 941 177 l 969 177 l 969 184 l 952 184 l 952 209 l 965 209 l 965 215 l 952 215 l 952 242 l 969 242 l 969 246 l 941 246 z m 649 428 l 666 428 l 666 487 b 678 487 693 484 701 494 b 717 504 717 528 709 543 b 701 557 689 558 676 558 l 649 558 z m 817 277 l 865 277 l 865 289 l 834 289 l 834 337 l 860 337 l 860 351 l 834 351 l 834 393 l 865 393 l 865 408 l 817 408 z m 666 500 l 666 543 b 672 543 678 546 685 543 b 696 541 696 529 696 521 b 696 512 695 504 685 501 b 678 499 672 500 666 500 z m 1007 177 l 1016 177 l 1031 246 l 1021 246 l 1011 196 l 1003 246 l 993 246 z m 726 428 l 777 428 l 777 438 l 745 438 l 745 487 l 771 487 l 771 500 l 745 500 l 745 543 l 776 543 l 776 558 l 726 558 z m 1037 177 l 1046 177 l 1046 246 l 1037 246 z m 1073 177 b 1084 177 1091 188 1088 200 b 1087 206 1078 213 1074 215 b 1070 221 1062 226 1065 234 b 1069 242 1078 244 1079 226 l 1088 227 b 1087 234 1084 242 1078 244 b 1074 248 1066 246 1061 243 b 1049 234 1057 221 1063 214 b 1070 207 1081 201 1079 192 b 1079 186 1075 184 1070 184 b 1066 186 1063 194 1063 200 l 1054 196 b 1057 186 1061 177 1073 177 z m 952 276 b 969 276 982 285 983 302 b 987 312 985 322 985 333 b 985 351 990 374 982 389 b 978 403 965 408 949 408 b 935 408 923 402 918 386 b 914 369 915 349 915 330 b 915 320 915 312 918 303 b 919 285 934 276 952 276 z m 941 290 b 934 295 935 307 935 318 l 935 341 b 935 354 932 369 935 382 b 937 389 940 393 948 393 b 952 396 957 393 964 389 b 969 383 969 377 969 369 l 969 322 l 969 307 b 968 302 965 295 957 290 b 955 289 948 289 941 290 z m 1096 177 l 1107 177 l 1107 246 l 1096 246 z m 792 558 l 792 428 l 811 428 l 811 487 l 825 487 l 843 428 l 859 428 l 843 492 b 864 499 861 542 843 553 b 829 559 809 558 792 558 z m 1125 177 l 1133 177 l 1133 242 l 1144 242 l 1144 246 l 1112 246 l 1112 242 l 1125 242 z m 811 500 l 811 543 b 817 543 823 546 830 542 b 838 540 839 530 839 525 b 840 515 838 505 830 501 b 823 500 817 500 811 500 z m 1006 277 l 1020 277 l 1020 366 l 1058 277 l 1070 277 l 1070 408 l 1054 408 l 1054 320 l 1019 408 l 1006 408 z m 907 425 b 930 425 941 445 937 466 b 934 479 922 490 911 500 b 901 508 886 520 888 534 b 890 542 899 546 907 546 b 918 542 919 529 922 521 l 935 526 b 935 536 932 547 924 553 b 915 558 902 559 892 557 b 869 551 865 526 877 505 b 884 498 894 490 902 483 b 910 477 914 471 918 467 b 923 461 924 449 918 444 b 911 438 902 438 894 445 b 890 450 888 458 888 467 l 869 463 b 871 442 884 425 907 425 z m 1091 277 l 1140 277 l 1140 289 l 1109 289 l 1109 408 l 1091 408 z m 978 441 b 968 445 969 458 969 466 l 969 490 b 969 503 965 521 969 530 b 972 540 976 543 982 543 b 987 546 993 546 997 540 b 1003 534 1003 526 1003 519 l 1003 458 b 1003 452 1003 445 994 441 b 990 438 982 438 978 441 z m 1230 277 l 1249 277 l 1249 295 l 1230 295 z m 1174 303 l 1174 277 l 1192 277 l 1192 309 b 1192 314 1191 320 1193 327 l 1203 353 l 1220 408 l 1203 408 l 1182 345 l 1163 408 l 1147 408 l 1165 349 b 1170 341 1171 333 1174 323 z m 1040 428 l 1054 428 l 1054 515 l 1091 428 l 1104 428 l 1104 558 l 1088 558 l 1088 469 l 1050 558 l 1040 558 z m 1235 305 l 1241 305 l 1249 408 l 1230 408 z m 1117 428 l 1133 428 l 1140 458 l 1167 458 l 1174 428 l 1191 428 l 1163 558 l 1145 558 z m 1144 471 l 1154 530 l 1165 471 z m 1204 428 l 1255 428 l 1255 438 l 1224 438 l 1224 558 l 1204 558 z m 410 -11 l 434 -11 l 436 55 l 449 -11 l 468 -11 l 479 56 l 482 -11 l 505 -11 l 504 151 l 476 151 l 458 49 l 438 151 l 412 151 z m 526 -11 l 551 -11 l 551 68 l 580 -11 l 600 -11 l 600 151 l 574 151 l 574 73 l 546 151 l 526 151 z m 618 -11 l 646 -11 l 646 18 l 618 18 z m 701 -13 b 719 -9 729 6 730 20 b 732 41 725 58 710 73 l 698 88 b 692 94 685 98 682 107 b 680 113 681 129 694 128 b 704 126 702 107 704 96 l 729 98 b 729 117 727 141 708 150 b 685 161 658 145 658 121 b 655 108 658 94 664 84 b 666 78 673 73 679 67 b 688 56 704 43 704 26 b 704 20 702 14 697 13 b 692 11 689 14 687 18 b 681 28 681 38 681 47 l 655 46 b 655 32 658 18 663 6 b 669 -9 685 -15 701 -13 z m 800 -6 l 800 -11 l 822 -11 l 822 73 l 780 73 l 780 49 l 796 49 b 796 41 799 6 780 13 b 767 17 771 38 771 47 l 771 106 b 771 118 773 130 785 128 b 793 124 794 122 794 94 l 820 94 b 820 112 822 136 803 147 b 793 154 779 154 767 151 b 752 145 745 131 743 117 b 741 103 742 86 742 70 b 742 55 741 41 743 25 b 744 13 748 -2 759 -8 b 771 -15 789 -15 800 -6 z m 827 -31 l 850 -31 l 896 171 l 871 171 z m 935 -14 b 941 -15 948 -14 953 -11 b 972 -2 975 21 975 41 l 949 43 b 949 32 950 13 938 11 b 933 11 928 13 928 21 l 928 116 b 928 125 933 128 938 127 b 950 125 949 106 949 96 l 975 97 b 975 116 972 141 953 148 b 948 152 941 153 935 152 b 918 150 901 138 901 118 l 901 20 b 901 1 918 -12 935 -14 z m 978 -12 l 1005 -12 l 1011 26 l 1028 26 l 1034 -12 l 1061 -12 l 1033 150 l 1007 150 z m 1015 50 l 1019 83 l 1024 50 z m 1064 -12 l 1090 -12 l 1090 54 l 1102 -12 l 1121 -12 l 1134 55 l 1135 -12 l 1160 -12 l 1159 150 l 1130 150 l 1111 48 l 1093 150 l 1067 150 z m 1173 -12 l 1199 -12 l 1199 38 b 1210 38 1213 38 1219 41 b 1249 48 1249 83 1249 96 b 1249 131 1231 150 1213 150 l 1173 150 z m 1214 63 l 1199 63 l 1199 127 l 1210 127 b 1226 127 1224 67 1214 63 z m 1243 -12 l 1271 -12 l 1276 26 l 1294 26 l 1299 -12 l 1326 -12 l 1299 150 l 1273 150 z m 1281 50 l 1285 83 l 1289 50 z m 1329 -12 l 1355 -12 l 1355 67 l 1382 -12 l 1403 -12 l 1403 150 l 1377 150 l 1377 72 l 1349 150 l 1329 150 z m 1406 -12 l 1434 -12 l 1439 26 l 1457 26 l 1462 -12 l 1489 -12 l 1462 150 l 1436 150 z m 1443 50 l 1448 83 l 1452 50 z"},"\\":{"x_min":0,"x_max":309,"ha":309,"o":"m -60 581 l -124 541 l 327 -199 l 347 -172 z"},"e":{"x_min":0,"x_max":211,"ha":211,"o":"m 40 -6 b 109 -6 189 66 258 216 b 257 221 253 223 248 221 b 191 105 136 54 84 54 b 44 54 35 93 45 137 b 59 114 124 106 172 172 b 234 257 157 337 48 233 b -40 149 -66 -6 40 -6 z m 50 154 b 57 175 68 197 81 215 b 146 306 161 249 123 185 b 88 126 62 141 50 154 z"},"b":{"x_min":0,"x_max":252,"ha":252,"o":"m 67 45 b 42 45 50 93 69 149 b 93 222 129 254 146 253 b 173 251 166 215 142 148 b 119 82 87 45 67 45 z m 31 -6 b 77 -6 146 43 189 123 b 200 144 208 163 214 180 b 244 180 278 193 299 216 b 301 222 294 224 289 221 b 272 206 245 198 220 201 b 231 256 207 282 176 282 b 145 282 117 257 95 228 b 103 246 112 265 123 283 b 303 356 362 509 274 496 b 194 485 107 379 32 233 b -44 85 -21 -6 31 -6 z m 130 301 b 171 384 216 461 254 467 b 296 475 243 351 130 301 z"},"%":{"x_min":0,"x_max":338,"ha":338,"o":"m 211 315 b 190 346 152 347 104 316 b 55 286 51 234 72 201 b 94 169 131 169 178 200 b 228 231 233 282 211 315 z m 141 198 b 126 198 112 224 112 257 b 112 292 126 318 141 318 b 156 318 170 292 170 257 b 170 224 156 198 141 198 z m 294 125 b 272 157 234 158 185 127 b 138 96 132 46 154 13 b 174 -20 213 -22 261 9 b 308 40 313 94 294 125 z m 222 7 b 206 7 196 36 196 68 b 196 102 206 130 222 130 b 240 130 253 102 253 68 b 253 36 240 7 222 7 z m 402 286 l 376 312 l -22 36 l -8 18 z"},"m":{"x_min":0,"x_max":354,"ha":354,"o":"m -60 0 l 7 0 l 84 176 b 101 215 113 228 129 228 b 144 228 146 213 137 189 l 55 0 l 122 0 l 193 164 b 212 209 225 228 241 228 b 257 228 256 208 249 188 b 240 165 207 97 195 58 b 184 25 197 -6 229 -6 b 275 -6 337 85 401 216 b 402 222 396 224 391 221 b 346 126 289 52 271 52 b 261 52 262 69 269 86 l 317 196 b 339 248 340 283 299 283 b 267 283 243 266 218 238 b 222 266 213 283 187 283 b 157 283 134 264 109 235 l 125 271 l 58 271 z"},"#":{"x_min":0,"x_max":391,"ha":391,"o":"m 71 54 l 109 55 l 124 92 l 208 92 l 191 54 l 231 55 l 245 92 l 289 92 l 315 148 l 267 144 l 301 222 l 360 222 l 386 277 l 322 272 l 337 305 l 298 305 l 282 270 l 197 265 l 216 305 l 177 305 l 158 261 l 118 259 l 95 222 l 142 222 l 104 133 l 47 129 l 22 92 l 87 92 z m 142 134 l 180 222 l 263 222 l 227 141 z"},",":{"x_min":0,"x_max":168,"ha":168,"o":"m 102 92 b 102 130 61 149 26 123 b 1 102 -4 66 11 40 b 13 11 -1 -17 -47 -44 l -38 -54 b 24 -23 102 36 102 92 z"},"n":{"x_min":0,"x_max":251,"ha":251,"o":"m -60 0 l 7 0 l 74 155 b 93 192 117 228 134 228 b 148 228 155 212 139 175 b 130 152 103 97 91 58 b 81 25 94 -6 126 -6 b 171 -6 233 85 298 216 b 298 222 292 224 288 221 b 242 126 186 52 168 52 b 157 52 158 69 166 86 l 208 183 b 236 245 228 283 190 283 b 162 283 133 259 105 226 l 125 271 l 58 271 z"},"h":{"x_min":0,"x_max":252,"ha":252,"o":"m 127 -6 b 173 -6 235 85 299 216 b 300 222 293 224 289 221 b 243 126 187 52 170 52 b 159 52 160 69 167 86 l 210 183 b 238 245 230 283 192 283 b 163 283 133 258 105 223 l 219 480 l 149 480 l -60 0 l 6 0 l 65 132 l 65 131 b 84 175 114 228 136 228 b 150 228 157 212 141 175 b 132 152 105 97 93 58 b 83 25 95 -6 127 -6 z"},"z":{"x_min":0,"x_max":226,"ha":226,"o":"m -52 -6 b -41 12 -24 16 -8 17 b 24 19 51 -6 101 -6 b 146 -6 208 85 273 216 b 273 222 267 224 263 221 b 217 126 161 52 143 52 b 91 52 64 73 32 77 b 66 112 131 150 205 216 b 239 229 254 271 247 283 b 198 260 165 271 100 283 b 67 289 42 246 34 209 b 59 229 114 206 163 207 b 113 161 31 106 -22 66 b -44 50 -57 22 -52 -6 z"},"B":{"x_min":0,"x_max":626,"ha":626,"o":"m 44 -47 b 91 -47 132 -27 171 12 b 220 -18 272 -51 339 -49 b 553 -43 656 188 535 263 b 707 334 737 532 514 546 b 370 556 255 507 182 439 b 73 337 140 212 212 274 b 180 297 199 367 245 421 b 291 475 388 521 482 521 b 601 521 628 378 496 279 b 484 282 471 284 456 285 b 359 291 376 235 435 239 b 455 241 474 244 492 249 b 549 201 452 18 279 18 b 246 18 220 27 195 39 b 229 79 262 133 297 199 b 382 358 441 450 535 473 b 423 496 333 411 210 213 b 172 152 138 106 109 74 b 92 79 72 82 50 82 b -57 82 -68 -44 44 -47 z m 32 24 b -9 24 1 56 52 56 b 64 56 75 54 87 51 b 66 33 47 24 32 24 z"},"K":{"x_min":0,"x_max":616,"ha":616,"o":"m 88 -47 b 186 -47 276 61 347 244 l 352 257 b 429 267 451 211 424 135 b 392 46 393 -30 457 -30 b 533 -30 599 85 664 216 b 664 222 658 224 654 221 b 608 126 548 36 512 36 b 484 39 493 94 497 192 b 498 225 485 259 456 276 b 544 283 615 366 659 417 b 712 479 775 507 834 481 b 797 549 673 570 600 465 b 541 379 489 302 425 285 b 407 288 385 285 360 275 b 424 428 507 507 554 518 b 489 572 236 565 146 420 b 73 305 190 233 247 314 b 206 309 188 331 213 398 b 255 508 413 546 486 513 b 417 490 352 413 271 266 b 201 139 141 27 74 28 b 42 28 24 49 28 66 b 35 99 73 102 115 77 b 104 132 5 136 -17 68 b -33 23 -6 -47 88 -47 z"},"R":{"x_min":0,"x_max":607,"ha":607,"o":"m 89 -47 b 186 -47 276 61 347 244 l 351 254 b 363 245 388 238 417 240 b 433 210 431 165 417 125 b 383 26 406 -40 460 -40 b 535 -40 590 85 655 216 b 655 222 649 224 645 221 b 599 126 535 26 505 26 b 472 26 500 112 490 182 b 487 201 479 227 463 248 b 515 262 578 293 607 343 b 668 451 587 553 442 553 b 329 552 207 478 138 395 b 35 271 112 150 179 227 b 148 246 155 322 198 386 b 241 450 315 508 395 522 b 527 544 586 444 530 352 b 505 311 471 284 432 276 b 414 286 392 290 364 285 b 422 425 468 467 515 478 b 417 492 378 460 271 266 b 202 139 141 27 75 28 b 42 28 24 49 28 66 b 35 99 73 102 115 77 b 105 132 5 136 -17 68 b -32 23 -5 -47 89 -47 z"},"T":{"x_min":0,"x_max":397,"ha":397,"o":"m 107 -47 b 198 -47 274 41 339 200 b 399 346 470 435 536 461 b 593 441 642 427 687 445 b 753 471 741 552 697 559 b 702 521 591 509 469 530 b 343 552 200 531 137 427 b 82 337 145 260 217 279 b 186 304 169 381 218 443 b 284 527 391 511 450 492 l 501 474 b 414 456 325 362 253 213 b 179 62 138 22 81 22 b 47 22 37 45 45 65 b 55 88 86 95 109 81 b 99 117 37 119 10 72 b -16 26 16 -47 107 -47 z"},"P":{"x_min":0,"x_max":548,"ha":548,"o":"m 69 -47 b 170 -47 251 33 317 173 b 436 186 561 211 622 327 b 680 436 616 545 453 545 b 325 544 203 475 139 397 b 36 273 142 182 210 259 b 165 267 156 324 199 388 b 240 450 308 497 405 514 b 558 539 582 429 528 341 b 479 261 407 231 336 216 l 347 244 b 414 417 464 466 515 478 b 417 492 378 460 271 266 l 234 198 b 175 189 124 177 99 137 b 129 151 169 157 213 162 b 166 84 122 27 75 28 b 42 28 24 49 28 66 b 35 99 73 102 115 77 b 105 132 5 136 -17 68 b -33 23 -5 -47 69 -47 z"},"|":{"x_min":0,"x_max":212,"ha":212,"o":"m 272 547 l 216 550 l -80 -183 l -47 -178 z"},"t":{"x_min":0,"x_max":150,"ha":150,"o":"m 18 -6 b 63 -6 133 85 197 216 b 198 222 192 224 187 221 b 142 126 80 52 57 52 b 40 52 46 75 57 102 l 163 339 l 289 339 l 298 359 l 172 359 l 205 431 b 172 406 142 389 115 385 l 102 359 l 15 359 l 6 339 l 93 339 b 59 268 5 153 -19 108 b -49 50 -35 -6 18 -6 z"},"M":{"x_min":0,"x_max":723,"ha":723,"o":"m 71 -47 b 169 -47 262 105 350 288 b 360 309 372 330 385 352 b 359 249 337 81 345 -17 b 429 161 541 321 639 397 b 508 224 457 -17 574 -17 b 639 -17 706 85 771 216 b 771 222 765 224 761 221 b 715 126 650 41 622 41 b 522 41 742 538 875 558 b 738 570 550 380 443 226 b 454 358 462 438 508 548 b 368 550 238 509 174 420 b 90 305 200 233 265 314 b 223 309 208 331 239 398 b 276 475 366 517 440 523 b 394 440 348 345 303 255 b 221 90 148 31 71 32 b 39 32 19 53 26 76 b 37 109 80 122 117 87 b 113 142 18 150 -11 82 b -31 37 -18 -47 71 -47 z"},"g":{"x_min":0,"x_max":263,"ha":263,"o":"m 82 -146 b 107 -117 122 -77 136 -32 b 186 4 258 110 310 216 b 311 222 304 224 300 221 b 253 121 191 36 148 6 b 157 38 167 70 180 102 b 192 128 247 251 257 271 l 188 271 l 176 246 b 177 274 161 282 141 282 b 81 282 22 215 -20 140 b -62 64 -56 -4 -1 -4 b 37 -4 69 37 102 89 b 88 51 78 10 67 -23 b 12 -7 -86 -28 -90 -110 b -95 -206 35 -202 82 -146 z m 44 51 b 24 51 23 78 59 143 b 95 209 126 258 153 258 b 180 258 156 202 131 156 b 96 92 64 51 44 51 z m -40 -78 b -35 -47 21 -24 60 -43 b 53 -62 46 -78 37 -89 b 9 -125 -46 -117 -40 -78 z"},"j":{"x_min":0,"x_max":134,"ha":134,"o":"m -73 -152 b -47 -131 -26 -93 -3 -39 b 47 -11 125 102 181 216 b 182 222 176 224 171 221 b 122 118 58 31 15 3 b 42 71 76 160 128 271 l 60 271 b -15 118 -49 22 -77 -35 b -138 -8 -215 -44 -211 -110 b -207 -175 -126 -194 -73 -152 z m 119 305 b 144 305 164 325 164 350 b 164 375 144 395 119 395 b 94 395 74 375 74 350 b 74 325 94 305 119 305 z m -170 -88 b -173 -64 -130 -33 -87 -55 b -95 -69 -103 -80 -111 -89 b -140 -120 -166 -115 -170 -88 z"},"i":{"x_min":0,"x_max":135,"ha":135,"o":"m 3 -6 b 49 -6 118 85 182 216 b 183 222 177 224 172 221 b 127 126 66 52 42 52 b 25 52 41 75 52 102 l 129 271 l 61 271 l -19 108 b -49 50 -49 -6 3 -6 z m 120 305 b 145 305 165 325 165 350 b 165 375 145 395 120 395 b 95 395 75 375 75 350 b 75 325 95 305 120 305 z"},"y":{"x_min":0,"x_max":265,"ha":265,"o":"m 84 -146 b 109 -117 124 -77 138 -32 b 188 5 260 110 312 216 b 312 222 306 224 302 221 b 254 122 193 37 150 7 b 159 38 169 71 182 102 l 258 271 l 190 271 l 146 180 b 108 105 73 52 53 52 b 34 51 41 75 52 102 l 129 271 l 61 271 l -19 108 b -49 50 -46 -6 9 -6 b 37 -6 66 24 99 74 b 88 40 78 6 69 -24 b 14 -6 -84 -28 -88 -110 b -93 -206 37 -202 84 -146 z m -38 -78 b -33 -47 23 -24 62 -43 b 55 -62 48 -78 39 -89 b 11 -125 -44 -117 -38 -78 z"},"@":{"x_min":0,"x_max":567,"ha":567,"o":"m 381 214 b 387 241 376 265 359 277 b 291 333 175 234 123 152 b 82 88 76 21 104 -9 b 154 -62 222 23 264 99 b 237 18 283 -50 380 17 b 456 69 515 159 530 246 b 552 372 467 440 334 425 b 177 408 -72 193 -22 -39 b 9 -180 160 -201 273 -133 b 321 -104 295 -62 257 -83 b 238 -93 222 -119 202 -131 b 104 -186 30 -110 21 -28 b 2 158 190 372 324 399 b 412 416 481 369 471 251 b 464 159 402 45 357 34 b 325 26 312 52 323 89 b 341 152 370 175 381 214 z m 346 263 b 316 221 229 38 176 36 b 160 35 155 73 186 130 b 209 174 289 319 346 263 z"},".":{"x_min":0,"x_max":149,"ha":149,"o":"m 76 43 b 131 118 66 165 9 77 b -38 5 21 -32 76 43 z"},"p":{"x_min":0,"x_max":254,"ha":254,"o":"m -121 -140 l -55 -140 l 25 43 b 27 10 52 -6 76 -6 b 113 -5 160 37 200 129 b 208 148 215 165 219 180 b 248 182 278 195 301 216 b 303 222 296 224 291 221 b 272 207 248 200 225 201 b 238 258 223 283 193 283 b 161 283 131 258 103 224 l 124 271 l 58 271 z m 48 96 l 66 137 b 85 180 114 228 144 228 b 164 228 163 208 132 136 b 124 118 93 41 58 41 b 32 41 35 66 48 96 z"},"X":{"x_min":0,"x_max":613,"ha":613,"o":"m 88 -47 b 165 -47 262 52 360 177 b 359 85 383 -17 454 -17 b 519 -17 596 85 661 216 b 661 222 655 224 651 221 b 605 126 544 59 506 59 b 453 59 436 150 444 270 b 602 444 711 476 778 492 b 725 571 590 496 444 328 b 465 451 489 506 514 518 b 449 572 262 554 196 400 b 141 275 260 213 317 294 b 276 289 247 309 263 378 b 285 473 373 538 444 513 b 395 482 372 387 357 238 b 257 110 141 27 74 28 b 42 28 24 49 28 66 b 35 99 73 102 115 77 b 104 132 5 136 -17 68 b -33 23 -6 -47 88 -47 z"},"*":{"x_min":0,"x_max":333,"ha":333,"o":"m 87 276 l 145 244 l 215 333 l 229 238 l 301 267 l 250 348 l 352 337 l 371 394 l 254 375 l 341 455 l 280 483 l 229 390 l 198 485 l 134 458 l 197 375 l 96 394 l 77 337 l 185 348 z"},"Y":{"x_min":0,"x_max":620,"ha":620,"o":"m 271 -127 b 407 -127 515 -11 587 248 b 638 435 714 527 762 533 b 684 552 616 487 547 343 b 477 240 414 200 376 200 b 343 199 305 242 368 353 b 426 453 531 508 571 518 b 505 572 222 555 131 410 b 58 295 175 223 232 304 b 191 299 164 326 199 388 b 258 493 432 540 515 518 b 449 507 383 460 308 364 b 201 226 237 113 337 113 b 403 113 459 178 510 254 b 461 87 368 -22 267 -30 b 202 -36 163 2 172 39 b 181 74 222 74 249 46 b 252 113 144 119 118 32 b 97 -41 143 -127 271 -127 z"},"c":{"x_min":0,"x_max":211,"ha":211,"o":"m 41 -6 b 110 -6 189 66 258 216 b 257 221 253 223 248 221 b 190 105 141 59 89 59 b -4 59 70 254 159 267 b 203 274 192 213 130 224 b 102 191 143 149 193 202 b 222 233 223 289 165 287 b -1 282 -105 -6 41 -6 z"},"!":{"x_min":0,"x_max":160,"ha":160,"o":"m 45 -10 b 112 47 76 123 3 55 b -55 1 -14 -62 45 -10 z m 174 482 b 154 376 98 215 62 153 l 92 151 b 139 259 232 368 241 427 b 249 478 204 503 174 482 z"},"/":{"x_min":0,"x_max":288,"ha":288,"o":"m 552 524 l 511 570 l -238 -189 l -218 -217 z"},"[":{"x_min":0,"x_max":241,"ha":241,"o":"m 396 498 l 177 473 l -101 -181 l 104 -179 l 119 -152 l -12 -155 l 241 451 l 381 461 z"},"6":{"x_min":0,"x_max":1753,"ha":1753,"o":"m 983 425 b 1003 425 1016 433 1020 452 b 1021 461 1021 471 1021 482 b 1021 499 1025 524 1019 540 b 1014 554 997 558 982 558 b 969 558 956 551 952 536 b 948 520 949 496 949 477 b 949 469 949 462 951 453 b 955 436 965 425 983 425 z m 624 -186 b 638 -186 640 -173 640 -163 l 632 -163 b 632 -165 632 -171 630 -174 b 628 -180 620 -181 616 -176 b 612 -171 613 -157 613 -153 b 613 -147 612 -134 616 -129 b 620 -125 628 -125 630 -130 b 632 -134 632 -139 632 -142 l 640 -142 b 640 -131 640 -121 626 -121 b 611 -117 604 -127 604 -140 b 604 -157 599 -186 624 -186 z m 661 -178 b 653 -174 655 -153 655 -147 l 655 -138 b 655 -130 661 -123 670 -127 b 676 -130 675 -148 675 -155 b 675 -164 675 -186 661 -178 z m 666 -186 b 685 -186 684 -167 684 -153 b 684 -139 685 -121 666 -121 b 647 -117 647 -134 647 -152 b 647 -165 645 -186 666 -186 z m 693 -186 l 701 -186 l 701 -138 l 712 -186 l 720 -186 l 730 -138 l 730 -186 l 737 -186 l 735 -121 l 726 -121 l 717 -173 l 704 -121 l 693 -121 z m 672 -102 l 683 -102 l 683 -72 l 695 -72 l 695 -66 l 683 -66 l 683 -42 l 699 -42 l 699 -35 l 672 -35 z m 748 -186 l 755 -186 l 756 -138 l 766 -186 l 773 -186 l 784 -138 l 785 -186 l 792 -186 l 789 -121 l 780 -121 l 769 -173 l 758 -121 l 748 -121 z m 722 -102 b 741 -102 741 -84 741 -71 b 741 -58 742 -38 725 -34 b 704 -34 704 -51 704 -67 b 704 -83 701 -102 722 -102 z m 720 -96 b 709 -93 713 -72 713 -66 l 713 -55 b 713 -46 720 -39 726 -43 b 734 -46 731 -66 731 -72 b 731 -83 731 -100 720 -96 z m 802 -186 l 829 -186 l 829 -180 l 813 -180 l 813 -153 l 825 -153 l 825 -147 l 813 -147 l 813 -126 l 829 -126 l 829 -121 l 802 -121 z m 750 -35 l 750 -102 l 758 -102 l 758 -72 l 766 -72 l 775 -102 l 785 -102 l 775 -71 b 787 -66 785 -43 775 -38 b 768 -34 758 -35 750 -35 z m 835 -121 l 835 -186 l 846 -186 l 846 -153 l 853 -153 l 860 -186 l 869 -186 l 860 -153 b 871 -148 869 -127 860 -121 b 853 -117 844 -121 835 -121 z m 758 -66 l 758 -42 b 768 -42 775 -43 775 -54 b 775 -64 768 -66 758 -66 z m 846 -147 l 846 -126 b 853 -126 860 -127 860 -138 b 860 -147 853 -147 846 -147 z m 894 -186 b 911 -186 913 -173 913 -163 l 903 -163 b 903 -165 905 -171 902 -174 b 902 -180 892 -181 888 -176 b 884 -171 886 -157 886 -153 b 886 -147 884 -134 888 -129 b 892 -125 902 -125 902 -130 b 905 -134 903 -139 903 -142 l 913 -142 b 913 -131 911 -121 899 -121 b 884 -117 877 -127 877 -140 b 877 -157 871 -186 894 -186 z m 818 -102 l 829 -102 l 829 -42 l 840 -42 l 840 -35 l 808 -35 l 808 -42 l 818 -42 z m 923 -186 l 931 -186 l 931 -121 l 923 -121 z m 846 -102 l 853 -102 l 853 -72 l 872 -72 l 872 -102 l 881 -102 l 881 -35 l 872 -35 l 872 -66 l 853 -66 l 853 -35 l 846 -35 z m 939 -186 l 948 -186 l 951 -169 l 965 -169 l 968 -186 l 977 -186 l 961 -121 l 952 -121 z m 952 -164 l 957 -131 l 964 -164 z m 890 -102 l 918 -102 l 918 -97 l 902 -97 l 902 -72 l 914 -72 l 914 -66 l 902 -66 l 902 -42 l 918 -42 l 918 -35 l 890 -35 z m 982 -186 l 1010 -186 l 1010 -180 l 993 -180 l 993 -121 l 982 -121 z m 945 -102 l 952 -102 l 952 -72 l 965 -72 l 965 -66 l 952 -66 l 952 -42 l 970 -42 l 970 -35 l 945 -35 z m 1046 -186 l 1053 -186 l 1069 -121 l 1061 -121 l 1049 -169 l 1040 -121 l 1032 -121 z m 999 -102 b 1014 -97 1011 -79 1011 -67 l 1011 -35 l 1003 -35 l 1003 -66 b 1003 -73 1006 -97 993 -97 b 979 -97 983 -73 983 -66 l 983 -35 l 977 -35 l 977 -72 b 977 -76 976 -83 977 -87 b 978 -100 985 -105 999 -102 z m 1075 -186 l 1104 -186 l 1104 -180 l 1086 -180 l 1086 -153 l 1100 -153 l 1100 -147 l 1086 -147 l 1086 -126 l 1104 -126 l 1104 -121 l 1075 -121 z m 1021 -102 l 1046 -102 l 1046 -97 l 1032 -97 l 1032 -35 l 1021 -35 z m 1111 -121 l 1111 -186 l 1119 -186 l 1119 -153 l 1126 -153 l 1134 -186 l 1144 -186 l 1133 -153 b 1145 -150 1145 -127 1136 -121 b 1128 -117 1119 -121 1111 -121 z m 756 246 l 756 177 l 766 177 l 766 209 b 773 209 779 207 785 213 b 789 218 789 230 787 238 b 780 248 766 246 756 246 z m 1119 -147 l 1119 -126 b 1128 -126 1133 -127 1133 -138 b 1133 -147 1128 -147 1119 -147 z m 1053 -102 l 1079 -102 l 1079 -97 l 1062 -97 l 1062 -35 l 1053 -35 z m 766 214 l 766 242 b 775 242 780 242 780 228 b 780 223 780 219 775 215 b 773 214 768 214 766 214 z m 1170 -186 b 1182 -186 1187 -176 1182 -165 b 1182 -157 1174 -153 1170 -147 b 1165 -142 1157 -138 1161 -130 b 1163 -126 1166 -125 1170 -126 b 1174 -127 1174 -134 1176 -139 l 1182 -135 b 1182 -129 1182 -123 1174 -121 b 1170 -117 1163 -118 1157 -123 b 1147 -129 1150 -143 1159 -152 b 1165 -155 1176 -164 1176 -171 b 1176 -176 1171 -181 1165 -178 b 1161 -176 1159 -169 1159 -165 l 1150 -167 b 1150 -178 1157 -186 1170 -186 z m 798 177 l 823 177 l 823 184 l 805 184 l 805 246 l 798 246 z m 699 277 b 726 286 720 326 720 349 l 720 408 l 701 408 l 701 318 b 701 303 696 284 678 289 b 666 295 666 310 666 320 l 666 408 l 650 408 l 650 327 b 650 314 650 303 653 295 b 661 277 683 269 699 277 z m 1192 -186 l 1201 -186 l 1201 -121 l 1192 -121 z m 1104 -102 l 1111 -102 l 1116 -85 l 1128 -85 l 1130 -102 l 1140 -102 l 1126 -35 l 1116 -35 z m 830 177 l 855 177 l 855 184 l 838 184 l 838 209 l 852 209 l 852 215 l 838 215 l 838 242 l 855 242 l 855 246 l 830 246 z m 1116 -80 l 1121 -50 l 1126 -80 z m 1225 -178 b 1217 -174 1222 -153 1222 -147 l 1222 -138 b 1222 -130 1225 -123 1235 -127 b 1241 -130 1239 -148 1239 -155 b 1239 -164 1239 -186 1225 -178 z m 1230 -186 b 1249 -186 1249 -167 1249 -153 b 1249 -139 1250 -121 1231 -121 b 1210 -117 1210 -134 1210 -152 b 1210 -165 1209 -186 1230 -186 z m 859 177 l 867 177 l 869 196 l 884 196 l 886 177 l 897 177 l 884 246 l 872 246 z m 1147 -102 l 1155 -102 l 1155 -58 l 1174 -102 l 1180 -102 l 1180 -35 l 1171 -35 l 1171 -80 l 1153 -35 l 1147 -35 z m 869 201 l 877 234 l 884 201 z m 769 276 b 792 276 804 295 800 315 b 798 333 785 341 773 351 b 763 360 748 369 754 383 b 754 390 760 396 769 393 b 780 391 783 379 784 369 l 798 375 b 798 385 796 396 787 403 b 777 408 764 410 755 408 b 734 402 730 375 741 358 b 746 349 758 341 766 333 b 773 330 776 323 780 319 b 785 312 787 298 779 294 b 773 288 764 289 758 295 b 754 299 754 310 752 318 l 734 312 b 735 291 748 276 769 276 z m 1258 -186 l 1263 -186 l 1263 -140 l 1284 -186 l 1292 -186 l 1292 -121 l 1284 -121 l 1284 -164 l 1263 -121 l 1258 -121 z m 919 177 b 931 177 939 188 935 200 b 934 206 926 211 919 215 b 914 221 909 226 911 234 b 913 242 922 244 926 226 l 935 227 b 935 234 931 242 926 244 b 919 248 911 246 907 243 b 897 234 902 221 911 214 b 915 207 926 201 926 192 b 926 186 923 184 915 184 b 911 186 911 194 911 200 l 902 196 b 902 186 909 177 919 177 z m 1191 -35 l 1191 -102 b 1197 -102 1210 -104 1217 -98 b 1228 -93 1224 -80 1224 -71 b 1224 -62 1228 -46 1220 -41 b 1212 -34 1199 -35 1191 -35 z m 1200 -97 l 1200 -42 b 1209 -42 1214 -42 1216 -54 l 1216 -87 b 1213 -97 1208 -97 1200 -97 z m 941 177 l 969 177 l 969 184 l 952 184 l 952 209 l 965 209 l 965 215 l 952 215 l 952 242 l 969 242 l 969 246 l 941 246 z m 649 428 l 666 428 l 666 487 b 678 487 693 484 701 494 b 717 504 717 528 709 543 b 701 557 689 558 676 558 l 649 558 z m 817 277 l 865 277 l 865 289 l 834 289 l 834 337 l 860 337 l 860 351 l 834 351 l 834 393 l 865 393 l 865 408 l 817 408 z m 666 500 l 666 543 b 672 543 678 546 685 543 b 696 541 696 529 696 521 b 696 512 695 504 685 501 b 678 499 672 500 666 500 z m 1007 177 l 1016 177 l 1031 246 l 1021 246 l 1011 196 l 1003 246 l 993 246 z m 726 428 l 777 428 l 777 438 l 745 438 l 745 487 l 771 487 l 771 500 l 745 500 l 745 543 l 776 543 l 776 558 l 726 558 z m 1037 177 l 1046 177 l 1046 246 l 1037 246 z m 1073 177 b 1084 177 1091 188 1088 200 b 1087 206 1078 213 1074 215 b 1070 221 1062 226 1065 234 b 1069 242 1078 244 1079 226 l 1088 227 b 1087 234 1084 242 1078 244 b 1074 248 1066 246 1061 243 b 1049 234 1057 221 1063 214 b 1070 207 1081 201 1079 192 b 1079 186 1075 184 1070 184 b 1066 186 1063 194 1063 200 l 1054 196 b 1057 186 1061 177 1073 177 z m 952 276 b 969 276 982 285 983 302 b 987 312 985 322 985 333 b 985 351 990 374 982 389 b 978 403 965 408 949 408 b 935 408 923 402 918 386 b 914 369 915 349 915 330 b 915 320 915 312 918 303 b 919 285 934 276 952 276 z m 941 290 b 934 295 935 307 935 318 l 935 341 b 935 354 932 369 935 382 b 937 389 940 393 948 393 b 952 396 957 393 964 389 b 969 383 969 377 969 369 l 969 322 l 969 307 b 968 302 965 295 957 290 b 955 289 948 289 941 290 z m 1096 177 l 1107 177 l 1107 246 l 1096 246 z m 792 558 l 792 428 l 811 428 l 811 487 l 825 487 l 843 428 l 859 428 l 843 492 b 864 499 861 542 843 553 b 829 559 809 558 792 558 z m 1125 177 l 1133 177 l 1133 242 l 1144 242 l 1144 246 l 1112 246 l 1112 242 l 1125 242 z m 811 500 l 811 543 b 817 543 823 546 830 542 b 838 540 839 530 839 525 b 840 515 838 505 830 501 b 823 500 817 500 811 500 z m 1006 277 l 1020 277 l 1020 366 l 1058 277 l 1070 277 l 1070 408 l 1054 408 l 1054 320 l 1019 408 l 1006 408 z m 907 425 b 930 425 941 445 937 466 b 934 479 922 490 911 500 b 901 508 886 520 888 534 b 890 542 899 546 907 546 b 918 542 919 529 922 521 l 935 526 b 935 536 932 547 924 553 b 915 558 902 559 892 557 b 869 551 865 526 877 505 b 884 498 894 490 902 483 b 910 477 914 471 918 467 b 923 461 924 449 918 444 b 911 438 902 438 894 445 b 890 450 888 458 888 467 l 869 463 b 871 442 884 425 907 425 z m 1091 277 l 1140 277 l 1140 289 l 1109 289 l 1109 408 l 1091 408 z m 978 441 b 968 445 969 458 969 466 l 969 490 b 969 503 965 521 969 530 b 972 540 976 543 982 543 b 987 546 993 546 997 540 b 1003 534 1003 526 1003 519 l 1003 458 b 1003 452 1003 445 994 441 b 990 438 982 438 978 441 z m 1230 277 l 1249 277 l 1249 295 l 1230 295 z m 1174 303 l 1174 277 l 1192 277 l 1192 309 b 1192 314 1191 320 1193 327 l 1203 353 l 1220 408 l 1203 408 l 1182 345 l 1163 408 l 1147 408 l 1165 349 b 1170 341 1171 333 1174 323 z m 1040 428 l 1054 428 l 1054 515 l 1091 428 l 1104 428 l 1104 558 l 1088 558 l 1088 469 l 1050 558 l 1040 558 z m 1235 305 l 1241 305 l 1249 408 l 1230 408 z m 1117 428 l 1133 428 l 1140 458 l 1167 458 l 1174 428 l 1191 428 l 1163 558 l 1145 558 z m 1144 471 l 1154 530 l 1165 471 z m 1204 428 l 1255 428 l 1255 438 l 1224 438 l 1224 558 l 1204 558 z m 410 -11 l 434 -11 l 436 55 l 449 -11 l 468 -11 l 479 56 l 482 -11 l 505 -11 l 504 151 l 476 151 l 458 49 l 438 151 l 412 151 z m 526 -11 l 551 -11 l 551 68 l 580 -11 l 600 -11 l 600 151 l 574 151 l 574 73 l 546 151 l 526 151 z m 618 -11 l 646 -11 l 646 18 l 618 18 z m 701 -13 b 719 -9 729 6 730 20 b 732 41 725 58 710 73 l 698 88 b 692 94 685 98 682 107 b 680 113 681 129 694 128 b 704 126 702 107 704 96 l 729 98 b 729 117 727 141 708 150 b 685 161 658 145 658 121 b 655 108 658 94 664 84 b 666 78 673 73 679 67 b 688 56 704 43 704 26 b 704 20 702 14 697 13 b 692 11 689 14 687 18 b 681 28 681 38 681 47 l 655 46 b 655 32 658 18 663 6 b 669 -9 685 -15 701 -13 z m 800 -6 l 800 -11 l 822 -11 l 822 73 l 780 73 l 780 49 l 796 49 b 796 41 799 6 780 13 b 767 17 771 38 771 47 l 771 106 b 771 118 773 130 785 128 b 793 124 794 122 794 94 l 820 94 b 820 112 822 136 803 147 b 793 154 779 154 767 151 b 752 145 745 131 743 117 b 741 103 742 86 742 70 b 742 55 741 41 743 25 b 744 13 748 -2 759 -8 b 771 -15 789 -15 800 -6 z m 827 -31 l 850 -31 l 896 171 l 871 171 z m 935 -14 b 941 -15 948 -14 953 -11 b 972 -2 975 21 975 41 l 949 43 b 949 32 950 13 938 11 b 933 11 928 13 928 21 l 928 116 b 928 125 933 128 938 127 b 950 125 949 106 949 96 l 975 97 b 975 116 972 141 953 148 b 948 152 941 153 935 152 b 918 150 901 138 901 118 l 901 20 b 901 1 918 -12 935 -14 z m 978 -12 l 1005 -12 l 1011 26 l 1028 26 l 1034 -12 l 1061 -12 l 1033 150 l 1007 150 z m 1015 50 l 1019 83 l 1024 50 z m 1064 -12 l 1090 -12 l 1090 54 l 1102 -12 l 1121 -12 l 1134 55 l 1135 -12 l 1160 -12 l 1159 150 l 1130 150 l 1111 48 l 1093 150 l 1067 150 z m 1173 -12 l 1199 -12 l 1199 38 b 1210 38 1213 38 1219 41 b 1249 48 1249 83 1249 96 b 1249 131 1231 150 1213 150 l 1173 150 z m 1214 63 l 1199 63 l 1199 127 l 1210 127 b 1226 127 1224 67 1214 63 z m 1243 -12 l 1271 -12 l 1276 26 l 1294 26 l 1299 -12 l 1326 -12 l 1299 150 l 1273 150 z m 1281 50 l 1285 83 l 1289 50 z m 1329 -12 l 1355 -12 l 1355 67 l 1382 -12 l 1403 -12 l 1403 150 l 1377 150 l 1377 72 l 1349 150 l 1329 150 z m 1406 -12 l 1434 -12 l 1439 26 l 1457 26 l 1462 -12 l 1489 -12 l 1462 150 l 1436 150 z m 1443 50 l 1448 83 l 1452 50 z"},"r":{"x_min":0,"x_max":185,"ha":185,"o":"m 46 -6 b 107 -6 168 85 232 216 b 233 222 227 224 222 221 b 177 126 120 52 92 52 b 81 52 83 68 88 86 b 95 112 119 159 148 201 b 179 247 182 265 171 271 b 152 281 84 246 58 236 b 95 299 101 328 74 327 b 54 326 28 291 22 255 b 16 214 38 211 48 216 b 83 231 102 230 74 188 b 61 167 22 108 8 58 b 0 24 13 -6 46 -6 z"},"2":{"x_min":0,"x_max":1753,"ha":1753,"o":"m 983 425 b 1003 425 1016 433 1020 452 b 1021 461 1021 471 1021 482 b 1021 499 1025 524 1019 540 b 1014 554 997 558 982 558 b 969 558 956 551 952 536 b 948 520 949 496 949 477 b 949 469 949 462 951 453 b 955 436 965 425 983 425 z m 624 -186 b 638 -186 640 -173 640 -163 l 632 -163 b 632 -165 632 -171 630 -174 b 628 -180 620 -181 616 -176 b 612 -171 613 -157 613 -153 b 613 -147 612 -134 616 -129 b 620 -125 628 -125 630 -130 b 632 -134 632 -139 632 -142 l 640 -142 b 640 -131 640 -121 626 -121 b 611 -117 604 -127 604 -140 b 604 -157 599 -186 624 -186 z m 661 -178 b 653 -174 655 -153 655 -147 l 655 -138 b 655 -130 661 -123 670 -127 b 676 -130 675 -148 675 -155 b 675 -164 675 -186 661 -178 z m 666 -186 b 685 -186 684 -167 684 -153 b 684 -139 685 -121 666 -121 b 647 -117 647 -134 647 -152 b 647 -165 645 -186 666 -186 z m 693 -186 l 701 -186 l 701 -138 l 712 -186 l 720 -186 l 730 -138 l 730 -186 l 737 -186 l 735 -121 l 726 -121 l 717 -173 l 704 -121 l 693 -121 z m 672 -102 l 683 -102 l 683 -72 l 695 -72 l 695 -66 l 683 -66 l 683 -42 l 699 -42 l 699 -35 l 672 -35 z m 748 -186 l 755 -186 l 756 -138 l 766 -186 l 773 -186 l 784 -138 l 785 -186 l 792 -186 l 789 -121 l 780 -121 l 769 -173 l 758 -121 l 748 -121 z m 722 -102 b 741 -102 741 -84 741 -71 b 741 -58 742 -38 725 -34 b 704 -34 704 -51 704 -67 b 704 -83 701 -102 722 -102 z m 720 -96 b 709 -93 713 -72 713 -66 l 713 -55 b 713 -46 720 -39 726 -43 b 734 -46 731 -66 731 -72 b 731 -83 731 -100 720 -96 z m 802 -186 l 829 -186 l 829 -180 l 813 -180 l 813 -153 l 825 -153 l 825 -147 l 813 -147 l 813 -126 l 829 -126 l 829 -121 l 802 -121 z m 750 -35 l 750 -102 l 758 -102 l 758 -72 l 766 -72 l 775 -102 l 785 -102 l 775 -71 b 787 -66 785 -43 775 -38 b 768 -34 758 -35 750 -35 z m 835 -121 l 835 -186 l 846 -186 l 846 -153 l 853 -153 l 860 -186 l 869 -186 l 860 -153 b 871 -148 869 -127 860 -121 b 853 -117 844 -121 835 -121 z m 758 -66 l 758 -42 b 768 -42 775 -43 775 -54 b 775 -64 768 -66 758 -66 z m 846 -147 l 846 -126 b 853 -126 860 -127 860 -138 b 860 -147 853 -147 846 -147 z m 894 -186 b 911 -186 913 -173 913 -163 l 903 -163 b 903 -165 905 -171 902 -174 b 902 -180 892 -181 888 -176 b 884 -171 886 -157 886 -153 b 886 -147 884 -134 888 -129 b 892 -125 902 -125 902 -130 b 905 -134 903 -139 903 -142 l 913 -142 b 913 -131 911 -121 899 -121 b 884 -117 877 -127 877 -140 b 877 -157 871 -186 894 -186 z m 818 -102 l 829 -102 l 829 -42 l 840 -42 l 840 -35 l 808 -35 l 808 -42 l 818 -42 z m 923 -186 l 931 -186 l 931 -121 l 923 -121 z m 846 -102 l 853 -102 l 853 -72 l 872 -72 l 872 -102 l 881 -102 l 881 -35 l 872 -35 l 872 -66 l 853 -66 l 853 -35 l 846 -35 z m 939 -186 l 948 -186 l 951 -169 l 965 -169 l 968 -186 l 977 -186 l 961 -121 l 952 -121 z m 952 -164 l 957 -131 l 964 -164 z m 890 -102 l 918 -102 l 918 -97 l 902 -97 l 902 -72 l 914 -72 l 914 -66 l 902 -66 l 902 -42 l 918 -42 l 918 -35 l 890 -35 z m 982 -186 l 1010 -186 l 1010 -180 l 993 -180 l 993 -121 l 982 -121 z m 945 -102 l 952 -102 l 952 -72 l 965 -72 l 965 -66 l 952 -66 l 952 -42 l 970 -42 l 970 -35 l 945 -35 z m 1046 -186 l 1053 -186 l 1069 -121 l 1061 -121 l 1049 -169 l 1040 -121 l 1032 -121 z m 999 -102 b 1014 -97 1011 -79 1011 -67 l 1011 -35 l 1003 -35 l 1003 -66 b 1003 -73 1006 -97 993 -97 b 979 -97 983 -73 983 -66 l 983 -35 l 977 -35 l 977 -72 b 977 -76 976 -83 977 -87 b 978 -100 985 -105 999 -102 z m 1075 -186 l 1104 -186 l 1104 -180 l 1086 -180 l 1086 -153 l 1100 -153 l 1100 -147 l 1086 -147 l 1086 -126 l 1104 -126 l 1104 -121 l 1075 -121 z m 1021 -102 l 1046 -102 l 1046 -97 l 1032 -97 l 1032 -35 l 1021 -35 z m 1111 -121 l 1111 -186 l 1119 -186 l 1119 -153 l 1126 -153 l 1134 -186 l 1144 -186 l 1133 -153 b 1145 -150 1145 -127 1136 -121 b 1128 -117 1119 -121 1111 -121 z m 756 246 l 756 177 l 766 177 l 766 209 b 773 209 779 207 785 213 b 789 218 789 230 787 238 b 780 248 766 246 756 246 z m 1119 -147 l 1119 -126 b 1128 -126 1133 -127 1133 -138 b 1133 -147 1128 -147 1119 -147 z m 1053 -102 l 1079 -102 l 1079 -97 l 1062 -97 l 1062 -35 l 1053 -35 z m 766 214 l 766 242 b 775 242 780 242 780 228 b 780 223 780 219 775 215 b 773 214 768 214 766 214 z m 1170 -186 b 1182 -186 1187 -176 1182 -165 b 1182 -157 1174 -153 1170 -147 b 1165 -142 1157 -138 1161 -130 b 1163 -126 1166 -125 1170 -126 b 1174 -127 1174 -134 1176 -139 l 1182 -135 b 1182 -129 1182 -123 1174 -121 b 1170 -117 1163 -118 1157 -123 b 1147 -129 1150 -143 1159 -152 b 1165 -155 1176 -164 1176 -171 b 1176 -176 1171 -181 1165 -178 b 1161 -176 1159 -169 1159 -165 l 1150 -167 b 1150 -178 1157 -186 1170 -186 z m 798 177 l 823 177 l 823 184 l 805 184 l 805 246 l 798 246 z m 699 277 b 726 286 720 326 720 349 l 720 408 l 701 408 l 701 318 b 701 303 696 284 678 289 b 666 295 666 310 666 320 l 666 408 l 650 408 l 650 327 b 650 314 650 303 653 295 b 661 277 683 269 699 277 z m 1192 -186 l 1201 -186 l 1201 -121 l 1192 -121 z m 1104 -102 l 1111 -102 l 1116 -85 l 1128 -85 l 1130 -102 l 1140 -102 l 1126 -35 l 1116 -35 z m 830 177 l 855 177 l 855 184 l 838 184 l 838 209 l 852 209 l 852 215 l 838 215 l 838 242 l 855 242 l 855 246 l 830 246 z m 1116 -80 l 1121 -50 l 1126 -80 z m 1225 -178 b 1217 -174 1222 -153 1222 -147 l 1222 -138 b 1222 -130 1225 -123 1235 -127 b 1241 -130 1239 -148 1239 -155 b 1239 -164 1239 -186 1225 -178 z m 1230 -186 b 1249 -186 1249 -167 1249 -153 b 1249 -139 1250 -121 1231 -121 b 1210 -117 1210 -134 1210 -152 b 1210 -165 1209 -186 1230 -186 z m 859 177 l 867 177 l 869 196 l 884 196 l 886 177 l 897 177 l 884 246 l 872 246 z m 1147 -102 l 1155 -102 l 1155 -58 l 1174 -102 l 1180 -102 l 1180 -35 l 1171 -35 l 1171 -80 l 1153 -35 l 1147 -35 z m 869 201 l 877 234 l 884 201 z m 769 276 b 792 276 804 295 800 315 b 798 333 785 341 773 351 b 763 360 748 369 754 383 b 754 390 760 396 769 393 b 780 391 783 379 784 369 l 798 375 b 798 385 796 396 787 403 b 777 408 764 410 755 408 b 734 402 730 375 741 358 b 746 349 758 341 766 333 b 773 330 776 323 780 319 b 785 312 787 298 779 294 b 773 288 764 289 758 295 b 754 299 754 310 752 318 l 734 312 b 735 291 748 276 769 276 z m 1258 -186 l 1263 -186 l 1263 -140 l 1284 -186 l 1292 -186 l 1292 -121 l 1284 -121 l 1284 -164 l 1263 -121 l 1258 -121 z m 919 177 b 931 177 939 188 935 200 b 934 206 926 211 919 215 b 914 221 909 226 911 234 b 913 242 922 244 926 226 l 935 227 b 935 234 931 242 926 244 b 919 248 911 246 907 243 b 897 234 902 221 911 214 b 915 207 926 201 926 192 b 926 186 923 184 915 184 b 911 186 911 194 911 200 l 902 196 b 902 186 909 177 919 177 z m 1191 -35 l 1191 -102 b 1197 -102 1210 -104 1217 -98 b 1228 -93 1224 -80 1224 -71 b 1224 -62 1228 -46 1220 -41 b 1212 -34 1199 -35 1191 -35 z m 1200 -97 l 1200 -42 b 1209 -42 1214 -42 1216 -54 l 1216 -87 b 1213 -97 1208 -97 1200 -97 z m 941 177 l 969 177 l 969 184 l 952 184 l 952 209 l 965 209 l 965 215 l 952 215 l 952 242 l 969 242 l 969 246 l 941 246 z m 649 428 l 666 428 l 666 487 b 678 487 693 484 701 494 b 717 504 717 528 709 543 b 701 557 689 558 676 558 l 649 558 z m 817 277 l 865 277 l 865 289 l 834 289 l 834 337 l 860 337 l 860 351 l 834 351 l 834 393 l 865 393 l 865 408 l 817 408 z m 666 500 l 666 543 b 672 543 678 546 685 543 b 696 541 696 529 696 521 b 696 512 695 504 685 501 b 678 499 672 500 666 500 z m 1007 177 l 1016 177 l 1031 246 l 1021 246 l 1011 196 l 1003 246 l 993 246 z m 726 428 l 777 428 l 777 438 l 745 438 l 745 487 l 771 487 l 771 500 l 745 500 l 745 543 l 776 543 l 776 558 l 726 558 z m 1037 177 l 1046 177 l 1046 246 l 1037 246 z m 1073 177 b 1084 177 1091 188 1088 200 b 1087 206 1078 213 1074 215 b 1070 221 1062 226 1065 234 b 1069 242 1078 244 1079 226 l 1088 227 b 1087 234 1084 242 1078 244 b 1074 248 1066 246 1061 243 b 1049 234 1057 221 1063 214 b 1070 207 1081 201 1079 192 b 1079 186 1075 184 1070 184 b 1066 186 1063 194 1063 200 l 1054 196 b 1057 186 1061 177 1073 177 z m 952 276 b 969 276 982 285 983 302 b 987 312 985 322 985 333 b 985 351 990 374 982 389 b 978 403 965 408 949 408 b 935 408 923 402 918 386 b 914 369 915 349 915 330 b 915 320 915 312 918 303 b 919 285 934 276 952 276 z m 941 290 b 934 295 935 307 935 318 l 935 341 b 935 354 932 369 935 382 b 937 389 940 393 948 393 b 952 396 957 393 964 389 b 969 383 969 377 969 369 l 969 322 l 969 307 b 968 302 965 295 957 290 b 955 289 948 289 941 290 z m 1096 177 l 1107 177 l 1107 246 l 1096 246 z m 792 558 l 792 428 l 811 428 l 811 487 l 825 487 l 843 428 l 859 428 l 843 492 b 864 499 861 542 843 553 b 829 559 809 558 792 558 z m 1125 177 l 1133 177 l 1133 242 l 1144 242 l 1144 246 l 1112 246 l 1112 242 l 1125 242 z m 811 500 l 811 543 b 817 543 823 546 830 542 b 838 540 839 530 839 525 b 840 515 838 505 830 501 b 823 500 817 500 811 500 z m 1006 277 l 1020 277 l 1020 366 l 1058 277 l 1070 277 l 1070 408 l 1054 408 l 1054 320 l 1019 408 l 1006 408 z m 907 425 b 930 425 941 445 937 466 b 934 479 922 490 911 500 b 901 508 886 520 888 534 b 890 542 899 546 907 546 b 918 542 919 529 922 521 l 935 526 b 935 536 932 547 924 553 b 915 558 902 559 892 557 b 869 551 865 526 877 505 b 884 498 894 490 902 483 b 910 477 914 471 918 467 b 923 461 924 449 918 444 b 911 438 902 438 894 445 b 890 450 888 458 888 467 l 869 463 b 871 442 884 425 907 425 z m 1091 277 l 1140 277 l 1140 289 l 1109 289 l 1109 408 l 1091 408 z m 978 441 b 968 445 969 458 969 466 l 969 490 b 969 503 965 521 969 530 b 972 540 976 543 982 543 b 987 546 993 546 997 540 b 1003 534 1003 526 1003 519 l 1003 458 b 1003 452 1003 445 994 441 b 990 438 982 438 978 441 z m 1230 277 l 1249 277 l 1249 295 l 1230 295 z m 1174 303 l 1174 277 l 1192 277 l 1192 309 b 1192 314 1191 320 1193 327 l 1203 353 l 1220 408 l 1203 408 l 1182 345 l 1163 408 l 1147 408 l 1165 349 b 1170 341 1171 333 1174 323 z m 1040 428 l 1054 428 l 1054 515 l 1091 428 l 1104 428 l 1104 558 l 1088 558 l 1088 469 l 1050 558 l 1040 558 z m 1235 305 l 1241 305 l 1249 408 l 1230 408 z m 1117 428 l 1133 428 l 1140 458 l 1167 458 l 1174 428 l 1191 428 l 1163 558 l 1145 558 z m 1144 471 l 1154 530 l 1165 471 z m 1204 428 l 1255 428 l 1255 438 l 1224 438 l 1224 558 l 1204 558 z m 410 -11 l 434 -11 l 436 55 l 449 -11 l 468 -11 l 479 56 l 482 -11 l 505 -11 l 504 151 l 476 151 l 458 49 l 438 151 l 412 151 z m 526 -11 l 551 -11 l 551 68 l 580 -11 l 600 -11 l 600 151 l 574 151 l 574 73 l 546 151 l 526 151 z m 618 -11 l 646 -11 l 646 18 l 618 18 z m 701 -13 b 719 -9 729 6 730 20 b 732 41 725 58 710 73 l 698 88 b 692 94 685 98 682 107 b 680 113 681 129 694 128 b 704 126 702 107 704 96 l 729 98 b 729 117 727 141 708 150 b 685 161 658 145 658 121 b 655 108 658 94 664 84 b 666 78 673 73 679 67 b 688 56 704 43 704 26 b 704 20 702 14 697 13 b 692 11 689 14 687 18 b 681 28 681 38 681 47 l 655 46 b 655 32 658 18 663 6 b 669 -9 685 -15 701 -13 z m 800 -6 l 800 -11 l 822 -11 l 822 73 l 780 73 l 780 49 l 796 49 b 796 41 799 6 780 13 b 767 17 771 38 771 47 l 771 106 b 771 118 773 130 785 128 b 793 124 794 122 794 94 l 820 94 b 820 112 822 136 803 147 b 793 154 779 154 767 151 b 752 145 745 131 743 117 b 741 103 742 86 742 70 b 742 55 741 41 743 25 b 744 13 748 -2 759 -8 b 771 -15 789 -15 800 -6 z m 827 -31 l 850 -31 l 896 171 l 871 171 z m 935 -14 b 941 -15 948 -14 953 -11 b 972 -2 975 21 975 41 l 949 43 b 949 32 950 13 938 11 b 933 11 928 13 928 21 l 928 116 b 928 125 933 128 938 127 b 950 125 949 106 949 96 l 975 97 b 975 116 972 141 953 148 b 948 152 941 153 935 152 b 918 150 901 138 901 118 l 901 20 b 901 1 918 -12 935 -14 z m 978 -12 l 1005 -12 l 1011 26 l 1028 26 l 1034 -12 l 1061 -12 l 1033 150 l 1007 150 z m 1015 50 l 1019 83 l 1024 50 z m 1064 -12 l 1090 -12 l 1090 54 l 1102 -12 l 1121 -12 l 1134 55 l 1135 -12 l 1160 -12 l 1159 150 l 1130 150 l 1111 48 l 1093 150 l 1067 150 z m 1173 -12 l 1199 -12 l 1199 38 b 1210 38 1213 38 1219 41 b 1249 48 1249 83 1249 96 b 1249 131 1231 150 1213 150 l 1173 150 z m 1214 63 l 1199 63 l 1199 127 l 1210 127 b 1226 127 1224 67 1214 63 z m 1243 -12 l 1271 -12 l 1276 26 l 1294 26 l 1299 -12 l 1326 -12 l 1299 150 l 1273 150 z m 1281 50 l 1285 83 l 1289 50 z m 1329 -12 l 1355 -12 l 1355 67 l 1382 -12 l 1403 -12 l 1403 150 l 1377 150 l 1377 72 l 1349 150 l 1329 150 z m 1406 -12 l 1434 -12 l 1439 26 l 1457 26 l 1462 -12 l 1489 -12 l 1462 150 l 1436 150 z m 1443 50 l 1448 83 l 1452 50 z"},"{":{"x_min":0,"x_max":304,"ha":304,"o":"m 290 352 b 357 444 474 470 547 505 l 531 533 b 434 478 319 443 242 368 b 184 309 130 197 99 190 l 22 178 l 10 160 b 27 161 58 158 77 150 b 102 138 29 -20 47 -78 b 62 -119 116 -178 179 -205 l 207 -186 b 154 -154 127 -99 131 -50 b 134 1 208 140 132 166 b 256 209 250 292 290 352 z"},"9":{"x_min":0,"x_max":1753,"ha":1753,"o":"m 983 425 b 1003 425 1016 433 1020 452 b 1021 461 1021 471 1021 482 b 1021 499 1025 524 1019 540 b 1014 554 997 558 982 558 b 969 558 956 551 952 536 b 948 520 949 496 949 477 b 949 469 949 462 951 453 b 955 436 965 425 983 425 z m 624 -186 b 638 -186 640 -173 640 -163 l 632 -163 b 632 -165 632 -171 630 -174 b 628 -180 620 -181 616 -176 b 612 -171 613 -157 613 -153 b 613 -147 612 -134 616 -129 b 620 -125 628 -125 630 -130 b 632 -134 632 -139 632 -142 l 640 -142 b 640 -131 640 -121 626 -121 b 611 -117 604 -127 604 -140 b 604 -157 599 -186 624 -186 z m 661 -178 b 653 -174 655 -153 655 -147 l 655 -138 b 655 -130 661 -123 670 -127 b 676 -130 675 -148 675 -155 b 675 -164 675 -186 661 -178 z m 666 -186 b 685 -186 684 -167 684 -153 b 684 -139 685 -121 666 -121 b 647 -117 647 -134 647 -152 b 647 -165 645 -186 666 -186 z m 693 -186 l 701 -186 l 701 -138 l 712 -186 l 720 -186 l 730 -138 l 730 -186 l 737 -186 l 735 -121 l 726 -121 l 717 -173 l 704 -121 l 693 -121 z m 672 -102 l 683 -102 l 683 -72 l 695 -72 l 695 -66 l 683 -66 l 683 -42 l 699 -42 l 699 -35 l 672 -35 z m 748 -186 l 755 -186 l 756 -138 l 766 -186 l 773 -186 l 784 -138 l 785 -186 l 792 -186 l 789 -121 l 780 -121 l 769 -173 l 758 -121 l 748 -121 z m 722 -102 b 741 -102 741 -84 741 -71 b 741 -58 742 -38 725 -34 b 704 -34 704 -51 704 -67 b 704 -83 701 -102 722 -102 z m 720 -96 b 709 -93 713 -72 713 -66 l 713 -55 b 713 -46 720 -39 726 -43 b 734 -46 731 -66 731 -72 b 731 -83 731 -100 720 -96 z m 802 -186 l 829 -186 l 829 -180 l 813 -180 l 813 -153 l 825 -153 l 825 -147 l 813 -147 l 813 -126 l 829 -126 l 829 -121 l 802 -121 z m 750 -35 l 750 -102 l 758 -102 l 758 -72 l 766 -72 l 775 -102 l 785 -102 l 775 -71 b 787 -66 785 -43 775 -38 b 768 -34 758 -35 750 -35 z m 835 -121 l 835 -186 l 846 -186 l 846 -153 l 853 -153 l 860 -186 l 869 -186 l 860 -153 b 871 -148 869 -127 860 -121 b 853 -117 844 -121 835 -121 z m 758 -66 l 758 -42 b 768 -42 775 -43 775 -54 b 775 -64 768 -66 758 -66 z m 846 -147 l 846 -126 b 853 -126 860 -127 860 -138 b 860 -147 853 -147 846 -147 z m 894 -186 b 911 -186 913 -173 913 -163 l 903 -163 b 903 -165 905 -171 902 -174 b 902 -180 892 -181 888 -176 b 884 -171 886 -157 886 -153 b 886 -147 884 -134 888 -129 b 892 -125 902 -125 902 -130 b 905 -134 903 -139 903 -142 l 913 -142 b 913 -131 911 -121 899 -121 b 884 -117 877 -127 877 -140 b 877 -157 871 -186 894 -186 z m 818 -102 l 829 -102 l 829 -42 l 840 -42 l 840 -35 l 808 -35 l 808 -42 l 818 -42 z m 923 -186 l 931 -186 l 931 -121 l 923 -121 z m 846 -102 l 853 -102 l 853 -72 l 872 -72 l 872 -102 l 881 -102 l 881 -35 l 872 -35 l 872 -66 l 853 -66 l 853 -35 l 846 -35 z m 939 -186 l 948 -186 l 951 -169 l 965 -169 l 968 -186 l 977 -186 l 961 -121 l 952 -121 z m 952 -164 l 957 -131 l 964 -164 z m 890 -102 l 918 -102 l 918 -97 l 902 -97 l 902 -72 l 914 -72 l 914 -66 l 902 -66 l 902 -42 l 918 -42 l 918 -35 l 890 -35 z m 982 -186 l 1010 -186 l 1010 -180 l 993 -180 l 993 -121 l 982 -121 z m 945 -102 l 952 -102 l 952 -72 l 965 -72 l 965 -66 l 952 -66 l 952 -42 l 970 -42 l 970 -35 l 945 -35 z m 1046 -186 l 1053 -186 l 1069 -121 l 1061 -121 l 1049 -169 l 1040 -121 l 1032 -121 z m 999 -102 b 1014 -97 1011 -79 1011 -67 l 1011 -35 l 1003 -35 l 1003 -66 b 1003 -73 1006 -97 993 -97 b 979 -97 983 -73 983 -66 l 983 -35 l 977 -35 l 977 -72 b 977 -76 976 -83 977 -87 b 978 -100 985 -105 999 -102 z m 1075 -186 l 1104 -186 l 1104 -180 l 1086 -180 l 1086 -153 l 1100 -153 l 1100 -147 l 1086 -147 l 1086 -126 l 1104 -126 l 1104 -121 l 1075 -121 z m 1021 -102 l 1046 -102 l 1046 -97 l 1032 -97 l 1032 -35 l 1021 -35 z m 1111 -121 l 1111 -186 l 1119 -186 l 1119 -153 l 1126 -153 l 1134 -186 l 1144 -186 l 1133 -153 b 1145 -150 1145 -127 1136 -121 b 1128 -117 1119 -121 1111 -121 z m 756 246 l 756 177 l 766 177 l 766 209 b 773 209 779 207 785 213 b 789 218 789 230 787 238 b 780 248 766 246 756 246 z m 1119 -147 l 1119 -126 b 1128 -126 1133 -127 1133 -138 b 1133 -147 1128 -147 1119 -147 z m 1053 -102 l 1079 -102 l 1079 -97 l 1062 -97 l 1062 -35 l 1053 -35 z m 766 214 l 766 242 b 775 242 780 242 780 228 b 780 223 780 219 775 215 b 773 214 768 214 766 214 z m 1170 -186 b 1182 -186 1187 -176 1182 -165 b 1182 -157 1174 -153 1170 -147 b 1165 -142 1157 -138 1161 -130 b 1163 -126 1166 -125 1170 -126 b 1174 -127 1174 -134 1176 -139 l 1182 -135 b 1182 -129 1182 -123 1174 -121 b 1170 -117 1163 -118 1157 -123 b 1147 -129 1150 -143 1159 -152 b 1165 -155 1176 -164 1176 -171 b 1176 -176 1171 -181 1165 -178 b 1161 -176 1159 -169 1159 -165 l 1150 -167 b 1150 -178 1157 -186 1170 -186 z m 798 177 l 823 177 l 823 184 l 805 184 l 805 246 l 798 246 z m 699 277 b 726 286 720 326 720 349 l 720 408 l 701 408 l 701 318 b 701 303 696 284 678 289 b 666 295 666 310 666 320 l 666 408 l 650 408 l 650 327 b 650 314 650 303 653 295 b 661 277 683 269 699 277 z m 1192 -186 l 1201 -186 l 1201 -121 l 1192 -121 z m 1104 -102 l 1111 -102 l 1116 -85 l 1128 -85 l 1130 -102 l 1140 -102 l 1126 -35 l 1116 -35 z m 830 177 l 855 177 l 855 184 l 838 184 l 838 209 l 852 209 l 852 215 l 838 215 l 838 242 l 855 242 l 855 246 l 830 246 z m 1116 -80 l 1121 -50 l 1126 -80 z m 1225 -178 b 1217 -174 1222 -153 1222 -147 l 1222 -138 b 1222 -130 1225 -123 1235 -127 b 1241 -130 1239 -148 1239 -155 b 1239 -164 1239 -186 1225 -178 z m 1230 -186 b 1249 -186 1249 -167 1249 -153 b 1249 -139 1250 -121 1231 -121 b 1210 -117 1210 -134 1210 -152 b 1210 -165 1209 -186 1230 -186 z m 859 177 l 867 177 l 869 196 l 884 196 l 886 177 l 897 177 l 884 246 l 872 246 z m 1147 -102 l 1155 -102 l 1155 -58 l 1174 -102 l 1180 -102 l 1180 -35 l 1171 -35 l 1171 -80 l 1153 -35 l 1147 -35 z m 869 201 l 877 234 l 884 201 z m 769 276 b 792 276 804 295 800 315 b 798 333 785 341 773 351 b 763 360 748 369 754 383 b 754 390 760 396 769 393 b 780 391 783 379 784 369 l 798 375 b 798 385 796 396 787 403 b 777 408 764 410 755 408 b 734 402 730 375 741 358 b 746 349 758 341 766 333 b 773 330 776 323 780 319 b 785 312 787 298 779 294 b 773 288 764 289 758 295 b 754 299 754 310 752 318 l 734 312 b 735 291 748 276 769 276 z m 1258 -186 l 1263 -186 l 1263 -140 l 1284 -186 l 1292 -186 l 1292 -121 l 1284 -121 l 1284 -164 l 1263 -121 l 1258 -121 z m 919 177 b 931 177 939 188 935 200 b 934 206 926 211 919 215 b 914 221 909 226 911 234 b 913 242 922 244 926 226 l 935 227 b 935 234 931 242 926 244 b 919 248 911 246 907 243 b 897 234 902 221 911 214 b 915 207 926 201 926 192 b 926 186 923 184 915 184 b 911 186 911 194 911 200 l 902 196 b 902 186 909 177 919 177 z m 1191 -35 l 1191 -102 b 1197 -102 1210 -104 1217 -98 b 1228 -93 1224 -80 1224 -71 b 1224 -62 1228 -46 1220 -41 b 1212 -34 1199 -35 1191 -35 z m 1200 -97 l 1200 -42 b 1209 -42 1214 -42 1216 -54 l 1216 -87 b 1213 -97 1208 -97 1200 -97 z m 941 177 l 969 177 l 969 184 l 952 184 l 952 209 l 965 209 l 965 215 l 952 215 l 952 242 l 969 242 l 969 246 l 941 246 z m 649 428 l 666 428 l 666 487 b 678 487 693 484 701 494 b 717 504 717 528 709 543 b 701 557 689 558 676 558 l 649 558 z m 817 277 l 865 277 l 865 289 l 834 289 l 834 337 l 860 337 l 860 351 l 834 351 l 834 393 l 865 393 l 865 408 l 817 408 z m 666 500 l 666 543 b 672 543 678 546 685 543 b 696 541 696 529 696 521 b 696 512 695 504 685 501 b 678 499 672 500 666 500 z m 1007 177 l 1016 177 l 1031 246 l 1021 246 l 1011 196 l 1003 246 l 993 246 z m 726 428 l 777 428 l 777 438 l 745 438 l 745 487 l 771 487 l 771 500 l 745 500 l 745 543 l 776 543 l 776 558 l 726 558 z m 1037 177 l 1046 177 l 1046 246 l 1037 246 z m 1073 177 b 1084 177 1091 188 1088 200 b 1087 206 1078 213 1074 215 b 1070 221 1062 226 1065 234 b 1069 242 1078 244 1079 226 l 1088 227 b 1087 234 1084 242 1078 244 b 1074 248 1066 246 1061 243 b 1049 234 1057 221 1063 214 b 1070 207 1081 201 1079 192 b 1079 186 1075 184 1070 184 b 1066 186 1063 194 1063 200 l 1054 196 b 1057 186 1061 177 1073 177 z m 952 276 b 969 276 982 285 983 302 b 987 312 985 322 985 333 b 985 351 990 374 982 389 b 978 403 965 408 949 408 b 935 408 923 402 918 386 b 914 369 915 349 915 330 b 915 320 915 312 918 303 b 919 285 934 276 952 276 z m 941 290 b 934 295 935 307 935 318 l 935 341 b 935 354 932 369 935 382 b 937 389 940 393 948 393 b 952 396 957 393 964 389 b 969 383 969 377 969 369 l 969 322 l 969 307 b 968 302 965 295 957 290 b 955 289 948 289 941 290 z m 1096 177 l 1107 177 l 1107 246 l 1096 246 z m 792 558 l 792 428 l 811 428 l 811 487 l 825 487 l 843 428 l 859 428 l 843 492 b 864 499 861 542 843 553 b 829 559 809 558 792 558 z m 1125 177 l 1133 177 l 1133 242 l 1144 242 l 1144 246 l 1112 246 l 1112 242 l 1125 242 z m 811 500 l 811 543 b 817 543 823 546 830 542 b 838 540 839 530 839 525 b 840 515 838 505 830 501 b 823 500 817 500 811 500 z m 1006 277 l 1020 277 l 1020 366 l 1058 277 l 1070 277 l 1070 408 l 1054 408 l 1054 320 l 1019 408 l 1006 408 z m 907 425 b 930 425 941 445 937 466 b 934 479 922 490 911 500 b 901 508 886 520 888 534 b 890 542 899 546 907 546 b 918 542 919 529 922 521 l 935 526 b 935 536 932 547 924 553 b 915 558 902 559 892 557 b 869 551 865 526 877 505 b 884 498 894 490 902 483 b 910 477 914 471 918 467 b 923 461 924 449 918 444 b 911 438 902 438 894 445 b 890 450 888 458 888 467 l 869 463 b 871 442 884 425 907 425 z m 1091 277 l 1140 277 l 1140 289 l 1109 289 l 1109 408 l 1091 408 z m 978 441 b 968 445 969 458 969 466 l 969 490 b 969 503 965 521 969 530 b 972 540 976 543 982 543 b 987 546 993 546 997 540 b 1003 534 1003 526 1003 519 l 1003 458 b 1003 452 1003 445 994 441 b 990 438 982 438 978 441 z m 1230 277 l 1249 277 l 1249 295 l 1230 295 z m 1174 303 l 1174 277 l 1192 277 l 1192 309 b 1192 314 1191 320 1193 327 l 1203 353 l 1220 408 l 1203 408 l 1182 345 l 1163 408 l 1147 408 l 1165 349 b 1170 341 1171 333 1174 323 z m 1040 428 l 1054 428 l 1054 515 l 1091 428 l 1104 428 l 1104 558 l 1088 558 l 1088 469 l 1050 558 l 1040 558 z m 1235 305 l 1241 305 l 1249 408 l 1230 408 z m 1117 428 l 1133 428 l 1140 458 l 1167 458 l 1174 428 l 1191 428 l 1163 558 l 1145 558 z m 1144 471 l 1154 530 l 1165 471 z m 1204 428 l 1255 428 l 1255 438 l 1224 438 l 1224 558 l 1204 558 z m 410 -11 l 434 -11 l 436 55 l 449 -11 l 468 -11 l 479 56 l 482 -11 l 505 -11 l 504 151 l 476 151 l 458 49 l 438 151 l 412 151 z m 526 -11 l 551 -11 l 551 68 l 580 -11 l 600 -11 l 600 151 l 574 151 l 574 73 l 546 151 l 526 151 z m 618 -11 l 646 -11 l 646 18 l 618 18 z m 701 -13 b 719 -9 729 6 730 20 b 732 41 725 58 710 73 l 698 88 b 692 94 685 98 682 107 b 680 113 681 129 694 128 b 704 126 702 107 704 96 l 729 98 b 729 117 727 141 708 150 b 685 161 658 145 658 121 b 655 108 658 94 664 84 b 666 78 673 73 679 67 b 688 56 704 43 704 26 b 704 20 702 14 697 13 b 692 11 689 14 687 18 b 681 28 681 38 681 47 l 655 46 b 655 32 658 18 663 6 b 669 -9 685 -15 701 -13 z m 800 -6 l 800 -11 l 822 -11 l 822 73 l 780 73 l 780 49 l 796 49 b 796 41 799 6 780 13 b 767 17 771 38 771 47 l 771 106 b 771 118 773 130 785 128 b 793 124 794 122 794 94 l 820 94 b 820 112 822 136 803 147 b 793 154 779 154 767 151 b 752 145 745 131 743 117 b 741 103 742 86 742 70 b 742 55 741 41 743 25 b 744 13 748 -2 759 -8 b 771 -15 789 -15 800 -6 z m 827 -31 l 850 -31 l 896 171 l 871 171 z m 935 -14 b 941 -15 948 -14 953 -11 b 972 -2 975 21 975 41 l 949 43 b 949 32 950 13 938 11 b 933 11 928 13 928 21 l 928 116 b 928 125 933 128 938 127 b 950 125 949 106 949 96 l 975 97 b 975 116 972 141 953 148 b 948 152 941 153 935 152 b 918 150 901 138 901 118 l 901 20 b 901 1 918 -12 935 -14 z m 978 -12 l 1005 -12 l 1011 26 l 1028 26 l 1034 -12 l 1061 -12 l 1033 150 l 1007 150 z m 1015 50 l 1019 83 l 1024 50 z m 1064 -12 l 1090 -12 l 1090 54 l 1102 -12 l 1121 -12 l 1134 55 l 1135 -12 l 1160 -12 l 1159 150 l 1130 150 l 1111 48 l 1093 150 l 1067 150 z m 1173 -12 l 1199 -12 l 1199 38 b 1210 38 1213 38 1219 41 b 1249 48 1249 83 1249 96 b 1249 131 1231 150 1213 150 l 1173 150 z m 1214 63 l 1199 63 l 1199 127 l 1210 127 b 1226 127 1224 67 1214 63 z m 1243 -12 l 1271 -12 l 1276 26 l 1294 26 l 1299 -12 l 1326 -12 l 1299 150 l 1273 150 z m 1281 50 l 1285 83 l 1289 50 z m 1329 -12 l 1355 -12 l 1355 67 l 1382 -12 l 1403 -12 l 1403 150 l 1377 150 l 1377 72 l 1349 150 l 1329 150 z m 1406 -12 l 1434 -12 l 1439 26 l 1457 26 l 1462 -12 l 1489 -12 l 1462 150 l 1436 150 z m 1443 50 l 1448 83 l 1452 50 z"}," ":{"x_min":0,"x_max":150,"ha":150,"o":""},"I":{"x_min":0,"x_max":388,"ha":388,"o":"m 88 -47 b 186 -47 276 61 347 244 b 413 417 504 506 554 518 b 489 572 236 565 146 420 b 73 305 190 233 247 314 b 206 309 188 331 213 398 b 255 508 413 546 486 513 b 417 490 352 413 271 266 b 201 139 141 27 74 28 b 42 28 24 49 28 66 b 35 99 73 102 115 77 b 105 132 5 136 -17 68 b -33 23 -6 -47 88 -47 z"},"H":{"x_min":0,"x_max":611,"ha":611,"o":"m 88 -47 b 178 -47 260 43 328 199 b 363 194 398 189 430 186 b 388 76 385 -17 454 -17 b 509 -17 594 85 659 216 b 659 222 653 224 649 221 b 603 126 538 49 502 49 b 467 49 478 109 512 187 b 549 193 577 212 590 253 b 574 240 554 233 532 229 b 597 357 708 511 778 528 b 660 562 518 387 446 226 b 413 228 378 232 343 235 l 347 244 b 413 417 504 506 555 518 b 489 572 236 565 146 420 b 73 305 190 233 247 314 b 206 309 188 331 214 398 b 255 508 413 546 486 513 b 416 490 352 413 271 266 l 257 240 b 186 240 124 225 91 166 b 133 196 184 205 237 205 b 181 105 130 27 74 28 b 42 28 24 49 28 66 b 35 99 73 102 115 77 b 105 132 5 136 -17 68 b -33 23 -6 -47 88 -47 z"},"4":{"x_min":0,"x_max":1753,"ha":1753,"o":"m 983 425 b 1003 425 1016 433 1020 452 b 1021 461 1021 471 1021 482 b 1021 499 1025 524 1019 540 b 1014 554 997 558 982 558 b 969 558 956 551 952 536 b 948 520 949 496 949 477 b 949 469 949 462 951 453 b 955 436 965 425 983 425 z m 624 -186 b 638 -186 640 -173 640 -163 l 632 -163 b 632 -165 632 -171 630 -174 b 628 -180 620 -181 616 -176 b 612 -171 613 -157 613 -153 b 613 -147 612 -134 616 -129 b 620 -125 628 -125 630 -130 b 632 -134 632 -139 632 -142 l 640 -142 b 640 -131 640 -121 626 -121 b 611 -117 604 -127 604 -140 b 604 -157 599 -186 624 -186 z m 661 -178 b 653 -174 655 -153 655 -147 l 655 -138 b 655 -130 661 -123 670 -127 b 676 -130 675 -148 675 -155 b 675 -164 675 -186 661 -178 z m 666 -186 b 685 -186 684 -167 684 -153 b 684 -139 685 -121 666 -121 b 647 -117 647 -134 647 -152 b 647 -165 645 -186 666 -186 z m 693 -186 l 701 -186 l 701 -138 l 712 -186 l 720 -186 l 730 -138 l 730 -186 l 737 -186 l 735 -121 l 726 -121 l 717 -173 l 704 -121 l 693 -121 z m 672 -102 l 683 -102 l 683 -72 l 695 -72 l 695 -66 l 683 -66 l 683 -42 l 699 -42 l 699 -35 l 672 -35 z m 748 -186 l 755 -186 l 756 -138 l 766 -186 l 773 -186 l 784 -138 l 785 -186 l 792 -186 l 789 -121 l 780 -121 l 769 -173 l 758 -121 l 748 -121 z m 722 -102 b 741 -102 741 -84 741 -71 b 741 -58 742 -38 725 -34 b 704 -34 704 -51 704 -67 b 704 -83 701 -102 722 -102 z m 720 -96 b 709 -93 713 -72 713 -66 l 713 -55 b 713 -46 720 -39 726 -43 b 734 -46 731 -66 731 -72 b 731 -83 731 -100 720 -96 z m 802 -186 l 829 -186 l 829 -180 l 813 -180 l 813 -153 l 825 -153 l 825 -147 l 813 -147 l 813 -126 l 829 -126 l 829 -121 l 802 -121 z m 750 -35 l 750 -102 l 758 -102 l 758 -72 l 766 -72 l 775 -102 l 785 -102 l 775 -71 b 787 -66 785 -43 775 -38 b 768 -34 758 -35 750 -35 z m 835 -121 l 835 -186 l 846 -186 l 846 -153 l 853 -153 l 860 -186 l 869 -186 l 860 -153 b 871 -148 869 -127 860 -121 b 853 -117 844 -121 835 -121 z m 758 -66 l 758 -42 b 768 -42 775 -43 775 -54 b 775 -64 768 -66 758 -66 z m 846 -147 l 846 -126 b 853 -126 860 -127 860 -138 b 860 -147 853 -147 846 -147 z m 894 -186 b 911 -186 913 -173 913 -163 l 903 -163 b 903 -165 905 -171 902 -174 b 902 -180 892 -181 888 -176 b 884 -171 886 -157 886 -153 b 886 -147 884 -134 888 -129 b 892 -125 902 -125 902 -130 b 905 -134 903 -139 903 -142 l 913 -142 b 913 -131 911 -121 899 -121 b 884 -117 877 -127 877 -140 b 877 -157 871 -186 894 -186 z m 818 -102 l 829 -102 l 829 -42 l 840 -42 l 840 -35 l 808 -35 l 808 -42 l 818 -42 z m 923 -186 l 931 -186 l 931 -121 l 923 -121 z m 846 -102 l 853 -102 l 853 -72 l 872 -72 l 872 -102 l 881 -102 l 881 -35 l 872 -35 l 872 -66 l 853 -66 l 853 -35 l 846 -35 z m 939 -186 l 948 -186 l 951 -169 l 965 -169 l 968 -186 l 977 -186 l 961 -121 l 952 -121 z m 952 -164 l 957 -131 l 964 -164 z m 890 -102 l 918 -102 l 918 -97 l 902 -97 l 902 -72 l 914 -72 l 914 -66 l 902 -66 l 902 -42 l 918 -42 l 918 -35 l 890 -35 z m 982 -186 l 1010 -186 l 1010 -180 l 993 -180 l 993 -121 l 982 -121 z m 945 -102 l 952 -102 l 952 -72 l 965 -72 l 965 -66 l 952 -66 l 952 -42 l 970 -42 l 970 -35 l 945 -35 z m 1046 -186 l 1053 -186 l 1069 -121 l 1061 -121 l 1049 -169 l 1040 -121 l 1032 -121 z m 999 -102 b 1014 -97 1011 -79 1011 -67 l 1011 -35 l 1003 -35 l 1003 -66 b 1003 -73 1006 -97 993 -97 b 979 -97 983 -73 983 -66 l 983 -35 l 977 -35 l 977 -72 b 977 -76 976 -83 977 -87 b 978 -100 985 -105 999 -102 z m 1075 -186 l 1104 -186 l 1104 -180 l 1086 -180 l 1086 -153 l 1100 -153 l 1100 -147 l 1086 -147 l 1086 -126 l 1104 -126 l 1104 -121 l 1075 -121 z m 1021 -102 l 1046 -102 l 1046 -97 l 1032 -97 l 1032 -35 l 1021 -35 z m 1111 -121 l 1111 -186 l 1119 -186 l 1119 -153 l 1126 -153 l 1134 -186 l 1144 -186 l 1133 -153 b 1145 -150 1145 -127 1136 -121 b 1128 -117 1119 -121 1111 -121 z m 756 246 l 756 177 l 766 177 l 766 209 b 773 209 779 207 785 213 b 789 218 789 230 787 238 b 780 248 766 246 756 246 z m 1119 -147 l 1119 -126 b 1128 -126 1133 -127 1133 -138 b 1133 -147 1128 -147 1119 -147 z m 1053 -102 l 1079 -102 l 1079 -97 l 1062 -97 l 1062 -35 l 1053 -35 z m 766 214 l 766 242 b 775 242 780 242 780 228 b 780 223 780 219 775 215 b 773 214 768 214 766 214 z m 1170 -186 b 1182 -186 1187 -176 1182 -165 b 1182 -157 1174 -153 1170 -147 b 1165 -142 1157 -138 1161 -130 b 1163 -126 1166 -125 1170 -126 b 1174 -127 1174 -134 1176 -139 l 1182 -135 b 1182 -129 1182 -123 1174 -121 b 1170 -117 1163 -118 1157 -123 b 1147 -129 1150 -143 1159 -152 b 1165 -155 1176 -164 1176 -171 b 1176 -176 1171 -181 1165 -178 b 1161 -176 1159 -169 1159 -165 l 1150 -167 b 1150 -178 1157 -186 1170 -186 z m 798 177 l 823 177 l 823 184 l 805 184 l 805 246 l 798 246 z m 699 277 b 726 286 720 326 720 349 l 720 408 l 701 408 l 701 318 b 701 303 696 284 678 289 b 666 295 666 310 666 320 l 666 408 l 650 408 l 650 327 b 650 314 650 303 653 295 b 661 277 683 269 699 277 z m 1192 -186 l 1201 -186 l 1201 -121 l 1192 -121 z m 1104 -102 l 1111 -102 l 1116 -85 l 1128 -85 l 1130 -102 l 1140 -102 l 1126 -35 l 1116 -35 z m 830 177 l 855 177 l 855 184 l 838 184 l 838 209 l 852 209 l 852 215 l 838 215 l 838 242 l 855 242 l 855 246 l 830 246 z m 1116 -80 l 1121 -50 l 1126 -80 z m 1225 -178 b 1217 -174 1222 -153 1222 -147 l 1222 -138 b 1222 -130 1225 -123 1235 -127 b 1241 -130 1239 -148 1239 -155 b 1239 -164 1239 -186 1225 -178 z m 1230 -186 b 1249 -186 1249 -167 1249 -153 b 1249 -139 1250 -121 1231 -121 b 1210 -117 1210 -134 1210 -152 b 1210 -165 1209 -186 1230 -186 z m 859 177 l 867 177 l 869 196 l 884 196 l 886 177 l 897 177 l 884 246 l 872 246 z m 1147 -102 l 1155 -102 l 1155 -58 l 1174 -102 l 1180 -102 l 1180 -35 l 1171 -35 l 1171 -80 l 1153 -35 l 1147 -35 z m 869 201 l 877 234 l 884 201 z m 769 276 b 792 276 804 295 800 315 b 798 333 785 341 773 351 b 763 360 748 369 754 383 b 754 390 760 396 769 393 b 780 391 783 379 784 369 l 798 375 b 798 385 796 396 787 403 b 777 408 764 410 755 408 b 734 402 730 375 741 358 b 746 349 758 341 766 333 b 773 330 776 323 780 319 b 785 312 787 298 779 294 b 773 288 764 289 758 295 b 754 299 754 310 752 318 l 734 312 b 735 291 748 276 769 276 z m 1258 -186 l 1263 -186 l 1263 -140 l 1284 -186 l 1292 -186 l 1292 -121 l 1284 -121 l 1284 -164 l 1263 -121 l 1258 -121 z m 919 177 b 931 177 939 188 935 200 b 934 206 926 211 919 215 b 914 221 909 226 911 234 b 913 242 922 244 926 226 l 935 227 b 935 234 931 242 926 244 b 919 248 911 246 907 243 b 897 234 902 221 911 214 b 915 207 926 201 926 192 b 926 186 923 184 915 184 b 911 186 911 194 911 200 l 902 196 b 902 186 909 177 919 177 z m 1191 -35 l 1191 -102 b 1197 -102 1210 -104 1217 -98 b 1228 -93 1224 -80 1224 -71 b 1224 -62 1228 -46 1220 -41 b 1212 -34 1199 -35 1191 -35 z m 1200 -97 l 1200 -42 b 1209 -42 1214 -42 1216 -54 l 1216 -87 b 1213 -97 1208 -97 1200 -97 z m 941 177 l 969 177 l 969 184 l 952 184 l 952 209 l 965 209 l 965 215 l 952 215 l 952 242 l 969 242 l 969 246 l 941 246 z m 649 428 l 666 428 l 666 487 b 678 487 693 484 701 494 b 717 504 717 528 709 543 b 701 557 689 558 676 558 l 649 558 z m 817 277 l 865 277 l 865 289 l 834 289 l 834 337 l 860 337 l 860 351 l 834 351 l 834 393 l 865 393 l 865 408 l 817 408 z m 666 500 l 666 543 b 672 543 678 546 685 543 b 696 541 696 529 696 521 b 696 512 695 504 685 501 b 678 499 672 500 666 500 z m 1007 177 l 1016 177 l 1031 246 l 1021 246 l 1011 196 l 1003 246 l 993 246 z m 726 428 l 777 428 l 777 438 l 745 438 l 745 487 l 771 487 l 771 500 l 745 500 l 745 543 l 776 543 l 776 558 l 726 558 z m 1037 177 l 1046 177 l 1046 246 l 1037 246 z m 1073 177 b 1084 177 1091 188 1088 200 b 1087 206 1078 213 1074 215 b 1070 221 1062 226 1065 234 b 1069 242 1078 244 1079 226 l 1088 227 b 1087 234 1084 242 1078 244 b 1074 248 1066 246 1061 243 b 1049 234 1057 221 1063 214 b 1070 207 1081 201 1079 192 b 1079 186 1075 184 1070 184 b 1066 186 1063 194 1063 200 l 1054 196 b 1057 186 1061 177 1073 177 z m 952 276 b 969 276 982 285 983 302 b 987 312 985 322 985 333 b 985 351 990 374 982 389 b 978 403 965 408 949 408 b 935 408 923 402 918 386 b 914 369 915 349 915 330 b 915 320 915 312 918 303 b 919 285 934 276 952 276 z m 941 290 b 934 295 935 307 935 318 l 935 341 b 935 354 932 369 935 382 b 937 389 940 393 948 393 b 952 396 957 393 964 389 b 969 383 969 377 969 369 l 969 322 l 969 307 b 968 302 965 295 957 290 b 955 289 948 289 941 290 z m 1096 177 l 1107 177 l 1107 246 l 1096 246 z m 792 558 l 792 428 l 811 428 l 811 487 l 825 487 l 843 428 l 859 428 l 843 492 b 864 499 861 542 843 553 b 829 559 809 558 792 558 z m 1125 177 l 1133 177 l 1133 242 l 1144 242 l 1144 246 l 1112 246 l 1112 242 l 1125 242 z m 811 500 l 811 543 b 817 543 823 546 830 542 b 838 540 839 530 839 525 b 840 515 838 505 830 501 b 823 500 817 500 811 500 z m 1006 277 l 1020 277 l 1020 366 l 1058 277 l 1070 277 l 1070 408 l 1054 408 l 1054 320 l 1019 408 l 1006 408 z m 907 425 b 930 425 941 445 937 466 b 934 479 922 490 911 500 b 901 508 886 520 888 534 b 890 542 899 546 907 546 b 918 542 919 529 922 521 l 935 526 b 935 536 932 547 924 553 b 915 558 902 559 892 557 b 869 551 865 526 877 505 b 884 498 894 490 902 483 b 910 477 914 471 918 467 b 923 461 924 449 918 444 b 911 438 902 438 894 445 b 890 450 888 458 888 467 l 869 463 b 871 442 884 425 907 425 z m 1091 277 l 1140 277 l 1140 289 l 1109 289 l 1109 408 l 1091 408 z m 978 441 b 968 445 969 458 969 466 l 969 490 b 969 503 965 521 969 530 b 972 540 976 543 982 543 b 987 546 993 546 997 540 b 1003 534 1003 526 1003 519 l 1003 458 b 1003 452 1003 445 994 441 b 990 438 982 438 978 441 z m 1230 277 l 1249 277 l 1249 295 l 1230 295 z m 1174 303 l 1174 277 l 1192 277 l 1192 309 b 1192 314 1191 320 1193 327 l 1203 353 l 1220 408 l 1203 408 l 1182 345 l 1163 408 l 1147 408 l 1165 349 b 1170 341 1171 333 1174 323 z m 1040 428 l 1054 428 l 1054 515 l 1091 428 l 1104 428 l 1104 558 l 1088 558 l 1088 469 l 1050 558 l 1040 558 z m 1235 305 l 1241 305 l 1249 408 l 1230 408 z m 1117 428 l 1133 428 l 1140 458 l 1167 458 l 1174 428 l 1191 428 l 1163 558 l 1145 558 z m 1144 471 l 1154 530 l 1165 471 z m 1204 428 l 1255 428 l 1255 438 l 1224 438 l 1224 558 l 1204 558 z m 410 -11 l 434 -11 l 436 55 l 449 -11 l 468 -11 l 479 56 l 482 -11 l 505 -11 l 504 151 l 476 151 l 458 49 l 438 151 l 412 151 z m 526 -11 l 551 -11 l 551 68 l 580 -11 l 600 -11 l 600 151 l 574 151 l 574 73 l 546 151 l 526 151 z m 618 -11 l 646 -11 l 646 18 l 618 18 z m 701 -13 b 719 -9 729 6 730 20 b 732 41 725 58 710 73 l 698 88 b 692 94 685 98 682 107 b 680 113 681 129 694 128 b 704 126 702 107 704 96 l 729 98 b 729 117 727 141 708 150 b 685 161 658 145 658 121 b 655 108 658 94 664 84 b 666 78 673 73 679 67 b 688 56 704 43 704 26 b 704 20 702 14 697 13 b 692 11 689 14 687 18 b 681 28 681 38 681 47 l 655 46 b 655 32 658 18 663 6 b 669 -9 685 -15 701 -13 z m 800 -6 l 800 -11 l 822 -11 l 822 73 l 780 73 l 780 49 l 796 49 b 796 41 799 6 780 13 b 767 17 771 38 771 47 l 771 106 b 771 118 773 130 785 128 b 793 124 794 122 794 94 l 820 94 b 820 112 822 136 803 147 b 793 154 779 154 767 151 b 752 145 745 131 743 117 b 741 103 742 86 742 70 b 742 55 741 41 743 25 b 744 13 748 -2 759 -8 b 771 -15 789 -15 800 -6 z m 827 -31 l 850 -31 l 896 171 l 871 171 z m 935 -14 b 941 -15 948 -14 953 -11 b 972 -2 975 21 975 41 l 949 43 b 949 32 950 13 938 11 b 933 11 928 13 928 21 l 928 116 b 928 125 933 128 938 127 b 950 125 949 106 949 96 l 975 97 b 975 116 972 141 953 148 b 948 152 941 153 935 152 b 918 150 901 138 901 118 l 901 20 b 901 1 918 -12 935 -14 z m 978 -12 l 1005 -12 l 1011 26 l 1028 26 l 1034 -12 l 1061 -12 l 1033 150 l 1007 150 z m 1015 50 l 1019 83 l 1024 50 z m 1064 -12 l 1090 -12 l 1090 54 l 1102 -12 l 1121 -12 l 1134 55 l 1135 -12 l 1160 -12 l 1159 150 l 1130 150 l 1111 48 l 1093 150 l 1067 150 z m 1173 -12 l 1199 -12 l 1199 38 b 1210 38 1213 38 1219 41 b 1249 48 1249 83 1249 96 b 1249 131 1231 150 1213 150 l 1173 150 z m 1214 63 l 1199 63 l 1199 127 l 1210 127 b 1226 127 1224 67 1214 63 z m 1243 -12 l 1271 -12 l 1276 26 l 1294 26 l 1299 -12 l 1326 -12 l 1299 150 l 1273 150 z m 1281 50 l 1285 83 l 1289 50 z m 1329 -12 l 1355 -12 l 1355 67 l 1382 -12 l 1403 -12 l 1403 150 l 1377 150 l 1377 72 l 1349 150 l 1329 150 z m 1406 -12 l 1434 -12 l 1439 26 l 1457 26 l 1462 -12 l 1489 -12 l 1462 150 l 1436 150 z m 1443 50 l 1448 83 l 1452 50 z"},"~":{"x_min":0,"x_max":371,"ha":371,"o":"m 31 202 b 31 199 32 197 34 196 b 36 195 39 195 42 196 b 45 197 48 199 50 201 b 60 211 72 217 88 217 b 100 217 114 214 128 210 l 173 196 b 189 191 205 186 222 182 b 238 178 254 176 270 176 b 307 176 335 191 357 220 b 360 224 360 228 360 230 b 359 232 356 234 353 234 b 349 234 345 231 341 228 b 337 222 331 219 326 218 b 320 215 314 215 307 215 b 295 215 282 217 268 222 l 223 235 b 207 241 190 245 174 250 b 157 254 141 256 125 256 b 109 256 93 253 78 247 b 66 242 31 215 31 202 z"},"D":{"x_min":0,"x_max":646,"ha":646,"o":"m 38 -47 b 87 -47 131 -24 174 18 b 226 -13 273 -53 363 -44 b 634 -19 775 496 476 541 b 357 560 239 507 166 439 b 57 337 124 212 196 274 b 163 297 183 367 229 421 b 275 475 342 520 426 519 b 710 518 539 32 292 30 b 263 30 235 40 204 52 b 235 90 267 140 299 199 b 385 357 430 456 508 477 b 414 497 312 408 203 213 b 170 154 142 109 117 78 b 97 81 77 83 54 83 b -53 81 -75 -44 38 -47 z m 38 21 b -7 21 4 54 57 54 b 70 54 82 53 93 51 b 72 30 54 21 38 21 z"},"^":{"x_min":0,"x_max":457,"ha":457,"o":"m 323 327 l 424 369 l 414 390 l 378 382 l 263 508 l 237 508 l 65 372 l 86 328 l 226 466 z"},"0":{"x_min":0,"x_max":1753,"ha":1753,"o":"m 983 425 b 1003 425 1016 433 1020 452 b 1021 461 1021 471 1021 482 b 1021 499 1025 524 1019 540 b 1014 554 997 558 982 558 b 969 558 956 551 952 536 b 948 520 949 496 949 477 b 949 469 949 462 951 453 b 955 436 965 425 983 425 z m 624 -186 b 638 -186 640 -173 640 -163 l 632 -163 b 632 -165 632 -171 630 -174 b 628 -180 620 -181 616 -176 b 612 -171 613 -157 613 -153 b 613 -147 612 -134 616 -129 b 620 -125 628 -125 630 -130 b 632 -134 632 -139 632 -142 l 640 -142 b 640 -131 640 -121 626 -121 b 611 -117 604 -127 604 -140 b 604 -157 599 -186 624 -186 z m 661 -178 b 653 -174 655 -153 655 -147 l 655 -138 b 655 -130 661 -123 670 -127 b 676 -130 675 -148 675 -155 b 675 -164 675 -186 661 -178 z m 666 -186 b 685 -186 684 -167 684 -153 b 684 -139 685 -121 666 -121 b 647 -117 647 -134 647 -152 b 647 -165 645 -186 666 -186 z m 693 -186 l 701 -186 l 701 -138 l 712 -186 l 720 -186 l 730 -138 l 730 -186 l 737 -186 l 735 -121 l 726 -121 l 717 -173 l 704 -121 l 693 -121 z m 672 -102 l 683 -102 l 683 -72 l 695 -72 l 695 -66 l 683 -66 l 683 -42 l 699 -42 l 699 -35 l 672 -35 z m 748 -186 l 755 -186 l 756 -138 l 766 -186 l 773 -186 l 784 -138 l 785 -186 l 792 -186 l 789 -121 l 780 -121 l 769 -173 l 758 -121 l 748 -121 z m 722 -102 b 741 -102 741 -84 741 -71 b 741 -58 742 -38 725 -34 b 704 -34 704 -51 704 -67 b 704 -83 701 -102 722 -102 z m 720 -96 b 709 -93 713 -72 713 -66 l 713 -55 b 713 -46 720 -39 726 -43 b 734 -46 731 -66 731 -72 b 731 -83 731 -100 720 -96 z m 802 -186 l 829 -186 l 829 -180 l 813 -180 l 813 -153 l 825 -153 l 825 -147 l 813 -147 l 813 -126 l 829 -126 l 829 -121 l 802 -121 z m 750 -35 l 750 -102 l 758 -102 l 758 -72 l 766 -72 l 775 -102 l 785 -102 l 775 -71 b 787 -66 785 -43 775 -38 b 768 -34 758 -35 750 -35 z m 835 -121 l 835 -186 l 846 -186 l 846 -153 l 853 -153 l 860 -186 l 869 -186 l 860 -153 b 871 -148 869 -127 860 -121 b 853 -117 844 -121 835 -121 z m 758 -66 l 758 -42 b 768 -42 775 -43 775 -54 b 775 -64 768 -66 758 -66 z m 846 -147 l 846 -126 b 853 -126 860 -127 860 -138 b 860 -147 853 -147 846 -147 z m 894 -186 b 911 -186 913 -173 913 -163 l 903 -163 b 903 -165 905 -171 902 -174 b 902 -180 892 -181 888 -176 b 884 -171 886 -157 886 -153 b 886 -147 884 -134 888 -129 b 892 -125 902 -125 902 -130 b 905 -134 903 -139 903 -142 l 913 -142 b 913 -131 911 -121 899 -121 b 884 -117 877 -127 877 -140 b 877 -157 871 -186 894 -186 z m 818 -102 l 829 -102 l 829 -42 l 840 -42 l 840 -35 l 808 -35 l 808 -42 l 818 -42 z m 923 -186 l 931 -186 l 931 -121 l 923 -121 z m 846 -102 l 853 -102 l 853 -72 l 872 -72 l 872 -102 l 881 -102 l 881 -35 l 872 -35 l 872 -66 l 853 -66 l 853 -35 l 846 -35 z m 939 -186 l 948 -186 l 951 -169 l 965 -169 l 968 -186 l 977 -186 l 961 -121 l 952 -121 z m 952 -164 l 957 -131 l 964 -164 z m 890 -102 l 918 -102 l 918 -97 l 902 -97 l 902 -72 l 914 -72 l 914 -66 l 902 -66 l 902 -42 l 918 -42 l 918 -35 l 890 -35 z m 982 -186 l 1010 -186 l 1010 -180 l 993 -180 l 993 -121 l 982 -121 z m 945 -102 l 952 -102 l 952 -72 l 965 -72 l 965 -66 l 952 -66 l 952 -42 l 970 -42 l 970 -35 l 945 -35 z m 1046 -186 l 1053 -186 l 1069 -121 l 1061 -121 l 1049 -169 l 1040 -121 l 1032 -121 z m 999 -102 b 1014 -97 1011 -79 1011 -67 l 1011 -35 l 1003 -35 l 1003 -66 b 1003 -73 1006 -97 993 -97 b 979 -97 983 -73 983 -66 l 983 -35 l 977 -35 l 977 -72 b 977 -76 976 -83 977 -87 b 978 -100 985 -105 999 -102 z m 1075 -186 l 1104 -186 l 1104 -180 l 1086 -180 l 1086 -153 l 1100 -153 l 1100 -147 l 1086 -147 l 1086 -126 l 1104 -126 l 1104 -121 l 1075 -121 z m 1021 -102 l 1046 -102 l 1046 -97 l 1032 -97 l 1032 -35 l 1021 -35 z m 1111 -121 l 1111 -186 l 1119 -186 l 1119 -153 l 1126 -153 l 1134 -186 l 1144 -186 l 1133 -153 b 1145 -150 1145 -127 1136 -121 b 1128 -117 1119 -121 1111 -121 z m 756 246 l 756 177 l 766 177 l 766 209 b 773 209 779 207 785 213 b 789 218 789 230 787 238 b 780 248 766 246 756 246 z m 1119 -147 l 1119 -126 b 1128 -126 1133 -127 1133 -138 b 1133 -147 1128 -147 1119 -147 z m 1053 -102 l 1079 -102 l 1079 -97 l 1062 -97 l 1062 -35 l 1053 -35 z m 766 214 l 766 242 b 775 242 780 242 780 228 b 780 223 780 219 775 215 b 773 214 768 214 766 214 z m 1170 -186 b 1182 -186 1187 -176 1182 -165 b 1182 -157 1174 -153 1170 -147 b 1165 -142 1157 -138 1161 -130 b 1163 -126 1166 -125 1170 -126 b 1174 -127 1174 -134 1176 -139 l 1182 -135 b 1182 -129 1182 -123 1174 -121 b 1170 -117 1163 -118 1157 -123 b 1147 -129 1150 -143 1159 -152 b 1165 -155 1176 -164 1176 -171 b 1176 -176 1171 -181 1165 -178 b 1161 -176 1159 -169 1159 -165 l 1150 -167 b 1150 -178 1157 -186 1170 -186 z m 798 177 l 823 177 l 823 184 l 805 184 l 805 246 l 798 246 z m 699 277 b 726 286 720 326 720 349 l 720 408 l 701 408 l 701 318 b 701 303 696 284 678 289 b 666 295 666 310 666 320 l 666 408 l 650 408 l 650 327 b 650 314 650 303 653 295 b 661 277 683 269 699 277 z m 1192 -186 l 1201 -186 l 1201 -121 l 1192 -121 z m 1104 -102 l 1111 -102 l 1116 -85 l 1128 -85 l 1130 -102 l 1140 -102 l 1126 -35 l 1116 -35 z m 830 177 l 855 177 l 855 184 l 838 184 l 838 209 l 852 209 l 852 215 l 838 215 l 838 242 l 855 242 l 855 246 l 830 246 z m 1116 -80 l 1121 -50 l 1126 -80 z m 1225 -178 b 1217 -174 1222 -153 1222 -147 l 1222 -138 b 1222 -130 1225 -123 1235 -127 b 1241 -130 1239 -148 1239 -155 b 1239 -164 1239 -186 1225 -178 z m 1230 -186 b 1249 -186 1249 -167 1249 -153 b 1249 -139 1250 -121 1231 -121 b 1210 -117 1210 -134 1210 -152 b 1210 -165 1209 -186 1230 -186 z m 859 177 l 867 177 l 869 196 l 884 196 l 886 177 l 897 177 l 884 246 l 872 246 z m 1147 -102 l 1155 -102 l 1155 -58 l 1174 -102 l 1180 -102 l 1180 -35 l 1171 -35 l 1171 -80 l 1153 -35 l 1147 -35 z m 869 201 l 877 234 l 884 201 z m 769 276 b 792 276 804 295 800 315 b 798 333 785 341 773 351 b 763 360 748 369 754 383 b 754 390 760 396 769 393 b 780 391 783 379 784 369 l 798 375 b 798 385 796 396 787 403 b 777 408 764 410 755 408 b 734 402 730 375 741 358 b 746 349 758 341 766 333 b 773 330 776 323 780 319 b 785 312 787 298 779 294 b 773 288 764 289 758 295 b 754 299 754 310 752 318 l 734 312 b 735 291 748 276 769 276 z m 1258 -186 l 1263 -186 l 1263 -140 l 1284 -186 l 1292 -186 l 1292 -121 l 1284 -121 l 1284 -164 l 1263 -121 l 1258 -121 z m 919 177 b 931 177 939 188 935 200 b 934 206 926 211 919 215 b 914 221 909 226 911 234 b 913 242 922 244 926 226 l 935 227 b 935 234 931 242 926 244 b 919 248 911 246 907 243 b 897 234 902 221 911 214 b 915 207 926 201 926 192 b 926 186 923 184 915 184 b 911 186 911 194 911 200 l 902 196 b 902 186 909 177 919 177 z m 1191 -35 l 1191 -102 b 1197 -102 1210 -104 1217 -98 b 1228 -93 1224 -80 1224 -71 b 1224 -62 1228 -46 1220 -41 b 1212 -34 1199 -35 1191 -35 z m 1200 -97 l 1200 -42 b 1209 -42 1214 -42 1216 -54 l 1216 -87 b 1213 -97 1208 -97 1200 -97 z m 941 177 l 969 177 l 969 184 l 952 184 l 952 209 l 965 209 l 965 215 l 952 215 l 952 242 l 969 242 l 969 246 l 941 246 z m 649 428 l 666 428 l 666 487 b 678 487 693 484 701 494 b 717 504 717 528 709 543 b 701 557 689 558 676 558 l 649 558 z m 817 277 l 865 277 l 865 289 l 834 289 l 834 337 l 860 337 l 860 351 l 834 351 l 834 393 l 865 393 l 865 408 l 817 408 z m 666 500 l 666 543 b 672 543 678 546 685 543 b 696 541 696 529 696 521 b 696 512 695 504 685 501 b 678 499 672 500 666 500 z m 1007 177 l 1016 177 l 1031 246 l 1021 246 l 1011 196 l 1003 246 l 993 246 z m 726 428 l 777 428 l 777 438 l 745 438 l 745 487 l 771 487 l 771 500 l 745 500 l 745 543 l 776 543 l 776 558 l 726 558 z m 1037 177 l 1046 177 l 1046 246 l 1037 246 z m 1073 177 b 1084 177 1091 188 1088 200 b 1087 206 1078 213 1074 215 b 1070 221 1062 226 1065 234 b 1069 242 1078 244 1079 226 l 1088 227 b 1087 234 1084 242 1078 244 b 1074 248 1066 246 1061 243 b 1049 234 1057 221 1063 214 b 1070 207 1081 201 1079 192 b 1079 186 1075 184 1070 184 b 1066 186 1063 194 1063 200 l 1054 196 b 1057 186 1061 177 1073 177 z m 952 276 b 969 276 982 285 983 302 b 987 312 985 322 985 333 b 985 351 990 374 982 389 b 978 403 965 408 949 408 b 935 408 923 402 918 386 b 914 369 915 349 915 330 b 915 320 915 312 918 303 b 919 285 934 276 952 276 z m 941 290 b 934 295 935 307 935 318 l 935 341 b 935 354 932 369 935 382 b 937 389 940 393 948 393 b 952 396 957 393 964 389 b 969 383 969 377 969 369 l 969 322 l 969 307 b 968 302 965 295 957 290 b 955 289 948 289 941 290 z m 1096 177 l 1107 177 l 1107 246 l 1096 246 z m 792 558 l 792 428 l 811 428 l 811 487 l 825 487 l 843 428 l 859 428 l 843 492 b 864 499 861 542 843 553 b 829 559 809 558 792 558 z m 1125 177 l 1133 177 l 1133 242 l 1144 242 l 1144 246 l 1112 246 l 1112 242 l 1125 242 z m 811 500 l 811 543 b 817 543 823 546 830 542 b 838 540 839 530 839 525 b 840 515 838 505 830 501 b 823 500 817 500 811 500 z m 1006 277 l 1020 277 l 1020 366 l 1058 277 l 1070 277 l 1070 408 l 1054 408 l 1054 320 l 1019 408 l 1006 408 z m 907 425 b 930 425 941 445 937 466 b 934 479 922 490 911 500 b 901 508 886 520 888 534 b 890 542 899 546 907 546 b 918 542 919 529 922 521 l 935 526 b 935 536 932 547 924 553 b 915 558 902 559 892 557 b 869 551 865 526 877 505 b 884 498 894 490 902 483 b 910 477 914 471 918 467 b 923 461 924 449 918 444 b 911 438 902 438 894 445 b 890 450 888 458 888 467 l 869 463 b 871 442 884 425 907 425 z m 1091 277 l 1140 277 l 1140 289 l 1109 289 l 1109 408 l 1091 408 z m 978 441 b 968 445 969 458 969 466 l 969 490 b 969 503 965 521 969 530 b 972 540 976 543 982 543 b 987 546 993 546 997 540 b 1003 534 1003 526 1003 519 l 1003 458 b 1003 452 1003 445 994 441 b 990 438 982 438 978 441 z m 1230 277 l 1249 277 l 1249 295 l 1230 295 z m 1174 303 l 1174 277 l 1192 277 l 1192 309 b 1192 314 1191 320 1193 327 l 1203 353 l 1220 408 l 1203 408 l 1182 345 l 1163 408 l 1147 408 l 1165 349 b 1170 341 1171 333 1174 323 z m 1040 428 l 1054 428 l 1054 515 l 1091 428 l 1104 428 l 1104 558 l 1088 558 l 1088 469 l 1050 558 l 1040 558 z m 1235 305 l 1241 305 l 1249 408 l 1230 408 z m 1117 428 l 1133 428 l 1140 458 l 1167 458 l 1174 428 l 1191 428 l 1163 558 l 1145 558 z m 1144 471 l 1154 530 l 1165 471 z m 1204 428 l 1255 428 l 1255 438 l 1224 438 l 1224 558 l 1204 558 z m 410 -11 l 434 -11 l 436 55 l 449 -11 l 468 -11 l 479 56 l 482 -11 l 505 -11 l 504 151 l 476 151 l 458 49 l 438 151 l 412 151 z m 526 -11 l 551 -11 l 551 68 l 580 -11 l 600 -11 l 600 151 l 574 151 l 574 73 l 546 151 l 526 151 z m 618 -11 l 646 -11 l 646 18 l 618 18 z m 701 -13 b 719 -9 729 6 730 20 b 732 41 725 58 710 73 l 698 88 b 692 94 685 98 682 107 b 680 113 681 129 694 128 b 704 126 702 107 704 96 l 729 98 b 729 117 727 141 708 150 b 685 161 658 145 658 121 b 655 108 658 94 664 84 b 666 78 673 73 679 67 b 688 56 704 43 704 26 b 704 20 702 14 697 13 b 692 11 689 14 687 18 b 681 28 681 38 681 47 l 655 46 b 655 32 658 18 663 6 b 669 -9 685 -15 701 -13 z m 800 -6 l 800 -11 l 822 -11 l 822 73 l 780 73 l 780 49 l 796 49 b 796 41 799 6 780 13 b 767 17 771 38 771 47 l 771 106 b 771 118 773 130 785 128 b 793 124 794 122 794 94 l 820 94 b 820 112 822 136 803 147 b 793 154 779 154 767 151 b 752 145 745 131 743 117 b 741 103 742 86 742 70 b 742 55 741 41 743 25 b 744 13 748 -2 759 -8 b 771 -15 789 -15 800 -6 z m 827 -31 l 850 -31 l 896 171 l 871 171 z m 935 -14 b 941 -15 948 -14 953 -11 b 972 -2 975 21 975 41 l 949 43 b 949 32 950 13 938 11 b 933 11 928 13 928 21 l 928 116 b 928 125 933 128 938 127 b 950 125 949 106 949 96 l 975 97 b 975 116 972 141 953 148 b 948 152 941 153 935 152 b 918 150 901 138 901 118 l 901 20 b 901 1 918 -12 935 -14 z m 978 -12 l 1005 -12 l 1011 26 l 1028 26 l 1034 -12 l 1061 -12 l 1033 150 l 1007 150 z m 1015 50 l 1019 83 l 1024 50 z m 1064 -12 l 1090 -12 l 1090 54 l 1102 -12 l 1121 -12 l 1134 55 l 1135 -12 l 1160 -12 l 1159 150 l 1130 150 l 1111 48 l 1093 150 l 1067 150 z m 1173 -12 l 1199 -12 l 1199 38 b 1210 38 1213 38 1219 41 b 1249 48 1249 83 1249 96 b 1249 131 1231 150 1213 150 l 1173 150 z m 1214 63 l 1199 63 l 1199 127 l 1210 127 b 1226 127 1224 67 1214 63 z m 1243 -12 l 1271 -12 l 1276 26 l 1294 26 l 1299 -12 l 1326 -12 l 1299 150 l 1273 150 z m 1281 50 l 1285 83 l 1289 50 z m 1329 -12 l 1355 -12 l 1355 67 l 1382 -12 l 1403 -12 l 1403 150 l 1377 150 l 1377 72 l 1349 150 l 1329 150 z m 1406 -12 l 1434 -12 l 1439 26 l 1457 26 l 1462 -12 l 1489 -12 l 1462 150 l 1436 150 z m 1443 50 l 1448 83 l 1452 50 z"},"F":{"x_min":0,"x_max":500,"ha":500,"o":"m 135 -47 b 226 -47 302 41 367 200 l 371 208 b 442 198 511 200 545 279 b 496 248 444 250 392 256 b 448 374 514 449 594 472 b 678 447 755 425 816 445 b 894 471 868 552 816 559 b 821 521 672 504 545 530 b 418 556 216 531 141 427 b 75 337 124 260 209 279 b 173 304 175 366 226 433 b 292 522 443 513 523 492 l 563 481 b 463 466 378 389 307 263 b 263 263 221 253 184 213 b 211 228 247 227 285 222 l 281 213 b 207 62 166 22 109 22 b 75 22 65 45 73 65 b 83 88 114 95 137 81 b 126 117 65 119 38 72 b 12 26 44 -47 135 -47 z"},"`":{"x_min":0,"x_max":370,"ha":370,"o":"m 427 551 b 365 551 343 521 343 485 b 365 442 416 406 455 382 l 476 386 b 432 442 416 485 427 551 z"},"k":{"x_min":0,"x_max":261,"ha":261,"o":"m 136 -6 b 182 -6 244 85 308 216 b 309 222 303 224 298 221 b 253 126 202 58 176 58 b 147 58 156 108 126 139 b 260 155 277 282 205 283 b 168 283 136 260 106 223 l 219 480 l 149 480 l -60 0 l 7 0 l 63 127 b 93 120 75 -6 136 -6 z m 69 140 l 84 174 b 104 215 147 232 162 228 b 184 223 184 166 105 144 b 96 141 82 141 69 140 z"},"u":{"x_min":0,"x_max":265,"ha":265,"o":"m 10 -6 b 36 -6 64 21 95 66 b 84 26 94 -6 133 -6 b 179 -6 248 85 312 216 b 313 222 306 224 302 221 b 256 126 196 52 173 52 b 156 52 171 75 183 102 l 259 271 l 191 271 l 137 160 b 103 96 72 52 54 52 b 34 51 42 75 53 102 b 65 128 120 251 130 271 l 61 271 l -18 108 b -48 50 -45 -6 10 -6 z"},"]":{"x_min":0,"x_max":225,"ha":225,"o":"m -151 -181 l 68 -156 l 346 498 l 141 496 l 126 469 l 257 472 l 4 -134 l -136 -144 z"},"U":{"x_min":0,"x_max":647,"ha":647,"o":"m 267 -17 b 337 -17 393 61 457 162 b 424 63 427 -17 491 -17 b 556 -17 630 85 695 216 b 695 222 689 224 685 221 b 639 126 581 41 539 41 b 441 41 693 479 815 534 b 703 563 570 408 495 254 b 399 110 342 70 306 70 b 273 69 265 129 324 242 b 382 356 531 508 571 518 b 505 572 222 555 131 410 b 58 295 175 223 232 304 b 191 299 164 326 199 388 b 261 498 450 545 526 514 b 442 490 330 385 248 264 b 151 119 166 -17 267 -17 z"},"o":{"x_min":0,"x_max":225,"ha":225,"o":"m 13 -4 b 73 -8 139 48 176 130 b 184 148 190 165 194 180 b 223 178 253 192 272 216 b 274 222 267 224 262 221 b 247 204 224 197 199 202 b 209 257 187 285 146 284 b 90 281 32 234 -9 151 b -47 74 -41 0 13 -4 z m 67 43 b 41 43 38 90 66 158 b 98 234 124 265 145 265 b 160 265 171 231 140 149 b 111 74 86 43 67 43 z"},"N":{"x_min":0,"x_max":607,"ha":607,"o":"m 71 -47 b 169 -47 274 61 358 288 b 373 327 389 370 409 410 b 380 311 372 72 494 -17 b 518 366 801 526 888 439 b 931 509 888 569 796 549 b 672 522 546 359 492 141 b 445 247 461 438 508 548 b 368 550 238 509 174 420 b 90 305 200 233 265 314 b 223 309 208 331 239 398 b 276 475 366 517 440 523 b 394 440 348 345 303 255 b 221 90 148 31 71 32 b 39 32 19 53 26 76 b 37 109 80 122 117 87 b 113 142 18 150 -11 82 b -31 37 -18 -47 71 -47 z"},"+":{"x_min":0,"x_max":337,"ha":337,"o":"m 65 56 l 119 58 l 160 160 l 274 160 l 299 212 l 177 203 l 218 305 l 165 305 l 121 201 l 17 194 l -9 160 l 106 160 z"},"G":{"x_min":0,"x_max":528,"ha":528,"o":"m 187 -123 b 250 -178 352 -151 424 32 b 473 156 496 213 533 226 b 513 243 441 244 411 169 b 357 49 293 26 263 26 b 205 26 215 122 250 204 b 264 236 283 268 304 299 b 339 297 380 300 428 309 b 704 361 700 549 572 539 b 512 534 352 486 230 341 b 193 359 189 393 198 418 b 213 457 266 470 297 454 b 282 513 164 509 138 433 b 126 398 145 346 212 318 l 189 286 b 67 102 115 -39 246 -19 b 291 -12 333 25 367 66 b 300 -71 237 -128 187 -123 z m 325 327 b 401 426 503 504 569 512 b 662 523 567 353 351 329 z"},"q":{"x_min":0,"x_max":261,"ha":261,"o":"m -65 -109 b -35 -89 1 -92 28 -99 b 21 -153 61 -174 88 -170 b 129 -164 135 -115 91 -94 l 113 -43 b 162 -27 247 94 308 216 b 308 222 302 224 298 221 b 245 110 174 17 131 -2 l 250 271 l 183 271 l 176 254 b 174 276 159 282 142 282 b 82 282 22 215 -20 140 b -62 64 -55 -4 -1 -4 b 32 -4 68 33 99 77 l 46 -44 b 2 -66 -59 -63 -65 -109 z m 44 51 b 24 51 23 78 59 143 b 95 209 127 258 153 258 b 180 258 156 202 132 156 b 96 92 64 51 44 51 z"},"d":{"x_min":0,"x_max":277,"ha":277,"o":"m -2 -4 b 35 -4 66 33 97 81 b 83 34 100 -6 145 -6 b 190 -6 260 85 324 216 b 325 222 318 224 314 221 b 269 126 207 52 184 52 b 167 52 173 75 184 102 l 356 480 l 285 480 l 175 247 b 176 274 160 282 141 282 b 81 282 22 215 -20 140 b -62 64 -56 -4 -2 -4 z m 43 51 b 23 51 22 78 58 143 b 94 209 126 258 153 258 b 172 258 165 229 150 195 l 138 169 l 131 156 b 96 92 63 51 43 51 z"},"1":{"x_min":0,"x_max":1753,"ha":1753,"o":"m 983 425 b 1003 425 1016 433 1020 452 b 1021 461 1021 471 1021 482 b 1021 499 1025 524 1019 540 b 1014 554 997 558 982 558 b 969 558 956 551 952 536 b 948 520 949 496 949 477 b 949 469 949 462 951 453 b 955 436 965 425 983 425 z m 624 -186 b 638 -186 640 -173 640 -163 l 632 -163 b 632 -165 632 -171 630 -174 b 628 -180 620 -181 616 -176 b 612 -171 613 -157 613 -153 b 613 -147 612 -134 616 -129 b 620 -125 628 -125 630 -130 b 632 -134 632 -139 632 -142 l 640 -142 b 640 -131 640 -121 626 -121 b 611 -117 604 -127 604 -140 b 604 -157 599 -186 624 -186 z m 661 -178 b 653 -174 655 -153 655 -147 l 655 -138 b 655 -130 661 -123 670 -127 b 676 -130 675 -148 675 -155 b 675 -164 675 -186 661 -178 z m 666 -186 b 685 -186 684 -167 684 -153 b 684 -139 685 -121 666 -121 b 647 -117 647 -134 647 -152 b 647 -165 645 -186 666 -186 z m 693 -186 l 701 -186 l 701 -138 l 712 -186 l 720 -186 l 730 -138 l 730 -186 l 737 -186 l 735 -121 l 726 -121 l 717 -173 l 704 -121 l 693 -121 z m 672 -102 l 683 -102 l 683 -72 l 695 -72 l 695 -66 l 683 -66 l 683 -42 l 699 -42 l 699 -35 l 672 -35 z m 748 -186 l 755 -186 l 756 -138 l 766 -186 l 773 -186 l 784 -138 l 785 -186 l 792 -186 l 789 -121 l 780 -121 l 769 -173 l 758 -121 l 748 -121 z m 722 -102 b 741 -102 741 -84 741 -71 b 741 -58 742 -38 725 -34 b 704 -34 704 -51 704 -67 b 704 -83 701 -102 722 -102 z m 720 -96 b 709 -93 713 -72 713 -66 l 713 -55 b 713 -46 720 -39 726 -43 b 734 -46 731 -66 731 -72 b 731 -83 731 -100 720 -96 z m 802 -186 l 829 -186 l 829 -180 l 813 -180 l 813 -153 l 825 -153 l 825 -147 l 813 -147 l 813 -126 l 829 -126 l 829 -121 l 802 -121 z m 750 -35 l 750 -102 l 758 -102 l 758 -72 l 766 -72 l 775 -102 l 785 -102 l 775 -71 b 787 -66 785 -43 775 -38 b 768 -34 758 -35 750 -35 z m 835 -121 l 835 -186 l 846 -186 l 846 -153 l 853 -153 l 860 -186 l 869 -186 l 860 -153 b 871 -148 869 -127 860 -121 b 853 -117 844 -121 835 -121 z m 758 -66 l 758 -42 b 768 -42 775 -43 775 -54 b 775 -64 768 -66 758 -66 z m 846 -147 l 846 -126 b 853 -126 860 -127 860 -138 b 860 -147 853 -147 846 -147 z m 894 -186 b 911 -186 913 -173 913 -163 l 903 -163 b 903 -165 905 -171 902 -174 b 902 -180 892 -181 888 -176 b 884 -171 886 -157 886 -153 b 886 -147 884 -134 888 -129 b 892 -125 902 -125 902 -130 b 905 -134 903 -139 903 -142 l 913 -142 b 913 -131 911 -121 899 -121 b 884 -117 877 -127 877 -140 b 877 -157 871 -186 894 -186 z m 818 -102 l 829 -102 l 829 -42 l 840 -42 l 840 -35 l 808 -35 l 808 -42 l 818 -42 z m 923 -186 l 931 -186 l 931 -121 l 923 -121 z m 846 -102 l 853 -102 l 853 -72 l 872 -72 l 872 -102 l 881 -102 l 881 -35 l 872 -35 l 872 -66 l 853 -66 l 853 -35 l 846 -35 z m 939 -186 l 948 -186 l 951 -169 l 965 -169 l 968 -186 l 977 -186 l 961 -121 l 952 -121 z m 952 -164 l 957 -131 l 964 -164 z m 890 -102 l 918 -102 l 918 -97 l 902 -97 l 902 -72 l 914 -72 l 914 -66 l 902 -66 l 902 -42 l 918 -42 l 918 -35 l 890 -35 z m 982 -186 l 1010 -186 l 1010 -180 l 993 -180 l 993 -121 l 982 -121 z m 945 -102 l 952 -102 l 952 -72 l 965 -72 l 965 -66 l 952 -66 l 952 -42 l 970 -42 l 970 -35 l 945 -35 z m 1046 -186 l 1053 -186 l 1069 -121 l 1061 -121 l 1049 -169 l 1040 -121 l 1032 -121 z m 999 -102 b 1014 -97 1011 -79 1011 -67 l 1011 -35 l 1003 -35 l 1003 -66 b 1003 -73 1006 -97 993 -97 b 979 -97 983 -73 983 -66 l 983 -35 l 977 -35 l 977 -72 b 977 -76 976 -83 977 -87 b 978 -100 985 -105 999 -102 z m 1075 -186 l 1104 -186 l 1104 -180 l 1086 -180 l 1086 -153 l 1100 -153 l 1100 -147 l 1086 -147 l 1086 -126 l 1104 -126 l 1104 -121 l 1075 -121 z m 1021 -102 l 1046 -102 l 1046 -97 l 1032 -97 l 1032 -35 l 1021 -35 z m 1111 -121 l 1111 -186 l 1119 -186 l 1119 -153 l 1126 -153 l 1134 -186 l 1144 -186 l 1133 -153 b 1145 -150 1145 -127 1136 -121 b 1128 -117 1119 -121 1111 -121 z m 756 246 l 756 177 l 766 177 l 766 209 b 773 209 779 207 785 213 b 789 218 789 230 787 238 b 780 248 766 246 756 246 z m 1119 -147 l 1119 -126 b 1128 -126 1133 -127 1133 -138 b 1133 -147 1128 -147 1119 -147 z m 1053 -102 l 1079 -102 l 1079 -97 l 1062 -97 l 1062 -35 l 1053 -35 z m 766 214 l 766 242 b 775 242 780 242 780 228 b 780 223 780 219 775 215 b 773 214 768 214 766 214 z m 1170 -186 b 1182 -186 1187 -176 1182 -165 b 1182 -157 1174 -153 1170 -147 b 1165 -142 1157 -138 1161 -130 b 1163 -126 1166 -125 1170 -126 b 1174 -127 1174 -134 1176 -139 l 1182 -135 b 1182 -129 1182 -123 1174 -121 b 1170 -117 1163 -118 1157 -123 b 1147 -129 1150 -143 1159 -152 b 1165 -155 1176 -164 1176 -171 b 1176 -176 1171 -181 1165 -178 b 1161 -176 1159 -169 1159 -165 l 1150 -167 b 1150 -178 1157 -186 1170 -186 z m 798 177 l 823 177 l 823 184 l 805 184 l 805 246 l 798 246 z m 699 277 b 726 286 720 326 720 349 l 720 408 l 701 408 l 701 318 b 701 303 696 284 678 289 b 666 295 666 310 666 320 l 666 408 l 650 408 l 650 327 b 650 314 650 303 653 295 b 661 277 683 269 699 277 z m 1192 -186 l 1201 -186 l 1201 -121 l 1192 -121 z m 1104 -102 l 1111 -102 l 1116 -85 l 1128 -85 l 1130 -102 l 1140 -102 l 1126 -35 l 1116 -35 z m 830 177 l 855 177 l 855 184 l 838 184 l 838 209 l 852 209 l 852 215 l 838 215 l 838 242 l 855 242 l 855 246 l 830 246 z m 1116 -80 l 1121 -50 l 1126 -80 z m 1225 -178 b 1217 -174 1222 -153 1222 -147 l 1222 -138 b 1222 -130 1225 -123 1235 -127 b 1241 -130 1239 -148 1239 -155 b 1239 -164 1239 -186 1225 -178 z m 1230 -186 b 1249 -186 1249 -167 1249 -153 b 1249 -139 1250 -121 1231 -121 b 1210 -117 1210 -134 1210 -152 b 1210 -165 1209 -186 1230 -186 z m 859 177 l 867 177 l 869 196 l 884 196 l 886 177 l 897 177 l 884 246 l 872 246 z m 1147 -102 l 1155 -102 l 1155 -58 l 1174 -102 l 1180 -102 l 1180 -35 l 1171 -35 l 1171 -80 l 1153 -35 l 1147 -35 z m 869 201 l 877 234 l 884 201 z m 769 276 b 792 276 804 295 800 315 b 798 333 785 341 773 351 b 763 360 748 369 754 383 b 754 390 760 396 769 393 b 780 391 783 379 784 369 l 798 375 b 798 385 796 396 787 403 b 777 408 764 410 755 408 b 734 402 730 375 741 358 b 746 349 758 341 766 333 b 773 330 776 323 780 319 b 785 312 787 298 779 294 b 773 288 764 289 758 295 b 754 299 754 310 752 318 l 734 312 b 735 291 748 276 769 276 z m 1258 -186 l 1263 -186 l 1263 -140 l 1284 -186 l 1292 -186 l 1292 -121 l 1284 -121 l 1284 -164 l 1263 -121 l 1258 -121 z m 919 177 b 931 177 939 188 935 200 b 934 206 926 211 919 215 b 914 221 909 226 911 234 b 913 242 922 244 926 226 l 935 227 b 935 234 931 242 926 244 b 919 248 911 246 907 243 b 897 234 902 221 911 214 b 915 207 926 201 926 192 b 926 186 923 184 915 184 b 911 186 911 194 911 200 l 902 196 b 902 186 909 177 919 177 z m 1191 -35 l 1191 -102 b 1197 -102 1210 -104 1217 -98 b 1228 -93 1224 -80 1224 -71 b 1224 -62 1228 -46 1220 -41 b 1212 -34 1199 -35 1191 -35 z m 1200 -97 l 1200 -42 b 1209 -42 1214 -42 1216 -54 l 1216 -87 b 1213 -97 1208 -97 1200 -97 z m 941 177 l 969 177 l 969 184 l 952 184 l 952 209 l 965 209 l 965 215 l 952 215 l 952 242 l 969 242 l 969 246 l 941 246 z m 649 428 l 666 428 l 666 487 b 678 487 693 484 701 494 b 717 504 717 528 709 543 b 701 557 689 558 676 558 l 649 558 z m 817 277 l 865 277 l 865 289 l 834 289 l 834 337 l 860 337 l 860 351 l 834 351 l 834 393 l 865 393 l 865 408 l 817 408 z m 666 500 l 666 543 b 672 543 678 546 685 543 b 696 541 696 529 696 521 b 696 512 695 504 685 501 b 678 499 672 500 666 500 z m 1007 177 l 1016 177 l 1031 246 l 1021 246 l 1011 196 l 1003 246 l 993 246 z m 726 428 l 777 428 l 777 438 l 745 438 l 745 487 l 771 487 l 771 500 l 745 500 l 745 543 l 776 543 l 776 558 l 726 558 z m 1037 177 l 1046 177 l 1046 246 l 1037 246 z m 1073 177 b 1084 177 1091 188 1088 200 b 1087 206 1078 213 1074 215 b 1070 221 1062 226 1065 234 b 1069 242 1078 244 1079 226 l 1088 227 b 1087 234 1084 242 1078 244 b 1074 248 1066 246 1061 243 b 1049 234 1057 221 1063 214 b 1070 207 1081 201 1079 192 b 1079 186 1075 184 1070 184 b 1066 186 1063 194 1063 200 l 1054 196 b 1057 186 1061 177 1073 177 z m 952 276 b 969 276 982 285 983 302 b 987 312 985 322 985 333 b 985 351 990 374 982 389 b 978 403 965 408 949 408 b 935 408 923 402 918 386 b 914 369 915 349 915 330 b 915 320 915 312 918 303 b 919 285 934 276 952 276 z m 941 290 b 934 295 935 307 935 318 l 935 341 b 935 354 932 369 935 382 b 937 389 940 393 948 393 b 952 396 957 393 964 389 b 969 383 969 377 969 369 l 969 322 l 969 307 b 968 302 965 295 957 290 b 955 289 948 289 941 290 z m 1096 177 l 1107 177 l 1107 246 l 1096 246 z m 792 558 l 792 428 l 811 428 l 811 487 l 825 487 l 843 428 l 859 428 l 843 492 b 864 499 861 542 843 553 b 829 559 809 558 792 558 z m 1125 177 l 1133 177 l 1133 242 l 1144 242 l 1144 246 l 1112 246 l 1112 242 l 1125 242 z m 811 500 l 811 543 b 817 543 823 546 830 542 b 838 540 839 530 839 525 b 840 515 838 505 830 501 b 823 500 817 500 811 500 z m 1006 277 l 1020 277 l 1020 366 l 1058 277 l 1070 277 l 1070 408 l 1054 408 l 1054 320 l 1019 408 l 1006 408 z m 907 425 b 930 425 941 445 937 466 b 934 479 922 490 911 500 b 901 508 886 520 888 534 b 890 542 899 546 907 546 b 918 542 919 529 922 521 l 935 526 b 935 536 932 547 924 553 b 915 558 902 559 892 557 b 869 551 865 526 877 505 b 884 498 894 490 902 483 b 910 477 914 471 918 467 b 923 461 924 449 918 444 b 911 438 902 438 894 445 b 890 450 888 458 888 467 l 869 463 b 871 442 884 425 907 425 z m 1091 277 l 1140 277 l 1140 289 l 1109 289 l 1109 408 l 1091 408 z m 978 441 b 968 445 969 458 969 466 l 969 490 b 969 503 965 521 969 530 b 972 540 976 543 982 543 b 987 546 993 546 997 540 b 1003 534 1003 526 1003 519 l 1003 458 b 1003 452 1003 445 994 441 b 990 438 982 438 978 441 z m 1230 277 l 1249 277 l 1249 295 l 1230 295 z m 1174 303 l 1174 277 l 1192 277 l 1192 309 b 1192 314 1191 320 1193 327 l 1203 353 l 1220 408 l 1203 408 l 1182 345 l 1163 408 l 1147 408 l 1165 349 b 1170 341 1171 333 1174 323 z m 1040 428 l 1054 428 l 1054 515 l 1091 428 l 1104 428 l 1104 558 l 1088 558 l 1088 469 l 1050 558 l 1040 558 z m 1235 305 l 1241 305 l 1249 408 l 1230 408 z m 1117 428 l 1133 428 l 1140 458 l 1167 458 l 1174 428 l 1191 428 l 1163 558 l 1145 558 z m 1144 471 l 1154 530 l 1165 471 z m 1204 428 l 1255 428 l 1255 438 l 1224 438 l 1224 558 l 1204 558 z m 410 -11 l 434 -11 l 436 55 l 449 -11 l 468 -11 l 479 56 l 482 -11 l 505 -11 l 504 151 l 476 151 l 458 49 l 438 151 l 412 151 z m 526 -11 l 551 -11 l 551 68 l 580 -11 l 600 -11 l 600 151 l 574 151 l 574 73 l 546 151 l 526 151 z m 618 -11 l 646 -11 l 646 18 l 618 18 z m 701 -13 b 719 -9 729 6 730 20 b 732 41 725 58 710 73 l 698 88 b 692 94 685 98 682 107 b 680 113 681 129 694 128 b 704 126 702 107 704 96 l 729 98 b 729 117 727 141 708 150 b 685 161 658 145 658 121 b 655 108 658 94 664 84 b 666 78 673 73 679 67 b 688 56 704 43 704 26 b 704 20 702 14 697 13 b 692 11 689 14 687 18 b 681 28 681 38 681 47 l 655 46 b 655 32 658 18 663 6 b 669 -9 685 -15 701 -13 z m 800 -6 l 800 -11 l 822 -11 l 822 73 l 780 73 l 780 49 l 796 49 b 796 41 799 6 780 13 b 767 17 771 38 771 47 l 771 106 b 771 118 773 130 785 128 b 793 124 794 122 794 94 l 820 94 b 820 112 822 136 803 147 b 793 154 779 154 767 151 b 752 145 745 131 743 117 b 741 103 742 86 742 70 b 742 55 741 41 743 25 b 744 13 748 -2 759 -8 b 771 -15 789 -15 800 -6 z m 827 -31 l 850 -31 l 896 171 l 871 171 z m 935 -14 b 941 -15 948 -14 953 -11 b 972 -2 975 21 975 41 l 949 43 b 949 32 950 13 938 11 b 933 11 928 13 928 21 l 928 116 b 928 125 933 128 938 127 b 950 125 949 106 949 96 l 975 97 b 975 116 972 141 953 148 b 948 152 941 153 935 152 b 918 150 901 138 901 118 l 901 20 b 901 1 918 -12 935 -14 z m 978 -12 l 1005 -12 l 1011 26 l 1028 26 l 1034 -12 l 1061 -12 l 1033 150 l 1007 150 z m 1015 50 l 1019 83 l 1024 50 z m 1064 -12 l 1090 -12 l 1090 54 l 1102 -12 l 1121 -12 l 1134 55 l 1135 -12 l 1160 -12 l 1159 150 l 1130 150 l 1111 48 l 1093 150 l 1067 150 z m 1173 -12 l 1199 -12 l 1199 38 b 1210 38 1213 38 1219 41 b 1249 48 1249 83 1249 96 b 1249 131 1231 150 1213 150 l 1173 150 z m 1214 63 l 1199 63 l 1199 127 l 1210 127 b 1226 127 1224 67 1214 63 z m 1243 -12 l 1271 -12 l 1276 26 l 1294 26 l 1299 -12 l 1326 -12 l 1299 150 l 1273 150 z m 1281 50 l 1285 83 l 1289 50 z m 1329 -12 l 1355 -12 l 1355 67 l 1382 -12 l 1403 -12 l 1403 150 l 1377 150 l 1377 72 l 1349 150 l 1329 150 z m 1406 -12 l 1434 -12 l 1439 26 l 1457 26 l 1462 -12 l 1489 -12 l 1462 150 l 1436 150 z m 1443 50 l 1448 83 l 1452 50 z"},"5":{"x_min":0,"x_max":1753,"ha":1753,"o":"m 983 425 b 1003 425 1016 433 1020 452 b 1021 461 1021 471 1021 482 b 1021 499 1025 524 1019 540 b 1014 554 997 558 982 558 b 969 558 956 551 952 536 b 948 520 949 496 949 477 b 949 469 949 462 951 453 b 955 436 965 425 983 425 z m 624 -186 b 638 -186 640 -173 640 -163 l 632 -163 b 632 -165 632 -171 630 -174 b 628 -180 620 -181 616 -176 b 612 -171 613 -157 613 -153 b 613 -147 612 -134 616 -129 b 620 -125 628 -125 630 -130 b 632 -134 632 -139 632 -142 l 640 -142 b 640 -131 640 -121 626 -121 b 611 -117 604 -127 604 -140 b 604 -157 599 -186 624 -186 z m 661 -178 b 653 -174 655 -153 655 -147 l 655 -138 b 655 -130 661 -123 670 -127 b 676 -130 675 -148 675 -155 b 675 -164 675 -186 661 -178 z m 666 -186 b 685 -186 684 -167 684 -153 b 684 -139 685 -121 666 -121 b 647 -117 647 -134 647 -152 b 647 -165 645 -186 666 -186 z m 693 -186 l 701 -186 l 701 -138 l 712 -186 l 720 -186 l 730 -138 l 730 -186 l 737 -186 l 735 -121 l 726 -121 l 717 -173 l 704 -121 l 693 -121 z m 672 -102 l 683 -102 l 683 -72 l 695 -72 l 695 -66 l 683 -66 l 683 -42 l 699 -42 l 699 -35 l 672 -35 z m 748 -186 l 755 -186 l 756 -138 l 766 -186 l 773 -186 l 784 -138 l 785 -186 l 792 -186 l 789 -121 l 780 -121 l 769 -173 l 758 -121 l 748 -121 z m 722 -102 b 741 -102 741 -84 741 -71 b 741 -58 742 -38 725 -34 b 704 -34 704 -51 704 -67 b 704 -83 701 -102 722 -102 z m 720 -96 b 709 -93 713 -72 713 -66 l 713 -55 b 713 -46 720 -39 726 -43 b 734 -46 731 -66 731 -72 b 731 -83 731 -100 720 -96 z m 802 -186 l 829 -186 l 829 -180 l 813 -180 l 813 -153 l 825 -153 l 825 -147 l 813 -147 l 813 -126 l 829 -126 l 829 -121 l 802 -121 z m 750 -35 l 750 -102 l 758 -102 l 758 -72 l 766 -72 l 775 -102 l 785 -102 l 775 -71 b 787 -66 785 -43 775 -38 b 768 -34 758 -35 750 -35 z m 835 -121 l 835 -186 l 846 -186 l 846 -153 l 853 -153 l 860 -186 l 869 -186 l 860 -153 b 871 -148 869 -127 860 -121 b 853 -117 844 -121 835 -121 z m 758 -66 l 758 -42 b 768 -42 775 -43 775 -54 b 775 -64 768 -66 758 -66 z m 846 -147 l 846 -126 b 853 -126 860 -127 860 -138 b 860 -147 853 -147 846 -147 z m 894 -186 b 911 -186 913 -173 913 -163 l 903 -163 b 903 -165 905 -171 902 -174 b 902 -180 892 -181 888 -176 b 884 -171 886 -157 886 -153 b 886 -147 884 -134 888 -129 b 892 -125 902 -125 902 -130 b 905 -134 903 -139 903 -142 l 913 -142 b 913 -131 911 -121 899 -121 b 884 -117 877 -127 877 -140 b 877 -157 871 -186 894 -186 z m 818 -102 l 829 -102 l 829 -42 l 840 -42 l 840 -35 l 808 -35 l 808 -42 l 818 -42 z m 923 -186 l 931 -186 l 931 -121 l 923 -121 z m 846 -102 l 853 -102 l 853 -72 l 872 -72 l 872 -102 l 881 -102 l 881 -35 l 872 -35 l 872 -66 l 853 -66 l 853 -35 l 846 -35 z m 939 -186 l 948 -186 l 951 -169 l 965 -169 l 968 -186 l 977 -186 l 961 -121 l 952 -121 z m 952 -164 l 957 -131 l 964 -164 z m 890 -102 l 918 -102 l 918 -97 l 902 -97 l 902 -72 l 914 -72 l 914 -66 l 902 -66 l 902 -42 l 918 -42 l 918 -35 l 890 -35 z m 982 -186 l 1010 -186 l 1010 -180 l 993 -180 l 993 -121 l 982 -121 z m 945 -102 l 952 -102 l 952 -72 l 965 -72 l 965 -66 l 952 -66 l 952 -42 l 970 -42 l 970 -35 l 945 -35 z m 1046 -186 l 1053 -186 l 1069 -121 l 1061 -121 l 1049 -169 l 1040 -121 l 1032 -121 z m 999 -102 b 1014 -97 1011 -79 1011 -67 l 1011 -35 l 1003 -35 l 1003 -66 b 1003 -73 1006 -97 993 -97 b 979 -97 983 -73 983 -66 l 983 -35 l 977 -35 l 977 -72 b 977 -76 976 -83 977 -87 b 978 -100 985 -105 999 -102 z m 1075 -186 l 1104 -186 l 1104 -180 l 1086 -180 l 1086 -153 l 1100 -153 l 1100 -147 l 1086 -147 l 1086 -126 l 1104 -126 l 1104 -121 l 1075 -121 z m 1021 -102 l 1046 -102 l 1046 -97 l 1032 -97 l 1032 -35 l 1021 -35 z m 1111 -121 l 1111 -186 l 1119 -186 l 1119 -153 l 1126 -153 l 1134 -186 l 1144 -186 l 1133 -153 b 1145 -150 1145 -127 1136 -121 b 1128 -117 1119 -121 1111 -121 z m 756 246 l 756 177 l 766 177 l 766 209 b 773 209 779 207 785 213 b 789 218 789 230 787 238 b 780 248 766 246 756 246 z m 1119 -147 l 1119 -126 b 1128 -126 1133 -127 1133 -138 b 1133 -147 1128 -147 1119 -147 z m 1053 -102 l 1079 -102 l 1079 -97 l 1062 -97 l 1062 -35 l 1053 -35 z m 766 214 l 766 242 b 775 242 780 242 780 228 b 780 223 780 219 775 215 b 773 214 768 214 766 214 z m 1170 -186 b 1182 -186 1187 -176 1182 -165 b 1182 -157 1174 -153 1170 -147 b 1165 -142 1157 -138 1161 -130 b 1163 -126 1166 -125 1170 -126 b 1174 -127 1174 -134 1176 -139 l 1182 -135 b 1182 -129 1182 -123 1174 -121 b 1170 -117 1163 -118 1157 -123 b 1147 -129 1150 -143 1159 -152 b 1165 -155 1176 -164 1176 -171 b 1176 -176 1171 -181 1165 -178 b 1161 -176 1159 -169 1159 -165 l 1150 -167 b 1150 -178 1157 -186 1170 -186 z m 798 177 l 823 177 l 823 184 l 805 184 l 805 246 l 798 246 z m 699 277 b 726 286 720 326 720 349 l 720 408 l 701 408 l 701 318 b 701 303 696 284 678 289 b 666 295 666 310 666 320 l 666 408 l 650 408 l 650 327 b 650 314 650 303 653 295 b 661 277 683 269 699 277 z m 1192 -186 l 1201 -186 l 1201 -121 l 1192 -121 z m 1104 -102 l 1111 -102 l 1116 -85 l 1128 -85 l 1130 -102 l 1140 -102 l 1126 -35 l 1116 -35 z m 830 177 l 855 177 l 855 184 l 838 184 l 838 209 l 852 209 l 852 215 l 838 215 l 838 242 l 855 242 l 855 246 l 830 246 z m 1116 -80 l 1121 -50 l 1126 -80 z m 1225 -178 b 1217 -174 1222 -153 1222 -147 l 1222 -138 b 1222 -130 1225 -123 1235 -127 b 1241 -130 1239 -148 1239 -155 b 1239 -164 1239 -186 1225 -178 z m 1230 -186 b 1249 -186 1249 -167 1249 -153 b 1249 -139 1250 -121 1231 -121 b 1210 -117 1210 -134 1210 -152 b 1210 -165 1209 -186 1230 -186 z m 859 177 l 867 177 l 869 196 l 884 196 l 886 177 l 897 177 l 884 246 l 872 246 z m 1147 -102 l 1155 -102 l 1155 -58 l 1174 -102 l 1180 -102 l 1180 -35 l 1171 -35 l 1171 -80 l 1153 -35 l 1147 -35 z m 869 201 l 877 234 l 884 201 z m 769 276 b 792 276 804 295 800 315 b 798 333 785 341 773 351 b 763 360 748 369 754 383 b 754 390 760 396 769 393 b 780 391 783 379 784 369 l 798 375 b 798 385 796 396 787 403 b 777 408 764 410 755 408 b 734 402 730 375 741 358 b 746 349 758 341 766 333 b 773 330 776 323 780 319 b 785 312 787 298 779 294 b 773 288 764 289 758 295 b 754 299 754 310 752 318 l 734 312 b 735 291 748 276 769 276 z m 1258 -186 l 1263 -186 l 1263 -140 l 1284 -186 l 1292 -186 l 1292 -121 l 1284 -121 l 1284 -164 l 1263 -121 l 1258 -121 z m 919 177 b 931 177 939 188 935 200 b 934 206 926 211 919 215 b 914 221 909 226 911 234 b 913 242 922 244 926 226 l 935 227 b 935 234 931 242 926 244 b 919 248 911 246 907 243 b 897 234 902 221 911 214 b 915 207 926 201 926 192 b 926 186 923 184 915 184 b 911 186 911 194 911 200 l 902 196 b 902 186 909 177 919 177 z m 1191 -35 l 1191 -102 b 1197 -102 1210 -104 1217 -98 b 1228 -93 1224 -80 1224 -71 b 1224 -62 1228 -46 1220 -41 b 1212 -34 1199 -35 1191 -35 z m 1200 -97 l 1200 -42 b 1209 -42 1214 -42 1216 -54 l 1216 -87 b 1213 -97 1208 -97 1200 -97 z m 941 177 l 969 177 l 969 184 l 952 184 l 952 209 l 965 209 l 965 215 l 952 215 l 952 242 l 969 242 l 969 246 l 941 246 z m 649 428 l 666 428 l 666 487 b 678 487 693 484 701 494 b 717 504 717 528 709 543 b 701 557 689 558 676 558 l 649 558 z m 817 277 l 865 277 l 865 289 l 834 289 l 834 337 l 860 337 l 860 351 l 834 351 l 834 393 l 865 393 l 865 408 l 817 408 z m 666 500 l 666 543 b 672 543 678 546 685 543 b 696 541 696 529 696 521 b 696 512 695 504 685 501 b 678 499 672 500 666 500 z m 1007 177 l 1016 177 l 1031 246 l 1021 246 l 1011 196 l 1003 246 l 993 246 z m 726 428 l 777 428 l 777 438 l 745 438 l 745 487 l 771 487 l 771 500 l 745 500 l 745 543 l 776 543 l 776 558 l 726 558 z m 1037 177 l 1046 177 l 1046 246 l 1037 246 z m 1073 177 b 1084 177 1091 188 1088 200 b 1087 206 1078 213 1074 215 b 1070 221 1062 226 1065 234 b 1069 242 1078 244 1079 226 l 1088 227 b 1087 234 1084 242 1078 244 b 1074 248 1066 246 1061 243 b 1049 234 1057 221 1063 214 b 1070 207 1081 201 1079 192 b 1079 186 1075 184 1070 184 b 1066 186 1063 194 1063 200 l 1054 196 b 1057 186 1061 177 1073 177 z m 952 276 b 969 276 982 285 983 302 b 987 312 985 322 985 333 b 985 351 990 374 982 389 b 978 403 965 408 949 408 b 935 408 923 402 918 386 b 914 369 915 349 915 330 b 915 320 915 312 918 303 b 919 285 934 276 952 276 z m 941 290 b 934 295 935 307 935 318 l 935 341 b 935 354 932 369 935 382 b 937 389 940 393 948 393 b 952 396 957 393 964 389 b 969 383 969 377 969 369 l 969 322 l 969 307 b 968 302 965 295 957 290 b 955 289 948 289 941 290 z m 1096 177 l 1107 177 l 1107 246 l 1096 246 z m 792 558 l 792 428 l 811 428 l 811 487 l 825 487 l 843 428 l 859 428 l 843 492 b 864 499 861 542 843 553 b 829 559 809 558 792 558 z m 1125 177 l 1133 177 l 1133 242 l 1144 242 l 1144 246 l 1112 246 l 1112 242 l 1125 242 z m 811 500 l 811 543 b 817 543 823 546 830 542 b 838 540 839 530 839 525 b 840 515 838 505 830 501 b 823 500 817 500 811 500 z m 1006 277 l 1020 277 l 1020 366 l 1058 277 l 1070 277 l 1070 408 l 1054 408 l 1054 320 l 1019 408 l 1006 408 z m 907 425 b 930 425 941 445 937 466 b 934 479 922 490 911 500 b 901 508 886 520 888 534 b 890 542 899 546 907 546 b 918 542 919 529 922 521 l 935 526 b 935 536 932 547 924 553 b 915 558 902 559 892 557 b 869 551 865 526 877 505 b 884 498 894 490 902 483 b 910 477 914 471 918 467 b 923 461 924 449 918 444 b 911 438 902 438 894 445 b 890 450 888 458 888 467 l 869 463 b 871 442 884 425 907 425 z m 1091 277 l 1140 277 l 1140 289 l 1109 289 l 1109 408 l 1091 408 z m 978 441 b 968 445 969 458 969 466 l 969 490 b 969 503 965 521 969 530 b 972 540 976 543 982 543 b 987 546 993 546 997 540 b 1003 534 1003 526 1003 519 l 1003 458 b 1003 452 1003 445 994 441 b 990 438 982 438 978 441 z m 1230 277 l 1249 277 l 1249 295 l 1230 295 z m 1174 303 l 1174 277 l 1192 277 l 1192 309 b 1192 314 1191 320 1193 327 l 1203 353 l 1220 408 l 1203 408 l 1182 345 l 1163 408 l 1147 408 l 1165 349 b 1170 341 1171 333 1174 323 z m 1040 428 l 1054 428 l 1054 515 l 1091 428 l 1104 428 l 1104 558 l 1088 558 l 1088 469 l 1050 558 l 1040 558 z m 1235 305 l 1241 305 l 1249 408 l 1230 408 z m 1117 428 l 1133 428 l 1140 458 l 1167 458 l 1174 428 l 1191 428 l 1163 558 l 1145 558 z m 1144 471 l 1154 530 l 1165 471 z m 1204 428 l 1255 428 l 1255 438 l 1224 438 l 1224 558 l 1204 558 z m 410 -11 l 434 -11 l 436 55 l 449 -11 l 468 -11 l 479 56 l 482 -11 l 505 -11 l 504 151 l 476 151 l 458 49 l 438 151 l 412 151 z m 526 -11 l 551 -11 l 551 68 l 580 -11 l 600 -11 l 600 151 l 574 151 l 574 73 l 546 151 l 526 151 z m 618 -11 l 646 -11 l 646 18 l 618 18 z m 701 -13 b 719 -9 729 6 730 20 b 732 41 725 58 710 73 l 698 88 b 692 94 685 98 682 107 b 680 113 681 129 694 128 b 704 126 702 107 704 96 l 729 98 b 729 117 727 141 708 150 b 685 161 658 145 658 121 b 655 108 658 94 664 84 b 666 78 673 73 679 67 b 688 56 704 43 704 26 b 704 20 702 14 697 13 b 692 11 689 14 687 18 b 681 28 681 38 681 47 l 655 46 b 655 32 658 18 663 6 b 669 -9 685 -15 701 -13 z m 800 -6 l 800 -11 l 822 -11 l 822 73 l 780 73 l 780 49 l 796 49 b 796 41 799 6 780 13 b 767 17 771 38 771 47 l 771 106 b 771 118 773 130 785 128 b 793 124 794 122 794 94 l 820 94 b 820 112 822 136 803 147 b 793 154 779 154 767 151 b 752 145 745 131 743 117 b 741 103 742 86 742 70 b 742 55 741 41 743 25 b 744 13 748 -2 759 -8 b 771 -15 789 -15 800 -6 z m 827 -31 l 850 -31 l 896 171 l 871 171 z m 935 -14 b 941 -15 948 -14 953 -11 b 972 -2 975 21 975 41 l 949 43 b 949 32 950 13 938 11 b 933 11 928 13 928 21 l 928 116 b 928 125 933 128 938 127 b 950 125 949 106 949 96 l 975 97 b 975 116 972 141 953 148 b 948 152 941 153 935 152 b 918 150 901 138 901 118 l 901 20 b 901 1 918 -12 935 -14 z m 978 -12 l 1005 -12 l 1011 26 l 1028 26 l 1034 -12 l 1061 -12 l 1033 150 l 1007 150 z m 1015 50 l 1019 83 l 1024 50 z m 1064 -12 l 1090 -12 l 1090 54 l 1102 -12 l 1121 -12 l 1134 55 l 1135 -12 l 1160 -12 l 1159 150 l 1130 150 l 1111 48 l 1093 150 l 1067 150 z m 1173 -12 l 1199 -12 l 1199 38 b 1210 38 1213 38 1219 41 b 1249 48 1249 83 1249 96 b 1249 131 1231 150 1213 150 l 1173 150 z m 1214 63 l 1199 63 l 1199 127 l 1210 127 b 1226 127 1224 67 1214 63 z m 1243 -12 l 1271 -12 l 1276 26 l 1294 26 l 1299 -12 l 1326 -12 l 1299 150 l 1273 150 z m 1281 50 l 1285 83 l 1289 50 z m 1329 -12 l 1355 -12 l 1355 67 l 1382 -12 l 1403 -12 l 1403 150 l 1377 150 l 1377 72 l 1349 150 l 1329 150 z m 1406 -12 l 1434 -12 l 1439 26 l 1457 26 l 1462 -12 l 1489 -12 l 1462 150 l 1436 150 z m 1443 50 l 1448 83 l 1452 50 z"}}}
